FiraSans-SemiLightItalic.ufo
<glyph name="ampersand" format="2">
  <advance width="717"/>
  <unicode hex="0026"/>
  <outline>
    <contour>
      <point x="351" y="692" type="curve" smooth="yes"/>
      <point x="241" y="692"/>
      <point x="181" y="612"/>
      <point x="181" y="532" type="curve" smooth="yes"/>
      <point x="181" y="475"/>
      <point x="209" y="426"/>
      <point x="260" y="368" type="curve"/>
      <point x="128" y="301"/>
      <point x="87" y="234"/>
      <point x="87" y="149" type="curve" smooth="yes"/>
      <point x="87" y="53"/>
      <point x="156" y="-10"/>
      <point x="264" y="-10" type="curve" smooth="yes"/>
      <point x="372" y="-10"/>
      <point x="444" y="38"/>
      <point x="501" y="106" type="curve"/>
      <point x="605" y="-9" type="line"/>
      <point x="632" y="8" type="line"/>
      <point x="520" y="129" type="line"/>
      <point x="564" y="193"/>
      <point x="596" y="258"/>
      <point x="626" y="326" type="curve"/>
      <point x="599" y="337" type="line"/>
      <point x="571" y="273"/>
      <point x="543" y="215"/>
      <point x="502" y="149" type="curve"/>
      <point x="305" y="361" type="line"/>
      <point x="460" y="440"/>
      <point x="498" y="489"/>
      <point x="498" y="566" type="curve" smooth="yes"/>
      <point x="498" y="638"/>
      <point x="437" y="692"/>
    </contour>
    <contour>
      <point x="278" y="349" type="curve"/>
      <point x="482" y="126" type="line"/>
      <point x="427" y="59"/>
      <point x="360" y="18"/>
      <point x="264" y="18" type="curve" smooth="yes"/>
      <point x="170" y="18"/>
      <point x="118" y="72"/>
      <point x="118" y="148" type="curve" smooth="yes"/>
      <point x="118" y="226"/>
      <point x="153" y="288"/>
    </contour>
    <contour>
      <point x="351" y="665" type="curve" smooth="yes"/>
      <point x="415" y="665"/>
      <point x="467" y="628"/>
      <point x="467" y="566" type="curve" smooth="yes"/>
      <point x="467" y="499"/>
      <point x="436" y="454"/>
      <point x="287" y="380" type="curve"/>
      <point x="226" y="448"/>
      <point x="212" y="490"/>
      <point x="212" y="532" type="curve" smooth="yes"/>
      <point x="212" y="594"/>
      <point x="253" y="665"/>
    </contour>
  </outline>
</glyph>
<glyph name="parenleft" format="2">
  <advance width="324"/>
  <unicode hex="0028"/>
  <outline>
    <contour>
      <point x="318" y="832" type="line"/>
      <point x="157" y="641"/>
      <point x="69" y="489"/>
      <point x="69" y="234" type="curve" smooth="yes"/>
      <point x="69" y="78"/>
      <point x="121" y="-20"/>
      <point x="184" y="-130" type="curve"/>
      <point x="206" y="-120" type="line"/>
      <point x="148" y="-13"/>
      <point x="99" y="85"/>
      <point x="99" y="234" type="curve" smooth="yes"/>
      <point x="99" y="480"/>
      <point x="183" y="630"/>
      <point x="337" y="818" type="curve"/>
    </contour>
  </outline>
</glyph>
<glyph name="parenright" format="2">
  <advance width="324"/>
  <unicode hex="0029"/>
  <outline>
    <contour>
      <point x="165" y="830" type="curve"/>
      <point x="144" y="820" type="line"/>
      <point x="201" y="715"/>
      <point x="250" y="616"/>
      <point x="250" y="467" type="curve" smooth="yes"/>
      <point x="250" y="220"/>
      <point x="166" y="71"/>
      <point x="12" y="-118" type="curve"/>
      <point x="31" y="-132" type="line"/>
      <point x="193" y="59"/>
      <point x="280" y="212"/>
      <point x="280" y="467" type="curve" smooth="yes"/>
      <point x="280" y="623"/>
      <point x="227" y="721"/>
    </contour>
  </outline>
</glyph>
<glyph name="period" format="2">
  <advance width="180"/>
  <unicode hex="002E"/>
  <outline>
    <contour>
      <point x="54" y="-10" type="curve" smooth="yes"/>
      <point x="73" y="-10"/>
      <point x="86" y="3"/>
      <point x="86" y="21" type="curve" smooth="yes"/>
      <point x="86" y="37"/>
      <point x="76" y="49"/>
      <point x="58" y="49" type="curve" smooth="yes"/>
      <point x="40" y="49"/>
      <point x="26" y="36"/>
      <point x="26" y="17" type="curve" smooth="yes"/>
      <point x="26" y="2"/>
      <point x="37" y="-10"/>
    </contour>
  </outline>
</glyph>
<glyph name="zero" format="2">
  <advance width="543"/>
  <unicode hex="0030"/>
  <outline>
    <contour>
      <point x="330" y="674" type="curve" smooth="yes"/>
      <point x="431" y="674"/>
      <point x="487" y="598"/>
      <point x="487" y="445" type="curve" smooth="yes"/>
      <point x="487" y="253"/>
      <point x="415" y="-10"/>
      <point x="234" y="-10" type="curve" smooth="yes"/>
      <point x="133" y="-10"/>
      <point x="76" y="67"/>
      <point x="76" y="219" type="curve" smooth="yes"/>
      <point x="76" y="407"/>
      <point x="148" y="674"/>
    </contour>
    <contour>
      <point x="330" y="646" type="curve" smooth="yes"/>
      <point x="174" y="646"/>
      <point x="107" y="403"/>
      <point x="107" y="217" type="curve" smooth="yes"/>
      <point x="107" y="82"/>
      <point x="152" y="18"/>
      <point x="234" y="18" type="curve" smooth="yes"/>
      <point x="390" y="18"/>
      <point x="456" y="260"/>
      <point x="456" y="448" type="curve" smooth="yes"/>
      <point x="456" y="582"/>
      <point x="412" y="646"/>
    </contour>
  </outline>
</glyph>
<glyph name="six" format="2">
  <advance width="517"/>
  <unicode hex="0036"/>
  <outline>
    <contour>
      <point x="361" y="674" type="curve"/>
      <point x="175" y="674"/>
      <point x="73" y="418"/>
      <point x="73" y="204" type="curve" smooth="yes"/>
      <point x="73" y="82"/>
      <point x="118" y="-10"/>
      <point x="240" y="-10" type="curve" smooth="yes"/>
      <point x="396" y="-10"/>
      <point x="457" y="157"/>
      <point x="457" y="266" type="curve" smooth="yes"/>
      <point x="457" y="375"/>
      <point x="391" y="428"/>
      <point x="307" y="428" type="curve" smooth="yes"/>
      <point x="223" y="428"/>
      <point x="155" y="382"/>
      <point x="108" y="312" type="curve"/>
      <point x="102" y="264" type="line"/>
      <point x="158" y="347"/>
      <point x="225" y="401"/>
      <point x="306" y="401" type="curve" smooth="yes"/>
      <point x="375" y="401"/>
      <point x="426" y="357"/>
      <point x="426" y="265" type="curve" smooth="yes"/>
      <point x="426" y="179"/>
      <point x="379" y="18"/>
      <point x="240" y="18" type="curve" smooth="yes"/>
      <point x="141" y="18"/>
      <point x="104" y="91"/>
      <point x="104" y="201" type="curve" smooth="yes"/>
      <point x="104" y="229"/>
      <point x="106" y="259"/>
      <point x="109" y="291" type="curve"/>
      <point x="110" y="306" type="line"/>
      <point x="141" y="499"/>
      <point x="233" y="647"/>
      <point x="360" y="647" type="curve" smooth="yes"/>
      <point x="398" y="647"/>
      <point x="425" y="635"/>
      <point x="452" y="614" type="curve"/>
      <point x="470" y="636" type="line"/>
      <point x="440" y="659"/>
      <point x="410" y="674"/>
    </contour>
  </outline>
</glyph>
<glyph name="nine" format="2">
  <advance width="512"/>
  <unicode hex="0039"/>
  <outline>
    <contour>
      <point x="437" y="368" type="curve"/>
      <point x="436" y="402" type="line"/>
      <point x="376" y="325"/>
      <point x="316" y="281"/>
      <point x="240" y="281" type="curve" smooth="yes"/>
      <point x="162" y="281"/>
      <point x="115" y="336"/>
      <point x="115" y="427" type="curve" smooth="yes"/>
      <point x="115" y="513"/>
      <point x="161" y="647"/>
      <point x="304" y="647" type="curve" smooth="yes"/>
      <point x="399" y="647"/>
      <point x="436" y="583"/>
      <point x="436" y="478" type="curve" smooth="yes"/>
      <point x="436" y="451"/>
      <point x="435" y="424"/>
      <point x="431" y="391" type="curve"/>
      <point x="429" y="368" type="line"/>
      <point x="391" y="160"/>
      <point x="269" y="67"/>
      <point x="80" y="8" type="curve"/>
      <point x="87" y="-17" type="line"/>
      <point x="397" y="67"/>
      <point x="467" y="275"/>
      <point x="467" y="479" type="curve" smooth="yes"/>
      <point x="467" y="599"/>
      <point x="418" y="674"/>
      <point x="304" y="674" type="curve" smooth="yes"/>
      <point x="147" y="674"/>
      <point x="84" y="532"/>
      <point x="84" y="428" type="curve" smooth="yes"/>
      <point x="84" y="321"/>
      <point x="146" y="253"/>
      <point x="237" y="253" type="curve" smooth="yes"/>
      <point x="312" y="253"/>
      <point x="381" y="293"/>
    </contour>
  </outline>
</glyph>
<glyph name="less" format="2">
  <advance width="493"/>
  <unicode hex="003C"/>
  <outline>
    <contour>
      <point x="442" y="510" type="line"/>
      <point x="87" y="344" type="line"/>
      <point x="84" y="322" type="line"/>
      <point x="392" y="152" type="line"/>
      <point x="407" y="177" type="line"/>
      <point x="119" y="332" type="line"/>
      <point x="450" y="484" type="line"/>
    </contour>
  </outline>
</glyph>
<glyph name="at" format="2">
  <advance width="1020"/>
  <unicode hex="0040"/>
  <outline>
    <contour>
      <point x="574" y="692" type="curve" smooth="yes"/>
      <point x="220" y="692"/>
      <point x="88" y="389"/>
      <point x="88" y="174" type="curve" smooth="yes"/>
      <point x="88" y="-56"/>
      <point x="248" y="-199"/>
      <point x="470" y="-199" type="curve" smooth="yes"/>
      <point x="557" y="-199"/>
      <point x="612" y="-184"/>
      <point x="669" y="-165" type="curve"/>
      <point x="663" y="-138" type="line"/>
      <point x="605" y="-159"/>
      <point x="548" y="-171"/>
      <point x="471" y="-171" type="curve" smooth="yes"/>
      <point x="263" y="-171"/>
      <point x="118" y="-39"/>
      <point x="118" y="175" type="curve" smooth="yes"/>
      <point x="118" y="377"/>
      <point x="244" y="664"/>
      <point x="574" y="664" type="curve" smooth="yes"/>
      <point x="787" y="664"/>
      <point x="902" y="535"/>
      <point x="902" y="357" type="curve" smooth="yes"/>
      <point x="902" y="220"/>
      <point x="851" y="41"/>
      <point x="721" y="41" type="curve" smooth="yes"/>
      <point x="644" y="41"/>
      <point x="641" y="121"/>
      <point x="649" y="186" type="curve" smooth="yes"/>
      <point x="684" y="444" type="line"/>
      <point x="649" y="462"/>
      <point x="604" y="478"/>
      <point x="552" y="478" type="curve" smooth="yes"/>
      <point x="380" y="478"/>
      <point x="314" y="305"/>
      <point x="314" y="185" type="curve" smooth="yes"/>
      <point x="314" y="73"/>
      <point x="376" y="17"/>
      <point x="454" y="17" type="curve" smooth="yes"/>
      <point x="523" y="17"/>
      <point x="577" y="56"/>
      <point x="619" y="129" type="curve"/>
      <point x="622" y="59"/>
      <point x="660" y="15"/>
      <point x="722" y="15" type="curve" smooth="yes"/>
      <point x="871" y="15"/>
      <point x="933" y="200"/>
      <point x="933" y="358" type="curve" smooth="yes"/>
      <point x="933" y="546"/>
      <point x="811" y="692"/>
    </contour>
    <contour>
      <point x="456" y="45" type="curve" smooth="yes"/>
      <point x="390" y="45"/>
      <point x="345" y="90"/>
      <point x="345" y="181" type="curve" smooth="yes"/>
      <point x="345" y="283"/>
      <point x="396" y="450"/>
      <point x="553" y="450" type="curve" smooth="yes"/>
      <point x="592" y="450"/>
      <point x="621" y="441"/>
      <point x="653" y="425" type="curve"/>
      <point x="616" y="170" type="line"/>
      <point x="587" y="103"/>
      <point x="526" y="45"/>
    </contour>
  </outline>
</glyph>
<glyph name="A" format="2">
  <advance width="558"/>
  <unicode hex="0041"/>
  <anchor x="242" y="0" name="bottom"/>
  <anchor x="506" y="0" name="ogonek"/>
  <anchor x="338" y="682" name="top"/>
  <anchor x="229" y="682" name="topleft"/>
  <outline>
    <contour>
      <point x="357" y="682" type="line"/>
      <point x="319" y="682" type="line"/>
      <point x="-12" y="0" type="line"/>
      <point x="20" y="0" type="line"/>
      <point x="335" y="657" type="line"/>
      <point x="464" y="0" type="line"/>
      <point x="496" y="0" type="line"/>
    </contour>
    <contour>
      <point x="430" y="228" type="line"/>
      <point x="119" y="228" type="line"/>
      <point x="103" y="199" type="line"/>
      <point x="435" y="199" type="line"/>
    </contour>
  </outline>
</glyph>
<glyph name="D" format="2">
  <advance width="622"/>
  <unicode hex="0044"/>
  <anchor x="252" y="0" name="bottom"/>
  <anchor x="328" y="341" name="center"/>
  <anchor x="356" y="682" name="top"/>
  <outline>
    <contour>
      <point x="307" y="682" type="curve" smooth="yes"/>
      <point x="179" y="682" type="line"/>
      <point x="83" y="0" type="line"/>
      <point x="216" y="0" type="line" smooth="yes"/>
      <point x="476" y="0"/>
      <point x="565" y="220"/>
      <point x="565" y="429" type="curve" smooth="yes"/>
      <point x="565" y="638"/>
      <point x="438" y="682"/>
    </contour>
    <contour>
      <point x="302" y="653" type="line" smooth="yes"/>
      <point x="416" y="653"/>
      <point x="534" y="623"/>
      <point x="534" y="430" type="curve" smooth="yes"/>
      <point x="534" y="240"/>
      <point x="457" y="29"/>
      <point x="220" y="29" type="curve" smooth="yes"/>
      <point x="119" y="29" type="line"/>
      <point x="206" y="653" type="line"/>
    </contour>
  </outline>
</glyph>
<glyph name="E" format="2">
  <advance width="493"/>
  <unicode hex="0045"/>
  <anchor x="246" y="0" name="bottom"/>
  <anchor x="401" y="0" name="ogonek"/>
  <anchor x="347" y="682" name="top"/>
  <anchor x="149" y="682" name="topleft"/>
  <outline>
    <contour>
      <point x="506" y="682" type="line"/>
      <point x="179" y="682" type="line"/>
      <point x="83" y="0" type="line"/>
      <point x="416" y="0" type="line"/>
      <point x="421" y="29" type="line"/>
      <point x="119" y="29" type="line"/>
      <point x="163" y="345" type="line"/>
      <point x="415" y="345" type="line"/>
      <point x="419" y="373" type="line"/>
      <point x="167" y="373" type="line"/>
      <point x="206" y="653" type="line"/>
      <point x="498" y="653" type="line"/>
    </contour>
  </outline>
</glyph>
<glyph name="I" format="2">
  <advance width="271"/>
  <unicode hex="0049"/>
  <anchor x="99" y="0" name="bottom"/>
  <anchor x="114" y="0" name="ogonek"/>
  <anchor x="195" y="682" name="top"/>
  <anchor x="149" y="682" name="topleft"/>
  <outline>
    <contour>
      <point x="210" y="682" type="line"/>
      <point x="179" y="682" type="line"/>
      <point x="83" y="0" type="line"/>
      <point x="114" y="0" type="line"/>
    </contour>
  </outline>
</glyph>
<glyph name="L" format="2">
  <advance width="455"/>
  <unicode hex="004C"/>
  <anchor x="240" y="0" name="bottom"/>
  <anchor x="365" y="354" name="center"/>
  <anchor x="195" y="682" name="top"/>
  <anchor x="250" y="682" name="topright"/>
  <outline>
    <contour>
      <point x="210" y="682" type="line"/>
      <point x="179" y="682" type="line"/>
      <point x="83" y="0" type="line"/>
      <point x="397" y="0" type="line"/>
      <point x="408" y="30" type="line"/>
      <point x="119" y="30" type="line"/>
    </contour>
  </outline>
</glyph>
<glyph name="O" format="2">
  <advance width="690"/>
  <unicode hex="004F"/>
  <anchor x="309" y="0" name="bottom"/>
  <anchor x="404" y="682" name="top"/>
  <anchor x="163" y="682" name="topleft"/>
  <anchor x="596" y="682" name="topright"/>
  <outline>
    <contour>
      <point x="405" y="692" type="curve" smooth="yes"/>
      <point x="163" y="692"/>
      <point x="80" y="430"/>
      <point x="80" y="259" type="curve" smooth="yes"/>
      <point x="80" y="85"/>
      <point x="169" y="-10"/>
      <point x="309" y="-10" type="curve" smooth="yes"/>
      <point x="554" y="-10"/>
      <point x="633" y="250"/>
      <point x="633" y="426" type="curve" smooth="yes"/>
      <point x="633" y="601"/>
      <point x="544" y="692"/>
    </contour>
    <contour>
      <point x="404" y="664" type="curve"/>
      <point x="526" y="664"/>
      <point x="601" y="585"/>
      <point x="601" y="426" type="curve" smooth="yes"/>
      <point x="601" y="270"/>
      <point x="538" y="19"/>
      <point x="309" y="19" type="curve" smooth="yes"/>
      <point x="189" y="19"/>
      <point x="112" y="100"/>
      <point x="112" y="258" type="curve" smooth="yes"/>
      <point x="112" y="415"/>
      <point x="182" y="664"/>
    </contour>
  </outline>
</glyph>
<glyph name="R" format="2">
  <advance width="577"/>
  <unicode hex="0052"/>
  <anchor x="268" y="0" name="bottom"/>
  <anchor x="349" y="682" name="top"/>
  <outline>
    <contour>
      <point x="340" y="682" type="curve" smooth="yes"/>
      <point x="179" y="682" type="line"/>
      <point x="83" y="0" type="line"/>
      <point x="114" y="0" type="line"/>
      <point x="206" y="653" type="line"/>
      <point x="336" y="653" type="line" smooth="yes"/>
      <point x="459" y="653"/>
      <point x="506" y="610"/>
      <point x="506" y="530" type="curve" smooth="yes"/>
      <point x="506" y="448"/>
      <point x="458" y="349"/>
      <point x="296" y="349" type="curve" smooth="yes"/>
      <point x="157" y="349" type="line"/>
      <point x="152" y="320" type="line"/>
      <point x="325" y="320" type="line"/>
      <point x="481" y="336"/>
      <point x="538" y="436"/>
      <point x="538" y="530" type="curve" smooth="yes"/>
      <point x="538" y="629"/>
      <point x="476" y="682"/>
    </contour>
    <contour>
      <point x="349" y="332" type="line"/>
      <point x="318" y="327" type="line"/>
      <point x="465" y="0" type="line"/>
      <point x="500" y="0" type="line"/>
    </contour>
  </outline>
</glyph>
<glyph name="S" format="2">
  <advance width="534"/>
  <unicode hex="0053"/>
  <anchor x="224" y="0" name="bottom"/>
  <anchor x="327" y="682" name="top"/>
  <outline>
    <contour>
      <point x="324" y="692" type="curve" smooth="yes"/>
      <point x="189" y="692"/>
      <point x="114" y="610"/>
      <point x="114" y="520" type="curve" smooth="yes"/>
      <point x="114" y="437"/>
      <point x="159" y="395"/>
      <point x="280" y="356" type="curve" smooth="yes"/>
      <point x="386" y="321"/>
      <point x="429" y="279"/>
      <point x="429" y="201" type="curve" smooth="yes"/>
      <point x="429" y="124"/>
      <point x="380" y="19"/>
      <point x="220" y="19" type="curve" smooth="yes"/>
      <point x="139" y="19"/>
      <point x="88" y="49"/>
      <point x="45" y="94" type="curve"/>
      <point x="24" y="74" type="line"/>
      <point x="73" y="24"/>
      <point x="131" y="-10"/>
      <point x="221" y="-10" type="curve" smooth="yes"/>
      <point x="392" y="-10"/>
      <point x="461" y="106"/>
      <point x="461" y="201" type="curve" smooth="yes"/>
      <point x="461" y="294"/>
      <point x="408" y="345"/>
      <point x="291" y="382" type="curve" smooth="yes"/>
      <point x="187" y="415"/>
      <point x="145" y="448"/>
      <point x="145" y="520" type="curve" smooth="yes"/>
      <point x="145" y="603"/>
      <point x="214" y="664"/>
      <point x="324" y="664" type="curve" smooth="yes"/>
      <point x="389" y="664"/>
      <point x="433" y="645"/>
      <point x="478" y="599" type="curve"/>
      <point x="498" y="619" type="line"/>
      <point x="454" y="664"/>
      <point x="402" y="692"/>
    </contour>
  </outline>
</glyph>
<glyph name="T" format="2">
  <advance width="477"/>
  <unicode hex="0054"/>
  <anchor x="202" y="0" name="bottom"/>
  <anchor x="227" y="0" name="bottomright"/>
  <anchor x="251" y="348" name="center"/>
  <anchor x="298" y="682" name="top"/>
  <outline>
    <contour>
      <point x="526" y="682" type="line"/>
      <point x="74" y="682" type="line"/>
      <point x="70" y="652" type="line"/>
      <point x="278" y="652" type="line"/>
      <point x="186" y="0" type="line"/>
      <point x="217" y="0" type="line"/>
      <point x="309" y="652" type="line"/>
      <point x="517" y="652" type="line"/>
    </contour>
  </outline>
</glyph>
<glyph name="V" format="2">
  <advance width="538.151"/>
  <unicode hex="0056"/>
  <anchor x="232.535" y="0" name="bottom"/>
  <anchor x="328.384" y="682" name="top"/>
  <outline>
    <contour>
      <point x="572" y="682" type="line"/>
      <point x="539" y="682" type="line"/>
      <point x="235" y="29" type="line"/>
      <point x="116" y="682" type="line"/>
      <point x="84" y="682" type="line"/>
      <point x="212" y="0" type="line"/>
      <point x="251" y="0" type="line"/>
    </contour>
  </outline>
</glyph>
<glyph name="X" format="2">
  <advance width="493"/>
  <unicode hex="0058"/>
  <anchor x="207.959" y="0" name="bottom"/>
  <anchor x="416" y="0" name="bottomright"/>
  <anchor x="303.808" y="682" name="top"/>
  <outline>
    <contour>
      <point x="130" y="682" type="line"/>
      <point x="96" y="682" type="line"/>
      <point x="241" y="370" type="line"/>
      <point x="255" y="345" type="line"/>
      <point x="408" y="0" type="line"/>
      <point x="441" y="0" type="line"/>
      <point x="275" y="370" type="line"/>
      <point x="260" y="393" type="line"/>
    </contour>
    <contour>
      <point x="505" y="682" type="line"/>
      <point x="470" y="682" type="line"/>
      <point x="260" y="393" type="line"/>
      <point x="239" y="370" type="line"/>
      <point x="-22" y="0" type="line"/>
      <point x="12" y="0" type="line"/>
      <point x="255" y="345" type="line"/>
      <point x="277" y="370" type="line"/>
    </contour>
  </outline>
</glyph>
<glyph name="Z" format="2">
  <advance width="511"/>
  <unicode hex="005A"/>
  <anchor x="206" y="0" name="bottom"/>
  <anchor x="315" y="682" name="top"/>
  <outline>
    <contour>
      <point x="3" y="0" type="line"/>
      <point x="408" y="0" type="line"/>
      <point x="417" y="30" type="line"/>
      <point x="46" y="30" type="line"/>
      <point x="517" y="655" type="line"/>
      <point x="520" y="682" type="line"/>
      <point x="137" y="682" type="line"/>
      <point x="133" y="653" type="line"/>
      <point x="478" y="653" type="line"/>
      <point x="7" y="28" type="line"/>
    </contour>
  </outline>
</glyph>
<glyph name="a" format="2">
  <advance width="552"/>
  <unicode hex="0061"/>
  <anchor x="267" y="0" name="bottom"/>
  <anchor x="452" y="-10" name="ogonek"/>
  <anchor x="338" y="520" name="top"/>
  <outline>
    <contour>
      <point x="324" y="530" type="curve" smooth="yes"/>
      <point x="134" y="530"/>
      <point x="65" y="332"/>
      <point x="65" y="193" type="curve" smooth="yes"/>
      <point x="65" y="65"/>
      <point x="126" y="-10"/>
      <point x="227" y="-10" type="curve" smooth="yes"/>
      <point x="297" y="-10"/>
      <point x="354" y="31"/>
      <point x="392" y="90" type="curve"/>
      <point x="385" y="21"/>
      <point x="407" y="1"/>
      <point x="443" y="-10" type="curve"/>
      <point x="452" y="13" type="line"/>
      <point x="416" y="28"/>
      <point x="415" y="57"/>
      <point x="422" y="109" type="curve" smooth="yes"/>
      <point x="477" y="488" type="line"/>
      <point x="436" y="511"/>
      <point x="393" y="530"/>
    </contour>
    <contour>
      <point x="325" y="504" type="curve" smooth="yes"/>
      <point x="375" y="504"/>
      <point x="414" y="492"/>
      <point x="445" y="474" type="curve"/>
      <point x="397" y="140" type="line"/>
      <point x="351" y="61"/>
      <point x="298" y="18"/>
      <point x="228" y="18" type="curve" smooth="yes"/>
      <point x="144" y="18"/>
      <point x="96" y="81"/>
      <point x="96" y="194" type="curve" smooth="yes"/>
      <point x="96" y="318"/>
      <point x="156" y="504"/>
    </contour>
  </outline>
</glyph>
<glyph name="b" format="2">
  <advance width="566"/>
  <unicode hex="0062"/>
  <anchor x="246" y="0" name="bottom"/>
  <anchor x="358" y="734" name="top"/>
  <outline>
    <contour>
      <point x="346" y="530" type="curve" smooth="yes"/>
      <point x="275" y="530"/>
      <point x="217" y="494"/>
      <point x="172" y="443" type="curve"/>
      <point x="213" y="738" type="line"/>
      <point x="183" y="734" type="line"/>
      <point x="82" y="23" type="line"/>
      <point x="143" y="-1"/>
      <point x="184" y="-10"/>
      <point x="242" y="-10" type="curve" smooth="yes"/>
      <point x="441" y="-10"/>
      <point x="502" y="200"/>
      <point x="502" y="339" type="curve" smooth="yes"/>
      <point x="502" y="464"/>
      <point x="446" y="530"/>
    </contour>
    <contour>
      <point x="346" y="502" type="curve" smooth="yes"/>
      <point x="428" y="502"/>
      <point x="472" y="447"/>
      <point x="472" y="339" type="curve" smooth="yes"/>
      <point x="472" y="219"/>
      <point x="422" y="18"/>
      <point x="241" y="18" type="curve" smooth="yes"/>
      <point x="185" y="18"/>
      <point x="149" y="29"/>
      <point x="116" y="43" type="curve"/>
      <point x="166" y="404" type="line"/>
      <point x="218" y="462"/>
      <point x="269" y="502"/>
    </contour>
  </outline>
</glyph>
<glyph name="d" format="2">
  <advance width="570"/>
  <unicode hex="0064"/>
  <anchor x="254" y="0" name="bottom"/>
  <anchor x="288" y="260" name="center"/>
  <anchor x="339" y="734" name="top"/>
  <anchor x="552" y="734" name="topright"/>
  <outline>
    <contour>
      <point x="492" y="739" type="line"/>
      <point x="452" y="453" type="line"/>
      <point x="430" y="490"/>
      <point x="389" y="530"/>
      <point x="310" y="530" type="curve" smooth="yes"/>
      <point x="127" y="530"/>
      <point x="65" y="329"/>
      <point x="65" y="193" type="curve" smooth="yes"/>
      <point x="65" y="65"/>
      <point x="126" y="-10"/>
      <point x="221" y="-10" type="curve" smooth="yes"/>
      <point x="312" y="-10"/>
      <point x="369" y="56"/>
      <point x="406" y="122" type="curve"/>
      <point x="393" y="0" type="line"/>
      <point x="418" y="0" type="line"/>
      <point x="522" y="734" type="line"/>
    </contour>
    <contour>
      <point x="311" y="503" type="curve" smooth="yes"/>
      <point x="384" y="503"/>
      <point x="423" y="462"/>
      <point x="447" y="415" type="curve"/>
      <point x="414" y="179" type="line"/>
      <point x="362" y="86"/>
      <point x="309" y="18"/>
      <point x="222" y="18" type="curve" smooth="yes"/>
      <point x="144" y="18"/>
      <point x="96" y="81"/>
      <point x="96" y="194" type="curve" smooth="yes"/>
      <point x="96" y="321"/>
      <point x="152" y="503"/>
    </contour>
  </outline>
</glyph>
<glyph name="e" format="2">
  <advance width="509"/>
  <unicode hex="0065"/>
  <anchor x="240" y="0" name="bottom"/>
  <anchor x="340" y="5" name="ogonek"/>
  <anchor x="310" y="520" name="top"/>
  <outline>
    <contour>
      <point x="328" y="530" type="curve" smooth="yes"/>
      <point x="146" y="530"/>
      <point x="64" y="344"/>
      <point x="64" y="197" type="curve" smooth="yes"/>
      <point x="64" y="62"/>
      <point x="132" y="-10"/>
      <point x="245" y="-10" type="curve" smooth="yes"/>
      <point x="311" y="-10"/>
      <point x="362" y="12"/>
      <point x="414" y="51" type="curve"/>
      <point x="398" y="73" type="line"/>
      <point x="348" y="38"/>
      <point x="307" y="18"/>
      <point x="245" y="18" type="curve" smooth="yes"/>
      <point x="156" y="18"/>
      <point x="95" y="73"/>
      <point x="95" y="198" type="curve" smooth="yes"/>
      <point x="95" y="330"/>
      <point x="165" y="503"/>
      <point x="328" y="503" type="curve" smooth="yes"/>
      <point x="404" y="503"/>
      <point x="442" y="464"/>
      <point x="442" y="409" type="curve" smooth="yes"/>
      <point x="442" y="308"/>
      <point x="324" y="253"/>
      <point x="91" y="239" type="curve"/>
      <point x="88" y="213" type="line"/>
      <point x="329" y="226"/>
      <point x="473" y="286"/>
      <point x="473" y="410" type="curve" smooth="yes"/>
      <point x="473" y="482"/>
      <point x="417" y="530"/>
    </contour>
  </outline>
</glyph>
<glyph name="g" format="2">
  <advance width="557"/>
  <unicode hex="0067"/>
  <anchor x="209" y="-193" name="bottom"/>
  <anchor x="316" y="520" name="top"/>
  <outline>
    <contour>
      <point x="325" y="530" type="curve" smooth="yes"/>
      <point x="135" y="530"/>
      <point x="65" y="332"/>
      <point x="66" y="202" type="curve" smooth="yes"/>
      <point x="67" y="78"/>
      <point x="128" y="0"/>
      <point x="229" y="0" type="curve" smooth="yes"/>
      <point x="299" y="0"/>
      <point x="356" y="40"/>
      <point x="394" y="99" type="curve"/>
      <point x="379" y="-6" type="line" smooth="yes"/>
      <point x="362" y="-128"/>
      <point x="291" y="-173"/>
      <point x="210" y="-173" type="curve" smooth="yes"/>
      <point x="145" y="-173"/>
      <point x="100" y="-153"/>
      <point x="56" y="-130" type="curve"/>
      <point x="43" y="-152" type="line"/>
      <point x="86" y="-176"/>
      <point x="141" y="-199"/>
      <point x="209" y="-199" type="curve" smooth="yes"/>
      <point x="305" y="-199"/>
      <point x="388" y="-150"/>
      <point x="409" y="-2" type="curve" smooth="yes"/>
      <point x="479" y="488" type="line"/>
      <point x="438" y="511"/>
      <point x="397" y="530"/>
    </contour>
    <contour>
      <point x="326" y="504" type="curve" smooth="yes"/>
      <point x="376" y="504"/>
      <point x="416" y="492"/>
      <point x="447" y="474" type="curve"/>
      <point x="401" y="147" type="line"/>
      <point x="355" y="70"/>
      <point x="300" y="28"/>
      <point x="230" y="28" type="curve" smooth="yes"/>
      <point x="146" y="28"/>
      <point x="98" y="94"/>
      <point x="97" y="203" type="curve" smooth="yes"/>
      <point x="96" y="320"/>
      <point x="157" y="504"/>
    </contour>
  </outline>
</glyph>
<glyph name="k" format="2">
  <advance width="504"/>
  <unicode hex="006B"/>
  <anchor x="241" y="0" name="bottom"/>
  <anchor x="348" y="734" name="top"/>
  <outline>
    <contour>
      <point x="212" y="738" type="line"/>
      <point x="182" y="734" type="line"/>
      <point x="78" y="0" type="line"/>
      <point x="108" y="0" type="line"/>
      <point x="149.697" y="295.887" type="line"/>
      <point x="209.495" y="421.367"/>
      <point x="279" y="504"/>
      <point x="365" y="504" type="curve" smooth="yes"/>
      <point x="427" y="504"/>
      <point x="449" y="470"/>
      <point x="449" y="424" type="curve" smooth="yes"/>
      <point x="449" y="343"/>
      <point x="382" y="284"/>
      <point x="262" y="252" type="curve"/>
      <point x="386" y="0" type="line"/>
      <point x="419" y="0" type="line"/>
      <point x="300" y="239" type="line"/>
      <point x="415" y="275"/>
      <point x="480" y="338"/>
      <point x="480" y="424" type="curve" smooth="yes"/>
      <point x="480" y="492"/>
      <point x="435" y="530"/>
      <point x="367" y="530" type="curve" smooth="yes"/>
      <point x="293" y="530"/>
      <point x="220.096" y="483"/>
      <point x="159" y="362" type="curve"/>
    </contour>
  </outline>
</glyph>
<glyph name="l" format="2">
  <advance width="277"/>
  <unicode hex="006C"/>
  <anchor x="145" y="0" name="bottom"/>
  <anchor x="278" y="375" name="center"/>
  <anchor x="192" y="734" name="top"/>
  <anchor x="237" y="734" name="topright"/>
  <outline>
    <contour>
      <point x="207" y="738" type="line"/>
      <point x="177" y="734" type="line"/>
      <point x="85" y="79" type="line" smooth="yes"/>
      <point x="76" y="17"/>
      <point x="103" y="-10"/>
      <point x="152" y="-10" type="curve" smooth="yes"/>
      <point x="169" y="-10"/>
      <point x="188" y="-5"/>
      <point x="202" y="1" type="curve"/>
      <point x="194" y="26" type="line"/>
      <point x="183" y="22"/>
      <point x="168" y="18"/>
      <point x="154" y="18" type="curve" smooth="yes"/>
      <point x="119" y="18"/>
      <point x="109" y="38"/>
      <point x="114" y="76" type="curve" smooth="yes"/>
    </contour>
  </outline>
</glyph>
<glyph name="o" format="2">
  <advance width="562"/>
  <unicode hex="006F"/>
  <anchor x="245" y="0" name="bottom"/>
  <anchor x="319" y="520" name="top"/>
  <anchor x="493" y="520" name="topright"/>
  <outline>
    <contour>
      <point x="245" y="-10" type="curve" smooth="yes"/>
      <point x="437" y="-10"/>
      <point x="497" y="196"/>
      <point x="497" y="327" type="curve" smooth="yes"/>
      <point x="497" y="459"/>
      <point x="430" y="530"/>
      <point x="318" y="530" type="curve" smooth="yes"/>
      <point x="129" y="530"/>
      <point x="66" y="331"/>
      <point x="66" y="197" type="curve" smooth="yes"/>
      <point x="66" y="66"/>
      <point x="132" y="-10"/>
    </contour>
    <contour>
      <point x="245" y="18" type="curve" smooth="yes"/>
      <point x="151" y="18"/>
      <point x="97" y="81"/>
      <point x="97" y="196" type="curve" smooth="yes"/>
      <point x="97" y="312"/>
      <point x="148" y="503"/>
      <point x="318" y="503" type="curve" smooth="yes"/>
      <point x="413" y="503"/>
      <point x="466" y="441"/>
      <point x="466" y="326" type="curve" smooth="yes"/>
      <point x="466" y="204"/>
      <point x="412" y="18"/>
    </contour>
  </outline>
</glyph>
<glyph name="q" format="2">
  <advance width="559"/>
  <unicode hex="0071"/>
  <anchor x="206" y="-193" name="bottom"/>
  <anchor x="323" y="520" name="top"/>
  <outline>
    <contour>
      <point x="324" y="530" type="curve" smooth="yes"/>
      <point x="134" y="530"/>
      <point x="65" y="332"/>
      <point x="65" y="193" type="curve" smooth="yes"/>
      <point x="65" y="65"/>
      <point x="126" y="-10"/>
      <point x="227" y="-10" type="curve" smooth="yes"/>
      <point x="297" y="-10"/>
      <point x="356" y="31"/>
      <point x="394" y="89" type="curve"/>
      <point x="353" y="-199" type="line"/>
      <point x="384" y="-195" type="line"/>
      <point x="481" y="488" type="line"/>
      <point x="440" y="511"/>
      <point x="396" y="530"/>
    </contour>
    <contour>
      <point x="325" y="504" type="curve" smooth="yes"/>
      <point x="375" y="504"/>
      <point x="418" y="492"/>
      <point x="449" y="474" type="curve"/>
      <point x="401" y="140" type="line"/>
      <point x="355" y="61"/>
      <point x="298" y="18"/>
      <point x="228" y="18" type="curve" smooth="yes"/>
      <point x="144" y="18"/>
      <point x="96" y="81"/>
      <point x="96" y="194" type="curve" smooth="yes"/>
      <point x="96" y="318"/>
      <point x="156" y="504"/>
    </contour>
  </outline>
</glyph>
<glyph name="u" format="2">
  <advance width="577"/>
  <unicode hex="0075"/>
  <anchor x="251" y="0" name="bottom"/>
  <anchor x="435" y="0" name="bottomright"/>
  <anchor x="435" y="0" name="ogonek"/>
  <anchor x="323" y="520" name="top"/>
  <anchor x="509" y="520" name="topright"/>
  <outline>
    <contour>
      <point x="213" y="-10" type="curve" smooth="yes"/>
      <point x="305.296" y="-10"/>
      <point x="379.484" y="64.24"/>
      <point x="421.782" y="162.754" type="curve"/>
      <point x="402" y="0" type="line"/>
      <point x="425" y="0" type="line"/>
      <point x="499" y="520" type="line"/>
      <point x="469" y="520" type="line"/>
      <point x="426.645" y="217.869" type="line"/>
      <point x="375.88" y="102.065"/>
      <point x="304.441" y="18"/>
      <point x="216" y="18" type="curve" smooth="yes"/>
      <point x="148" y="18"/>
      <point x="112" y="58"/>
      <point x="125" y="150" type="curve" smooth="yes"/>
      <point x="177" y="520" type="line"/>
      <point x="147" y="520" type="line"/>
      <point x="95" y="150" type="line" smooth="yes"/>
      <point x="80" y="47"/>
      <point x="126" y="-10"/>
    </contour>
  </outline>
</glyph>
<glyph name="v" format="2">
  <advance width="452"/>
  <unicode hex="0076"/>
  <anchor x="193" y="0" name="bottom"/>
  <anchor x="262" y="520" name="top"/>
  <outline>
    <contour>
      <point x="469" y="520" type="line"/>
      <point x="434" y="520" type="line"/>
      <point x="196" y="26" type="line"/>
      <point x="89" y="520" type="line"/>
      <point x="57" y="520" type="line"/>
      <point x="173" y="0" type="line"/>
      <point x="213" y="0" type="line"/>
    </contour>
  </outline>
</glyph>
<glyph name="w" format="2">
  <advance width="683"/>
  <unicode hex="0077"/>
  <anchor x="308" y="0" name="bottom"/>
  <anchor x="380" y="520" name="top"/>
  <outline>
    <contour>
      <point x="690" y="520" type="line"/>
      <point x="659" y="520" type="line"/>
      <point x="466" y="28" type="line"/>
      <point x="399" y="520" type="line"/>
      <point x="361" y="520" type="line"/>
      <point x="156" y="29" type="line"/>
      <point x="97" y="520" type="line"/>
      <point x="67" y="520" type="line"/>
      <point x="131" y="0" type="line"/>
      <point x="172" y="0" type="line"/>
      <point x="376" y="490" type="line"/>
      <point x="443" y="0" type="line"/>
      <point x="482" y="0" type="line"/>
    </contour>
  </outline>
</glyph>
<glyph name="x" format="2">
  <advance width="437"/>
  <unicode hex="0078"/>
  <anchor x="182" y="0" name="bottom"/>
  <anchor x="375" y="0" name="bottomright"/>
  <anchor x="255" y="520" name="top"/>
  <outline>
    <contour>
      <point x="110" y="520" type="line"/>
      <point x="77" y="520" type="line"/>
      <point x="202" y="280" type="line"/>
      <point x="217" y="258" type="line"/>
      <point x="351" y="0" type="line"/>
      <point x="385" y="0" type="line"/>
      <point x="239" y="277" type="line"/>
      <point x="223" y="299" type="line"/>
    </contour>
    <contour>
      <point x="434" y="520" type="line"/>
      <point x="399" y="520" type="line"/>
      <point x="223" y="299" type="line"/>
      <point x="202" y="280" type="line"/>
      <point x="-22" y="0" type="line"/>
      <point x="13" y="0" type="line"/>
      <point x="217" y="258" type="line"/>
      <point x="239" y="277" type="line"/>
    </contour>
  </outline>
</glyph>
<glyph name="y" format="2">
  <advance width="448"/>
  <unicode hex="0079"/>
  <anchor x="156" y="-193" name="bottom"/>
  <anchor x="253" y="520" name="top"/>
  <outline>
    <contour>
      <point x="465" y="520" type="line"/>
      <point x="431" y="520" type="line"/>
      <point x="192" y="22" type="line"/>
      <point x="89" y="520" type="line"/>
      <point x="57" y="520" type="line"/>
      <point x="168" y="0" type="line"/>
      <point x="182" y="1" type="line"/>
      <point x="130" y="-99"/>
      <point x="101" y="-141"/>
      <point x="-8" y="-172" type="curve"/>
      <point x="-5" y="-197" type="line"/>
      <point x="111" y="-165"/>
      <point x="155" y="-118"/>
      <point x="211" y="-3" type="curve" smooth="yes"/>
    </contour>
  </outline>
</glyph>
<glyph name="z" format="2">
  <advance width="410"/>
  <unicode hex="007A"/>
  <anchor x="161" y="0" name="bottom"/>
  <anchor x="252" y="520" name="top"/>
  <outline>
    <contour>
      <point x="412" y="520" type="line"/>
      <point x="92" y="520" type="line"/>
      <point x="88" y="492" type="line"/>
      <point x="369" y="492" type="line"/>
      <point x="-3" y="25" type="line"/>
      <point x="-7" y="0" type="line"/>
      <point x="329" y="0" type="line"/>
      <point x="336" y="28" type="line"/>
      <point x="37" y="28" type="line"/>
      <point x="408" y="495" type="line"/>
    </contour>
  </outline>
</glyph>
<glyph name="exclamdown" format="2">
  <advance width="240"/>
  <unicode hex="00A1"/>
  <outline>
    <contour>
      <point x="137" y="251" type="line"/>
      <point x="108" y="251" type="line"/>
      <point x="45" y="-193" type="line"/>
      <point x="74" y="-193" type="line"/>
    </contour>
    <component base="period" xOffset="92" yOffset="409"/>
  </outline>
</glyph>
<glyph name="section" format="2">
  <advance width="532"/>
  <unicode hex="00A7"/>
  <outline>
    <contour>
      <point x="326" y="673" type="curve" smooth="yes"/>
      <point x="216" y="673"/>
      <point x="161" y="611"/>
      <point x="161" y="543" type="curve" smooth="yes"/>
      <point x="161" y="480"/>
      <point x="190" y="448"/>
      <point x="303" y="407" type="curve" smooth="yes"/>
      <point x="391" y="375"/>
      <point x="411" y="340"/>
      <point x="411" y="298" type="curve" smooth="yes"/>
      <point x="411" y="253"/>
      <point x="396" y="212"/>
      <point x="309" y="165" type="curve"/>
      <point x="327" y="150" type="line"/>
      <point x="413" y="196"/>
      <point x="442" y="237"/>
      <point x="442" y="298" type="curve" smooth="yes"/>
      <point x="442" y="361"/>
      <point x="406" y="397"/>
      <point x="311" y="432" type="curve" smooth="yes"/>
      <point x="216" y="467"/>
      <point x="192" y="492"/>
      <point x="192" y="542" type="curve" smooth="yes"/>
      <point x="192" y="594"/>
      <point x="226" y="646"/>
      <point x="326" y="646" type="curve" smooth="yes"/>
      <point x="379" y="646"/>
      <point x="416" y="632"/>
      <point x="456" y="606" type="curve"/>
      <point x="472" y="628" type="line"/>
      <point x="432" y="654"/>
      <point x="390" y="673"/>
    </contour>
    <contour>
      <point x="218" y="459" type="line"/>
      <point x="138" y="414"/>
      <point x="102" y="372"/>
      <point x="102" y="311" type="curve" smooth="yes"/>
      <point x="102" y="245"/>
      <point x="144" y="214"/>
      <point x="243" y="176" type="curve" smooth="yes"/>
      <point x="329" y="143"/>
      <point x="356" y="115"/>
      <point x="356" y="69" type="curve" smooth="yes"/>
      <point x="356" y="17"/>
      <point x="324" y="-38"/>
      <point x="212" y="-38" type="curve" smooth="yes"/>
      <point x="159" y="-38"/>
      <point x="113" y="-25"/>
      <point x="75" y="2" type="curve"/>
      <point x="58" y="-21" type="line"/>
      <point x="101" y="-49"/>
      <point x="147" y="-66"/>
      <point x="212" y="-66" type="curve" smooth="yes"/>
      <point x="336" y="-66"/>
      <point x="387" y="2"/>
      <point x="387" y="69" type="curve" smooth="yes"/>
      <point x="387" y="132"/>
      <point x="347" y="165"/>
      <point x="254" y="200" type="curve" smooth="yes"/>
      <point x="161" y="235"/>
      <point x="133" y="263"/>
      <point x="133" y="311" type="curve" smooth="yes"/>
      <point x="133" y="366"/>
      <point x="163" y="402"/>
      <point x="236" y="444" type="curve"/>
    </contour>
  </outline>
</glyph>
<glyph name="copyright" format="2">
  <advance width="810"/>
  <unicode hex="00A9"/>
  <outline>
    <contour>
      <point x="430" y="726" type="curve"/>
      <point x="268" y="726"/>
      <point x="147" y="605"/>
      <point x="147" y="435" type="curve" smooth="yes"/>
      <point x="147" y="263"/>
      <point x="268" y="144"/>
      <point x="430" y="144" type="curve"/>
      <point x="592" y="144"/>
      <point x="713" y="265"/>
      <point x="713" y="435" type="curve" smooth="yes"/>
      <point x="713" y="607"/>
      <point x="592" y="726"/>
    </contour>
    <contour>
      <point x="431" y="608" type="curve" smooth="yes"/>
      <point x="369" y="608"/>
      <point x="295" y="557"/>
      <point x="295" y="437" type="curve" smooth="yes"/>
      <point x="295" y="331"/>
      <point x="351" y="262"/>
      <point x="431" y="262" type="curve" smooth="yes"/>
      <point x="474" y="262"/>
      <point x="506" y="278"/>
      <point x="529" y="296" type="curve"/>
      <point x="515" y="318" type="line"/>
      <point x="494" y="303"/>
      <point x="471" y="290"/>
      <point x="432" y="290" type="curve" smooth="yes"/>
      <point x="372" y="290"/>
      <point x="326" y="337"/>
      <point x="326" y="437" type="curve" smooth="yes"/>
      <point x="326" y="549"/>
      <point x="388" y="580"/>
      <point x="431" y="580" type="curve" smooth="yes"/>
      <point x="465" y="580"/>
      <point x="484" y="572"/>
      <point x="505" y="557" type="curve"/>
      <point x="520" y="578" type="line"/>
      <point x="495" y="597"/>
      <point x="469" y="608"/>
    </contour>
    <contour>
      <point x="431" y="698" type="curve"/>
      <point x="576" y="698"/>
      <point x="682" y="593"/>
      <point x="682" y="435" type="curve" smooth="yes"/>
      <point x="682" y="280"/>
      <point x="576" y="172"/>
      <point x="431" y="172" type="curve"/>
      <point x="284" y="172"/>
      <point x="178" y="277"/>
      <point x="178" y="435" type="curve" smooth="yes"/>
      <point x="178" y="590"/>
      <point x="284" y="698"/>
    </contour>
  </outline>
</glyph>
<glyph name="registered" format="2">
  <advance width="638"/>
  <unicode hex="00AE"/>
  <outline>
    <contour>
      <point x="353" y="726" type="curve"/>
      <point x="225" y="726"/>
      <point x="124" y="623"/>
      <point x="124" y="497" type="curve" smooth="yes"/>
      <point x="124" y="367"/>
      <point x="225" y="272"/>
      <point x="353" y="272" type="curve"/>
      <point x="481" y="272"/>
      <point x="582" y="375"/>
      <point x="582" y="501" type="curve" smooth="yes"/>
      <point x="582" y="631"/>
      <point x="481" y="726"/>
    </contour>
    <contour>
      <point x="379" y="494" type="line"/>
      <point x="348" y="492" type="line"/>
      <point x="420" y="368" type="line"/>
      <point x="457" y="368" type="line"/>
    </contour>
    <contour>
      <point x="353" y="700" type="curve"/>
      <point x="466" y="700"/>
      <point x="554" y="616"/>
      <point x="554" y="501" type="curve" smooth="yes"/>
      <point x="554" y="388"/>
      <point x="463" y="298"/>
      <point x="353" y="298" type="curve"/>
      <point x="243" y="298"/>
      <point x="152" y="382"/>
      <point x="152" y="497" type="curve" smooth="yes"/>
      <point x="152" y="610"/>
      <point x="243" y="700"/>
    </contour>
    <contour>
      <point x="339" y="637" type="curve" smooth="yes"/>
      <point x="277" y="637" type="line"/>
      <point x="277" y="368" type="line"/>
      <point x="307" y="368" type="line"/>
      <point x="307" y="610" type="line"/>
      <point x="344" y="610" type="line" smooth="yes"/>
      <point x="389" y="610"/>
      <point x="415" y="599"/>
      <point x="415" y="558" type="curve" smooth="yes"/>
      <point x="415" y="522"/>
      <point x="391" y="510"/>
      <point x="353" y="510" type="curve" smooth="yes"/>
      <point x="300" y="510" type="line"/>
      <point x="300" y="484" type="line"/>
      <point x="351" y="484" type="line"/>
      <point x="364" y="484" type="line"/>
      <point x="414" y="491"/>
      <point x="445" y="512"/>
      <point x="445" y="558" type="curve" smooth="yes"/>
      <point x="445" y="611"/>
      <point x="411" y="637"/>
    </contour>
  </outline>
</glyph>
<glyph name="degree" format="2">
  <advance width="519"/>
  <unicode hex="00B0"/>
  <outline>
    <contour>
      <point x="241" y="407" type="curve"/>
      <point x="317" y="407"/>
      <point x="396" y="471"/>
      <point x="396" y="571" type="curve" smooth="yes"/>
      <point x="396" y="650"/>
      <point x="343" y="692"/>
      <point x="274" y="692" type="curve"/>
      <point x="198" y="692"/>
      <point x="119" y="628"/>
      <point x="119" y="528" type="curve" smooth="yes"/>
      <point x="119" y="449"/>
      <point x="172" y="407"/>
    </contour>
    <contour>
      <point x="241" y="435" type="curve"/>
      <point x="184" y="435"/>
      <point x="150" y="470"/>
      <point x="150" y="528" type="curve" smooth="yes"/>
      <point x="150" y="612"/>
      <point x="207" y="664"/>
      <point x="274" y="664" type="curve"/>
      <point x="331" y="664"/>
      <point x="365" y="629"/>
      <point x="365" y="571" type="curve" smooth="yes"/>
      <point x="365" y="487"/>
      <point x="308" y="435"/>
    </contour>
  </outline>
</glyph>
<glyph name="paragraph" format="2">
  <advance width="687"/>
  <unicode hex="00B6"/>
  <outline>
    <contour>
      <point x="586" y="682" type="line"/>
      <point x="388" y="682" type="line"/>
      <point x="382" y="648" type="line"/>
      <point x="262" y="-199" type="line"/>
      <point x="293" y="-193" type="line"/>
      <point x="412" y="654" type="line"/>
      <point x="552" y="654" type="line"/>
      <point x="432" y="-199" type="line"/>
      <point x="463" y="-193" type="line"/>
    </contour>
    <contour>
      <point x="388" y="682" type="line"/>
      <point x="237" y="682"/>
      <point x="140" y="601"/>
      <point x="140" y="463" type="curve" smooth="yes"/>
      <point x="140" y="372"/>
      <point x="193" y="304"/>
      <point x="348" y="304" type="curve"/>
    </contour>
  </outline>
</glyph>
<glyph name="ordmasculine" format="2">
  <advance width="500"/>
  <unicode hex="00BA"/>
  <outline>
    <contour>
      <point x="307" y="682" type="curve" smooth="yes"/>
      <point x="181" y="682"/>
      <point x="107" y="569"/>
      <point x="107" y="435" type="curve" smooth="yes"/>
      <point x="107" y="335"/>
      <point x="160" y="276"/>
      <point x="253" y="276" type="curve" smooth="yes"/>
      <point x="381" y="276"/>
      <point x="455" y="390"/>
      <point x="455" y="525" type="curve" smooth="yes"/>
      <point x="455" y="628"/>
      <point x="400" y="682"/>
    </contour>
    <contour>
      <point x="308" y="654" type="curve" smooth="yes"/>
      <point x="383" y="654"/>
      <point x="424" y="611"/>
      <point x="424" y="527" type="curve" smooth="yes"/>
      <point x="424" y="411"/>
      <point x="369" y="304"/>
      <point x="254" y="304" type="curve" smooth="yes"/>
      <point x="180" y="304"/>
      <point x="138" y="350"/>
      <point x="138" y="435" type="curve" smooth="yes"/>
      <point x="138" y="550"/>
      <point x="194" y="654"/>
    </contour>
    <component base="minus" xOffset="-39" yOffset="-316"/>
  </outline>
</glyph>
<glyph name="AE" format="2">
  <advance width="757"/>
  <unicode hex="00C6"/>
  <anchor x="341.959" y="0" name="bottom"/>
  <anchor x="501" y="682" name="top"/>
  <outline>
    <contour>
      <point x="723" y="682" type="line"/>
      <point x="331" y="682" type="line"/>
      <point x="-28" y="0" type="line"/>
      <point x="5" y="0" type="line"/>
      <point x="349" y="657" type="line"/>
      <point x="428" y="0" type="line"/>
      <point x="680" y="0" type="line"/>
      <point x="685" y="29" type="line"/>
      <point x="455" y="29" type="line"/>
      <point x="378" y="653" type="line"/>
      <point x="715" y="653" type="line"/>
    </contour>
    <contour>
      <point x="408" y="221" type="line"/>
      <point x="114" y="221" type="line"/>
      <point x="97" y="193" type="line"/>
      <point x="411" y="193" type="line"/>
    </contour>
    <contour>
      <point x="673" y="373" type="line"/>
      <point x="404" y="373" type="line"/>
      <point x="408" y="345" type="line"/>
      <point x="669" y="345" type="line"/>
    </contour>
  </outline>
</glyph>
<glyph name="Eth" format="2">
  <advance width="623"/>
  <unicode hex="00D0"/>
  <anchor x="253" y="0" name="bottom"/>
  <anchor x="329" y="341" name="center"/>
  <anchor x="357" y="682" name="top"/>
  <outline>
    <contour>
      <point x="362" y="367" type="line"/>
      <point x="141" y="367" type="line"/>
      <point x="50" y="367" type="line"/>
      <point x="46" y="339" type="line"/>
      <point x="358" y="339" type="line"/>
    </contour>
    <component base="D" xOffset="1"/>
  </outline>
</glyph>
<glyph name="eth" format="2">
  <advance width="556"/>
  <unicode hex="00F0"/>
  <anchor x="234" y="0" name="bottom"/>
  <anchor x="347" y="734" name="top"/>
  <outline>
    <contour>
      <point x="215" y="739" type="curve"/>
      <point x="207" y="713" type="line"/>
      <point x="256" y="703"/>
      <point x="308" y="676"/>
      <point x="339" y="652" type="curve"/>
      <point x="430" y="574"/>
      <point x="460" y="477"/>
      <point x="451" y="351" type="curve"/>
      <point x="450" y="341" type="line"/>
      <point x="438" y="176"/>
      <point x="371" y="18"/>
      <point x="234" y="18" type="curve" smooth="yes"/>
      <point x="143" y="18"/>
      <point x="94" y="76"/>
      <point x="94" y="177" type="curve" smooth="yes"/>
      <point x="94" y="298"/>
      <point x="146" y="435"/>
      <point x="290" y="435" type="curve" smooth="yes"/>
      <point x="358" y="435"/>
      <point x="413" y="395"/>
      <point x="455" y="329" type="curve"/>
      <point x="461" y="360" type="line"/>
      <point x="421" y="423"/>
      <point x="365" y="463"/>
      <point x="288" y="463" type="curve" smooth="yes"/>
      <point x="124" y="463"/>
      <point x="63" y="308"/>
      <point x="63" y="177" type="curve" smooth="yes"/>
      <point x="63" y="63"/>
      <point x="121" y="-10"/>
      <point x="234" y="-10" type="curve" smooth="yes"/>
      <point x="409" y="-10"/>
      <point x="482" y="196"/>
      <point x="482" y="391" type="curve" smooth="yes"/>
      <point x="482" y="521"/>
      <point x="437" y="603"/>
      <point x="367" y="664" type="curve"/>
      <point x="321" y="702"/>
      <point x="268" y="728"/>
    </contour>
    <contour>
      <point x="427" y="750" type="line"/>
      <point x="339" y="670" type="line"/>
      <point x="335" y="666" type="line"/>
      <point x="230" y="571" type="line"/>
      <point x="253" y="562" type="line"/>
      <point x="353" y="649" type="line"/>
      <point x="359" y="655" type="line"/>
      <point x="445" y="733" type="line"/>
    </contour>
  </outline>
</glyph>
<glyph name="oslash" format="2">
  <advance width="562"/>
  <unicode hex="00F8"/>
  <anchor x="242" y="0" name="bottom"/>
  <anchor x="319" y="520" name="top"/>
  <outline>
    <contour>
      <point x="245" y="-10" type="curve" smooth="yes"/>
      <point x="437" y="-10"/>
      <point x="497" y="196"/>
      <point x="497" y="327" type="curve" smooth="yes"/>
      <point x="497" y="459"/>
      <point x="430" y="530"/>
      <point x="318" y="530" type="curve" smooth="yes"/>
      <point x="129" y="530"/>
      <point x="66" y="331"/>
      <point x="66" y="197" type="curve" smooth="yes"/>
      <point x="66" y="66"/>
      <point x="132" y="-10"/>
    </contour>
    <contour>
      <point x="245" y="18" type="curve" smooth="yes"/>
      <point x="151" y="18"/>
      <point x="97" y="81"/>
      <point x="97" y="196" type="curve" smooth="yes"/>
      <point x="97" y="312"/>
      <point x="148" y="503"/>
      <point x="318" y="503" type="curve" smooth="yes"/>
      <point x="413" y="503"/>
      <point x="466" y="441"/>
      <point x="466" y="326" type="curve" smooth="yes"/>
      <point x="466" y="204"/>
      <point x="412" y="18"/>
    </contour>
    <contour>
      <point x="152" y="19" type="line"/>
      <point x="89" y="-113" type="line"/>
      <point x="114" y="-121" type="line"/>
      <point x="177" y="7" type="line"/>
      <point x="183" y="21" type="line"/>
      <point x="405" y="489" type="line"/>
      <point x="413" y="501" type="line"/>
      <point x="474" y="634" type="line"/>
      <point x="448" y="642" type="line"/>
      <point x="388" y="513" type="line"/>
      <point x="383" y="500" type="line"/>
      <point x="161" y="31" type="line"/>
    </contour>
  </outline>
</glyph>
<glyph name="dcroat" format="2">
  <advance width="576"/>
  <unicode hex="0111"/>
  <anchor x="254" y="0" name="bottom"/>
  <anchor x="288" y="260" name="center"/>
  <anchor x="339" y="734" name="top"/>
  <anchor x="552" y="734" name="topright"/>
  <outline>
    <contour>
      <point x="585" y="652" type="line"/>
      <point x="309" y="652" type="line"/>
      <point x="309" y="625" type="line"/>
      <point x="506" y="625" type="line"/>
      <point x="581" y="625" type="line"/>
    </contour>
    <component base="d"/>
  </outline>
</glyph>
<glyph name="Hbar" format="2">
  <advance width="652"/>
  <unicode hex="0126"/>
  <anchor x="289" y="0" name="bottom"/>
  <anchor x="515" y="0" name="bottomright"/>
  <anchor x="340" y="341" name="center"/>
  <anchor x="388" y="682" name="top"/>
  <anchor x="149" y="682" name="topleft"/>
  <outline>
    <contour>
      <point x="640" y="542" type="line"/>
      <point x="577" y="542" type="line"/>
      <point x="98" y="542" type="line"/>
      <point x="94" y="518" type="line"/>
      <point x="157" y="518" type="line"/>
      <point x="636" y="518" type="line"/>
    </contour>
    <component base="H"/>
  </outline>
</glyph>
<glyph name="dotlessi" format="2">
  <advance width="260"/>
  <unicode hex="0131"/>
  <anchor x="93" y="0" name="bottom"/>
  <anchor x="108" y="0" name="ogonek"/>
  <anchor x="167" y="520" name="top"/>
  <outline>
    <contour>
      <point x="182" y="520" type="line"/>
      <point x="152" y="520" type="line"/>
      <point x="78" y="0" type="line"/>
      <point x="108" y="0" type="line"/>
    </contour>
  </outline>
</glyph>
<glyph name="Lslash" format="2">
  <advance width="467"/>
  <unicode hex="0141"/>
  <anchor x="252" y="0" name="bottom"/>
  <anchor x="377" y="354" name="center"/>
  <anchor x="207" y="682" name="top"/>
  <anchor x="262" y="682" name="topright"/>
  <outline>
    <contour>
      <point x="137" y="301" type="line"/>
      <point x="400" y="453" type="line"/>
      <point x="386" y="477" type="line"/>
      <point x="47" y="281" type="line"/>
      <point x="61" y="257" type="line"/>
    </contour>
    <component base="L" xOffset="12"/>
  </outline>
</glyph>
<glyph name="lslash" format="2">
  <advance width="283"/>
  <unicode hex="0142"/>
  <anchor x="145" y="0" name="bottom"/>
  <anchor x="278" y="375" name="center"/>
  <anchor x="192" y="734" name="top"/>
  <anchor x="237" y="734" name="topright"/>
  <outline>
    <contour>
      <point x="277" y="463" type="line"/>
      <point x="49" y="333" type="line"/>
      <point x="61" y="311" type="line"/>
      <point x="288" y="440" type="line"/>
    </contour>
    <component base="l"/>
  </outline>
</glyph>
<glyph name="Tbar" format="2">
  <advance width="477"/>
  <unicode hex="0166"/>
  <anchor x="202" y="0" name="bottom"/>
  <anchor x="227" y="0" name="bottomright"/>
  <anchor x="251" y="348" name="center"/>
  <anchor x="298" y="682" name="top"/>
  <outline>
    <contour>
      <point x="393" y="382" type="line"/>
      <point x="271" y="382" type="line"/>
      <point x="118" y="382" type="line"/>
      <point x="114" y="354" type="line"/>
      <point x="236" y="354" type="line"/>
      <point x="389" y="354" type="line"/>
    </contour>
    <component base="T"/>
  </outline>
</glyph>
<glyph name="tbar" format="2">
  <advance width="325"/>
  <unicode hex="0167"/>
  <anchor x="195" y="0" name="bottom"/>
  <anchor x="157" y="260" name="center"/>
  <anchor x="183" y="649" name="top"/>
  <anchor x="246" y="735" name="topright"/>
  <outline>
    <contour>
      <point x="287" y="344" type="line"/>
      <point x="124" y="344" type="line"/>
      <point x="41" y="344" type="line"/>
      <point x="37" y="317" type="line"/>
      <point x="278" y="317" type="line"/>
    </contour>
    <component base="t"/>
  </outline>
</glyph>
<glyph name="bstroke" format="2">
  <advance width="571"/>
  <unicode hex="0180"/>
  <anchor x="251" y="0" name="bottom"/>
  <anchor x="363" y="734" name="top"/>
  <outline>
    <contour>
      <point x="390" y="652" type="line"/>
      <point x="103" y="652" type="line"/>
      <point x="99" y="625" type="line"/>
      <point x="174" y="625" type="line"/>
      <point x="380" y="625" type="line"/>
    </contour>
    <component base="b" xOffset="5"/>
  </outline>
</glyph>
<glyph name="Iotaafrican" format="2">
  <advance width="316"/>
  <unicode hex="0196"/>
  <anchor x="122" y="0" name="bottom"/>
  <anchor x="186" y="682" name="top"/>
  <outline>
    <contour>
      <point x="201" y="682" type="line"/>
      <point x="170" y="682" type="line"/>
      <point x="101" y="189" type="line"/>
      <point x="132" y="189" type="line"/>
    </contour>
    <component base="hookHELPERright.case" xOffset="98" yOffset="189"/>
  </outline>
</glyph>
<glyph name="Nhookleft" format="2">
  <advance width="664"/>
  <unicode hex="019D"/>
  <anchor x="295" y="0" name="bottom"/>
  <anchor x="398" y="682" name="top"/>
  <outline>
    <contour>
      <point x="-17" y="-199" type="curve" smooth="yes"/>
      <point x="42" y="-199"/>
      <point x="89" y="-163"/>
      <point x="101" y="-83" type="curve" smooth="yes"/>
      <point x="113" y="0" type="line"/>
      <point x="83" y="0" type="line"/>
      <point x="71" y="-79" type="line" smooth="yes"/>
      <point x="60" y="-150"/>
      <point x="23" y="-171"/>
      <point x="-17" y="-171" type="curve" smooth="yes"/>
      <point x="-51" y="-171"/>
      <point x="-71" y="-161"/>
      <point x="-88" y="-148" type="curve"/>
      <point x="-105" y="-167" type="line"/>
      <point x="-86" y="-182"/>
      <point x="-59" y="-199"/>
    </contour>
    <component base="N"/>
  </outline>
</glyph>
<glyph name="Thook" format="2">
  <advance width="497"/>
  <unicode hex="01AC"/>
  <anchor x="211.959" y="0" name="bottom"/>
  <anchor x="307.808" y="682" name="top"/>
  <outline>
    <contour>
      <point x="207" y="0" type="line"/>
      <point x="238" y="0" type="line"/>
      <point x="329" y="652" type="line"/>
      <point x="537" y="652" type="line"/>
      <point x="546" y="682" type="line"/>
      <point x="220" y="682" type="line"/>
      <point x="216" y="652" type="line"/>
      <point x="298" y="652" type="line"/>
    </contour>
    <contour>
      <point x="84" y="491" type="curve"/>
      <point x="108" y="503" type="line"/>
      <point x="101" y="520"/>
      <point x="94" y="539"/>
      <point x="94" y="566" type="curve" smooth="yes"/>
      <point x="94" y="611"/>
      <point x="122" y="652"/>
      <point x="190" y="652" type="curve" smooth="yes"/>
      <point x="217" y="652" type="line"/>
      <point x="221" y="682" type="line"/>
      <point x="196" y="682" type="line" smooth="yes"/>
      <point x="109" y="682"/>
      <point x="63" y="631"/>
      <point x="63" y="566" type="curve" smooth="yes"/>
      <point x="63" y="534"/>
      <point x="73" y="511"/>
    </contour>
  </outline>
</glyph>
<glyph name="zstroke" format="2">
  <advance width="410"/>
  <unicode hex="01B6"/>
  <anchor x="168.459" y="0" name="bottom"/>
  <anchor x="241.541" y="520" name="top"/>
  <outline>
    <contour>
      <point x="412" y="520" type="line"/>
      <point x="92" y="520" type="line"/>
      <point x="88" y="492" type="line"/>
      <point x="369" y="492" type="line"/>
      <point x="-3" y="25" type="line"/>
      <point x="-7" y="0" type="line"/>
      <point x="329" y="0" type="line"/>
      <point x="336" y="28" type="line"/>
      <point x="37" y="28" type="line"/>
      <point x="408" y="495" type="line"/>
    </contour>
    <component base="hyphen" xOffset="6" yOffset="-43"/>
  </outline>
</glyph>
<glyph name="glottalinvertedstroke" format="2">
  <advance width="492"/>
  <unicode hex="01BE"/>
  <anchor x="186" y="0" name="bottom"/>
  <anchor x="248" y="734" name="top"/>
  <outline>
    <contour>
      <point x="147" y="595" type="line"/>
      <point x="143" y="568" type="line"/>
      <point x="211" y="568" type="line"/>
      <point x="361" y="568" type="line"/>
      <point x="365" y="595" type="line"/>
    </contour>
    <component base="glottalstopinverted"/>
  </outline>
</glyph>
<glyph name="clickalveolar" format="2">
  <advance width="320"/>
  <unicode hex="01C2"/>
  <outline>
    <contour>
      <point x="61" y="428" type="line"/>
      <point x="169" y="428" type="line"/>
      <point x="310" y="428" type="line"/>
      <point x="313" y="453" type="line"/>
      <point x="64" y="453" type="line"/>
    </contour>
    <contour>
      <point x="39" y="279" type="line"/>
      <point x="148" y="279" type="line"/>
      <point x="288" y="279" type="line"/>
      <point x="291" y="304" type="line"/>
      <point x="42" y="304" type="line"/>
    </contour>
    <component base="clickdental" xOffset="25"/>
  </outline>
</glyph>
<glyph name="clickretroflex" format="2">
  <advance width="300"/>
  <unicode hex="01C3"/>
  <outline>
    <contour>
      <point x="231" y="738" type="line"/>
      <point x="203" y="734" type="line"/>
      <point x="126" y="193" type="line"/>
      <point x="155" y="193" type="line"/>
    </contour>
    <component base="period" xOffset="62"/>
  </outline>
</glyph>
<glyph name="Wynn" format="2">
  <advance width="561"/>
  <unicode hex="01F7"/>
  <anchor x="243.959" y="0" name="bottom"/>
  <anchor x="339.808" y="682" name="top"/>
  <outline>
    <contour>
      <point x="189" y="613" type="curve"/>
      <point x="186" y="582" type="line"/>
      <point x="235" y="622"/>
      <point x="297" y="663"/>
      <point x="390" y="663" type="curve" smooth="yes"/>
      <point x="464" y="663"/>
      <point x="512" y="622"/>
      <point x="512" y="543" type="curve" smooth="yes"/>
      <point x="512" y="401"/>
      <point x="405" y="335"/>
      <point x="260" y="287" type="curve" smooth="yes"/>
      <point x="142" y="247" type="line"/>
      <point x="138" y="218" type="line"/>
      <point x="260" y="258" type="line" smooth="yes"/>
      <point x="415" y="310"/>
      <point x="544" y="381"/>
      <point x="544" y="543" type="curve" smooth="yes"/>
      <point x="544" y="636"/>
      <point x="484" y="692"/>
      <point x="390" y="692" type="curve" smooth="yes"/>
      <point x="299" y="692"/>
      <point x="236" y="653"/>
    </contour>
    <contour>
      <point x="210" y="682" type="line"/>
      <point x="179" y="682" type="line"/>
      <point x="83" y="0" type="line"/>
      <point x="114" y="0" type="line"/>
    </contour>
  </outline>
</glyph>
<glyph name="Cstroke" format="2">
  <advance width="541"/>
  <unicode hex="023B"/>
  <anchor x="233.959" y="0" name="bottom"/>
  <anchor x="329.808" y="682" name="top"/>
  <outline>
    <contour>
      <point x="469" y="740" type="line"/>
      <point x="145" y="-64" type="line"/>
      <point x="168" y="-70" type="line"/>
      <point x="491" y="734" type="line"/>
    </contour>
    <component base="C"/>
  </outline>
</glyph>
<glyph name="cstroke" format="2">
  <advance width="461"/>
  <unicode hex="023C"/>
  <anchor x="245" y="0" name="bottom"/>
  <anchor x="323" y="520" name="top"/>
  <outline>
    <contour>
      <point x="392" y="589" type="line"/>
      <point x="122" y="-64" type="line"/>
      <point x="143" y="-70" type="line"/>
      <point x="413" y="583" type="line"/>
    </contour>
    <component base="c"/>
  </outline>
</glyph>
<glyph name="Tdiagonalstroke" format="2">
  <advance width="477"/>
  <unicode hex="023E"/>
  <anchor x="201.959" y="0" name="bottom"/>
  <anchor x="297.808" y="682" name="top"/>
  <outline>
    <contour>
      <point x="399" y="740" type="line"/>
      <point x="75" y="-64" type="line"/>
      <point x="98" y="-70" type="line"/>
      <point x="421" y="734" type="line"/>
    </contour>
    <contour>
      <point x="526" y="682" type="line"/>
      <point x="74" y="682" type="line"/>
      <point x="70" y="652" type="line"/>
      <point x="278" y="652" type="line"/>
      <point x="186" y="0" type="line"/>
      <point x="217" y="0" type="line"/>
      <point x="309" y="652" type="line"/>
      <point x="517" y="652" type="line"/>
    </contour>
  </outline>
</glyph>
<glyph name="Ubar" format="2">
  <advance width="658"/>
  <unicode hex="0244"/>
  <anchor x="297" y="0" name="bottom"/>
  <anchor x="381" y="0" name="ogonek"/>
  <anchor x="392" y="682" name="top"/>
  <anchor x="613" y="682" name="topright"/>
  <outline>
    <contour>
      <point x="646" y="542" type="line"/>
      <point x="583" y="542" type="line"/>
      <point x="98" y="542" type="line"/>
      <point x="94" y="518" type="line"/>
      <point x="157" y="518" type="line"/>
      <point x="642" y="518" type="line"/>
    </contour>
    <component base="U" xOffset="11"/>
  </outline>
</glyph>
<glyph name="Estroke" format="2">
  <advance width="493"/>
  <unicode hex="0246"/>
  <anchor x="209.959" y="0" name="bottom"/>
  <anchor x="401" y="0" name="ogonek"/>
  <anchor x="305.808" y="682" name="top"/>
  <anchor x="149" y="682" name="topleft"/>
  <outline>
    <contour>
      <point x="449" y="740" type="line"/>
      <point x="125" y="-64" type="line"/>
      <point x="148" y="-70" type="line"/>
      <point x="471" y="734" type="line"/>
    </contour>
    <component base="E"/>
  </outline>
</glyph>
<glyph name="Rstroke" format="2">
  <advance width="573"/>
  <unicode hex="024C"/>
  <anchor x="264" y="0" name="bottom"/>
  <anchor x="345" y="682" name="top"/>
  <outline>
    <contour>
      <point x="321" y="320" type="line"/>
      <point x="289" y="349" type="line"/>
      <point x="129" y="349" type="line"/>
      <point x="38" y="349" type="line"/>
      <point x="34" y="320" type="line"/>
    </contour>
    <component base="R" xOffset="-4"/>
  </outline>
</glyph>
<glyph name="ystroke" format="2">
  <advance width="453"/>
  <unicode hex="024F"/>
  <anchor x="158" y="-193" name="bottom"/>
  <anchor x="255" y="520" name="top"/>
  <outline>
    <contour>
      <point x="34" y="357" type="line"/>
      <point x="446" y="357" type="line"/>
      <point x="450" y="382" type="line"/>
      <point x="400" y="382" type="line"/>
      <point x="88" y="382" type="line"/>
      <point x="38" y="382" type="line"/>
    </contour>
    <component base="y" xOffset="2"/>
  </outline>
</glyph>
<glyph name="jdotlessstroke" format="2">
  <advance width="289"/>
  <unicode hex="025F"/>
  <anchor x="76" y="-193" name="bottom"/>
  <anchor x="180" y="520" name="top"/>
  <outline>
    <contour>
      <point x="16" y="229" type="line"/>
      <point x="125" y="229" type="line"/>
      <point x="265" y="229" type="line"/>
      <point x="269" y="257" type="line"/>
      <point x="20" y="257" type="line"/>
    </contour>
    <component base="dotlessj" xOffset="13"/>
  </outline>
</glyph>
<glyph name="Ismall" format="2">
  <advance width="300"/>
  <unicode hex="026A"/>
  <anchor x="113" y="0" name="bottom"/>
  <anchor x="187" y="520" name="top"/>
  <outline>
    <contour>
      <point x="98" y="0" type="line"/>
      <point x="128" y="0" type="line"/>
      <point x="201" y="520" type="line"/>
      <point x="171" y="520" type="line"/>
    </contour>
    <contour>
      <point x="-11" y="0" type="line"/>
      <point x="238" y="0" type="line"/>
      <point x="241" y="25" type="line"/>
      <point x="-8" y="25" type="line"/>
    </contour>
    <contour>
      <point x="58" y="495" type="line"/>
      <point x="307" y="495" type="line"/>
      <point x="311" y="520" type="line"/>
      <point x="62" y="520" type="line"/>
    </contour>
  </outline>
</glyph>
<glyph name="lbelt" format="2">
  <advance width="299"/>
  <unicode hex="026C"/>
  <anchor x="177" y="0" name="bottom"/>
  <anchor x="310" y="375" name="center"/>
  <anchor x="224" y="734" name="top"/>
  <anchor x="269" y="734" name="topright"/>
  <outline>
    <contour>
      <point x="145" y="276" type="curve"/>
      <point x="174" y="277" type="line"/>
      <point x="206" y="278"/>
      <point x="235" y="281"/>
      <point x="266" y="287" type="curve"/>
      <point x="267" y="312" type="line"/>
      <point x="237" y="307"/>
      <point x="211" y="304"/>
      <point x="178" y="303" type="curve"/>
      <point x="149" y="303" type="line"/>
      <point x="90" y="303"/>
      <point x="64" y="320"/>
      <point x="64" y="359" type="curve" smooth="yes"/>
      <point x="64" y="397"/>
      <point x="92" y="421"/>
      <point x="139" y="421" type="curve" smooth="yes"/>
      <point x="151" y="421"/>
      <point x="158" y="420"/>
      <point x="166" y="419" type="curve"/>
      <point x="170" y="446" type="line"/>
      <point x="162" y="447"/>
      <point x="154" y="448"/>
      <point x="141" y="448" type="curve" smooth="yes"/>
      <point x="80" y="448"/>
      <point x="34" y="415"/>
      <point x="34" y="359" type="curve" smooth="yes"/>
      <point x="34" y="303"/>
      <point x="78" y="276"/>
    </contour>
    <component base="l" xOffset="32"/>
  </outline>
</glyph>
<glyph name="lhookretroflex" format="2">
  <advance width="262"/>
  <unicode hex="026D"/>
  <anchor x="156" y="-193" name="bottom"/>
  <anchor x="197" y="734" name="top"/>
  <outline>
    <contour>
      <point x="212" y="738" type="line"/>
      <point x="182" y="734" type="line"/>
      <point x="79" y="0" type="line"/>
      <point x="109" y="0" type="line"/>
    </contour>
    <component base="hookHELPERright" xOffset="76"/>
  </outline>
</glyph>
<glyph name="lezh" format="2">
  <advance width="601"/>
  <unicode hex="026E"/>
  <anchor x="297" y="-193" name="bottom"/>
  <anchor x="278" y="375" name="center"/>
  <anchor x="391" y="734" name="top"/>
  <anchor x="237" y="734" name="topright"/>
  <outline>
    <contour>
      <point x="299" y="-199" type="curve" smooth="yes"/>
      <point x="438" y="-199"/>
      <point x="532" y="-101"/>
      <point x="532" y="39" type="curve" smooth="yes"/>
      <point x="532" y="138"/>
      <point x="471" y="195"/>
      <point x="322" y="195" type="curve" smooth="yes"/>
      <point x="305" y="195" type="line"/>
      <point x="271" y="167" type="line"/>
      <point x="325" y="167" type="line" smooth="yes"/>
      <point x="443" y="167"/>
      <point x="501" y="130"/>
      <point x="501" y="38" type="curve" smooth="yes"/>
      <point x="501" y="-83"/>
      <point x="426" y="-171"/>
      <point x="298" y="-171" type="curve" smooth="yes"/>
      <point x="235" y="-171"/>
      <point x="188" y="-150"/>
      <point x="144" y="-99" type="curve"/>
      <point x="123" y="-115" type="line"/>
      <point x="166" y="-167"/>
      <point x="219" y="-199"/>
    </contour>
    <contour>
      <point x="271" y="167" type="line"/>
      <point x="312" y="195" type="line"/>
      <point x="574" y="495" type="line"/>
      <point x="578" y="520" type="line"/>
      <point x="175" y="520" type="line"/>
      <point x="171" y="492" type="line"/>
      <point x="534" y="492" type="line"/>
      <point x="275" y="195" type="line"/>
    </contour>
    <component base="l"/>
  </outline>
</glyph>
<glyph name="Nsmall" format="2">
  <advance width="585"/>
  <unicode hex="0274"/>
  <anchor x="256" y="0" name="bottom"/>
  <anchor x="330" y="520" name="top"/>
  <outline>
    <contour>
      <point x="507" y="520" type="line"/>
      <point x="478" y="520" type="line"/>
      <point x="433" y="206" type="line" smooth="yes"/>
      <point x="422" y="123"/>
      <point x="416" y="65"/>
      <point x="412" y="30" type="curve"/>
      <point x="190" y="520" type="line"/>
      <point x="152" y="520" type="line"/>
      <point x="78" y="0" type="line"/>
      <point x="107" y="0" type="line"/>
      <point x="149" y="297" type="line" smooth="yes"/>
      <point x="165" y="406"/>
      <point x="170" y="450"/>
      <point x="173" y="490" type="curve"/>
      <point x="395" y="0" type="line"/>
      <point x="433" y="0" type="line"/>
    </contour>
  </outline>
</glyph>
<glyph name="phi-latin" format="2">
  <advance width="620"/>
  <unicode hex="0278"/>
  <anchor x="247" y="-193" name="bottom"/>
  <anchor x="378" y="734" name="top"/>
  <outline>
    <contour>
      <point x="351" y="513" type="curve"/>
      <point x="347" y="486" type="line"/>
      <point x="472" y="484"/>
      <point x="536" y="424"/>
      <point x="537" y="311" type="curve" smooth="yes"/>
      <point x="537" y="151"/>
      <point x="446" y="35"/>
      <point x="282" y="34" type="curve"/>
      <point x="282" y="7" type="line"/>
      <point x="464" y="9"/>
      <point x="568" y="132"/>
      <point x="567" y="311" type="curve" smooth="yes"/>
      <point x="567" y="436"/>
      <point x="492" y="511"/>
    </contour>
    <contour>
      <point x="337" y="513" type="line"/>
      <point x="159" y="511"/>
      <point x="52" y="387"/>
      <point x="52" y="211" type="curve" smooth="yes"/>
      <point x="52" y="84"/>
      <point x="127" y="9"/>
      <point x="268" y="7" type="curve"/>
      <point x="272" y="34" type="line"/>
      <point x="148" y="35"/>
      <point x="83" y="95"/>
      <point x="83" y="211" type="curve" smooth="yes"/>
      <point x="83" y="369"/>
      <point x="174" y="484"/>
      <point x="337" y="486" type="curve"/>
    </contour>
    <contour>
      <point x="393" y="739" type="line"/>
      <point x="363" y="734" type="line"/>
      <point x="330" y="506" type="line"/>
      <point x="328" y="493" type="line"/>
      <point x="263" y="27" type="line"/>
      <point x="260" y="13" type="line"/>
      <point x="230" y="-199" type="line"/>
      <point x="260" y="-193" type="line"/>
      <point x="289" y="13" type="line"/>
      <point x="291" y="27" type="line"/>
      <point x="356" y="493" type="line"/>
      <point x="360" y="506" type="line"/>
    </contour>
  </outline>
</glyph>
<glyph name="rlonglegturned" format="2">
  <advance width="363"/>
  <unicode hex="027A"/>
  <anchor x="300" y="734" name="top"/>
  <anchor x="111" y="0" name="bottom"/>
  <outline>
    <contour>
      <point x="255" y="520" type="line"/>
      <point x="285" y="520" type="line"/>
      <point x="315" y="734" type="line"/>
      <point x="285" y="739" type="line"/>
    </contour>
    <component base="rturned"/>
  </outline>
</glyph>
<glyph name="rhookturned" format="2">
  <advance width="363"/>
  <unicode hex="027B"/>
  <anchor x="121" y="-193" name="bottom"/>
  <anchor x="270" y="520" name="top"/>
  <outline>
    <contour>
      <point x="27" y="-10" type="curve" smooth="yes"/>
      <point x="110" y="-10"/>
      <point x="167" y="50"/>
      <point x="201" y="137" type="curve"/>
      <point x="181" y="0" type="line"/>
      <point x="211" y="0" type="line"/>
      <point x="285" y="520" type="line"/>
      <point x="255" y="520" type="line"/>
      <point x="210" y="206" type="line"/>
      <point x="161" y="90"/>
      <point x="111" y="17"/>
      <point x="27" y="17" type="curve" smooth="yes"/>
      <point x="17" y="17"/>
      <point x="0" y="19"/>
      <point x="-13" y="23" type="curve"/>
      <point x="-21" y="-3" type="line"/>
      <point x="-11" y="-6"/>
      <point x="7" y="-10"/>
    </contour>
    <component base="hookHELPERright" xOffset="178"/>
  </outline>
</glyph>
<glyph name="rfishhook" format="2">
  <advance width="327"/>
  <unicode hex="027E"/>
  <anchor x="89" y="0" name="bottom"/>
  <anchor x="253" y="520" name="top"/>
  <outline>
    <contour>
      <point x="150" y="328" type="line"/>
      <point x="120" y="328" type="line"/>
      <point x="74" y="0" type="line"/>
      <point x="104" y="0" type="line"/>
    </contour>
    <component base="hookHELPER" xScale="-1" yScale="-1" xOffset="318" yOffset="328"/>
  </outline>
</glyph>
<glyph name="rfishhookreversed" format="2">
  <advance width="328"/>
  <unicode hex="027F"/>
  <anchor x="164" y="0" name="bottom"/>
  <anchor x="160" y="520" name="top"/>
  <outline>
    <contour>
      <point x="227" y="331" type="line"/>
      <point x="197" y="331" type="line"/>
      <point x="149" y="0" type="line"/>
      <point x="179" y="0" type="line"/>
    </contour>
    <component base="hookHELPERright" xScale="-1" yScale="-1" xOffset="230" yOffset="331"/>
  </outline>
</glyph>
<glyph name="Rsmall" format="2">
  <advance width="507"/>
  <unicode hex="0280"/>
  <anchor x="237" y="0" name="bottom"/>
  <anchor x="291" y="520" name="top"/>
  <outline>
    <contour>
      <point x="273" y="520" type="curve" smooth="yes"/>
      <point x="152" y="520" type="line"/>
      <point x="78" y="0" type="line"/>
      <point x="108" y="0" type="line"/>
      <point x="178" y="492" type="line"/>
      <point x="268" y="492" type="line" smooth="yes"/>
      <point x="380" y="492"/>
      <point x="423" y="459"/>
      <point x="423" y="392" type="curve" smooth="yes"/>
      <point x="423" y="305"/>
      <point x="355" y="255"/>
      <point x="240" y="255" type="curve" smooth="yes"/>
      <point x="137" y="255" type="line"/>
      <point x="134" y="228" type="line"/>
      <point x="277" y="228" type="line"/>
      <point x="378" y="242"/>
      <point x="454" y="291"/>
      <point x="454" y="392" type="curve" smooth="yes"/>
      <point x="454" y="476"/>
      <point x="396" y="520"/>
    </contour>
    <contour>
      <point x="286" y="252" type="line"/>
      <point x="257" y="247" type="line"/>
      <point x="387" y="0" type="line"/>
      <point x="420" y="0" type="line"/>
    </contour>
  </outline>
</glyph>
<glyph name="esh" format="2">
  <advance width="266"/>
  <unicode hex="0283"/>
  <anchor x="-20" y="-193" name="bottom"/>
  <anchor x="290" y="734" name="top"/>
  <outline>
    <contour>
      <point x="185" y="520" type="line"/>
      <point x="155" y="520" type="line"/>
      <point x="81" y="0" type="line"/>
      <point x="111" y="0" type="line"/>
    </contour>
    <component base="hookHELPER" xOffset="-87"/>
    <component base="hookaboveHELPER2" xOffset="80"/>
  </outline>
</glyph>
<glyph name="jdotlessstrokehook" format="2">
  <advance width="289"/>
  <unicode hex="0284"/>
  <anchor x="77" y="-193" name="bottom"/>
  <anchor x="310" y="734" name="top"/>
  <outline>
    <contour>
      <point x="-22" y="-196" type="line"/>
      <point x="64" y="-156"/>
      <point x="105" y="-125"/>
      <point x="123" y="7" type="curve" smooth="yes"/>
      <point x="196" y="520" type="line"/>
      <point x="166" y="520" type="line"/>
      <point x="94" y="10" type="line" smooth="yes"/>
      <point x="77" y="-107"/>
      <point x="43" y="-137"/>
      <point x="-31" y="-173" type="curve"/>
    </contour>
    <contour>
      <point x="-17" y="0" type="line"/>
      <point x="232" y="0" type="line"/>
      <point x="236" y="28" type="line"/>
      <point x="-13" y="28" type="line"/>
    </contour>
    <component base="hookaboveHELPER2" xOffset="91"/>
  </outline>
</glyph>
<glyph name="eshsquatreversed" format="2">
  <advance width="372"/>
  <unicode hex="0285"/>
  <anchor x="148" y="3" name="bottom"/>
  <anchor x="222" y="520" name="top"/>
  <outline>
    <contour>
      <point x="211" y="331" type="line"/>
      <point x="181" y="331" type="line"/>
      <point x="161" y="189" type="line"/>
      <point x="191" y="189" type="line"/>
    </contour>
    <component base="hookHELPERright" xScale="-1" yScale="-1" xOffset="214" yOffset="331"/>
    <component base="hookHELPERright" xOffset="158" yOffset="189"/>
  </outline>
</glyph>
<glyph name="tretroflexhook" format="2">
  <advance width="325"/>
  <unicode hex="0288"/>
  <anchor x="141" y="-193" name="bottom"/>
  <anchor x="183" y="650" name="top"/>
  <outline>
    <contour>
      <point x="195" y="653" type="line"/>
      <point x="172" y="650" type="line"/>
      <point x="145" y="510" type="line"/>
      <point x="73" y="0" type="line"/>
      <point x="103" y="0" type="line"/>
    </contour>
    <contour>
      <point x="319" y="520" type="line"/>
      <point x="61" y="520" type="line"/>
      <point x="57" y="493" type="line"/>
      <point x="311" y="493" type="line"/>
    </contour>
    <component base="hookHELPERright" xOffset="70"/>
  </outline>
</glyph>
<glyph name="ubar" format="2">
  <advance width="599"/>
  <unicode hex="0289"/>
  <anchor x="263" y="0" name="bottom"/>
  <anchor x="443" y="0" name="bottomright"/>
  <anchor x="443" y="0" name="ogonek"/>
  <anchor x="337" y="520" name="top"/>
  <anchor x="517" y="520" name="topright"/>
  <outline>
    <contour>
      <point x="44" y="357" type="line"/>
      <point x="132" y="357" type="line"/>
      <point x="571" y="357" type="line"/>
      <point x="575" y="382" type="line"/>
      <point x="487" y="382" type="line"/>
      <point x="48" y="382" type="line"/>
    </contour>
    <component base="u" xOffset="8"/>
  </outline>
</glyph>
<glyph name="Ysmall" format="2">
  <advance width="401"/>
  <unicode hex="028F"/>
  <anchor x="164" y="0" name="bottom"/>
  <anchor x="238" y="520" name="top"/>
  <outline>
    <contour>
      <point x="428" y="520" type="line"/>
      <point x="392" y="520" type="line"/>
      <point x="197" y="238" type="line"/>
      <point x="78" y="520" type="line"/>
      <point x="47" y="520" type="line"/>
      <point x="180" y="211" type="line"/>
      <point x="150" y="0" type="line"/>
      <point x="180" y="0" type="line"/>
      <point x="210" y="212" type="line"/>
    </contour>
  </outline>
</glyph>
<glyph name="zretroflexhook" format="2">
  <advance width="410"/>
  <unicode hex="0290"/>
  <anchor x="136" y="-193" name="bottom"/>
  <anchor x="252" y="520" name="top"/>
  <outline>
    <contour>
      <point x="412" y="520" type="line"/>
      <point x="92" y="520" type="line"/>
      <point x="88" y="492" type="line"/>
      <point x="369" y="492" type="line"/>
      <point x="-3" y="25" type="line"/>
      <point x="-7" y="0" type="line"/>
      <point x="334" y="0" type="line"/>
      <point x="338" y="28" type="line"/>
      <point x="37" y="28" type="line"/>
      <point x="408" y="495" type="line"/>
    </contour>
    <component base="hookHELPERright" xOffset="301"/>
  </outline>
</glyph>
<glyph name="glottalstop" format="2">
  <advance width="427"/>
  <unicode hex="0294"/>
  <anchor x="112" y="0" name="bottom"/>
  <anchor x="252" y="734" name="top"/>
  <outline>
    <contour>
      <point x="96" y="0" type="line"/>
      <point x="127" y="0" type="line"/>
      <point x="171" y="312" type="line"/>
      <point x="214" y="323" type="line" smooth="yes"/>
      <point x="342" y="354"/>
      <point x="427" y="422"/>
      <point x="427" y="566" type="curve" smooth="yes"/>
      <point x="427" y="667"/>
      <point x="361" y="738"/>
      <point x="251" y="738" type="curve" smooth="yes"/>
      <point x="171" y="738"/>
      <point x="114" y="710"/>
      <point x="55" y="661" type="curve"/>
      <point x="73" y="641" type="line"/>
      <point x="124" y="681"/>
      <point x="175" y="709"/>
      <point x="249" y="709" type="curve" smooth="yes"/>
      <point x="343" y="709"/>
      <point x="396" y="653"/>
      <point x="396" y="566" type="curve" smooth="yes"/>
      <point x="396" y="441"/>
      <point x="326" y="379"/>
      <point x="210" y="350" type="curve" smooth="yes"/>
      <point x="143" y="333" type="line"/>
    </contour>
  </outline>
</glyph>
<glyph name="bilabialclick" format="2">
  <advance width="790"/>
  <unicode hex="0298"/>
  <anchor x="406" y="340" name="_center"/>
  <anchor x="454.308" y="682" name="top"/>
  <anchor x="358.459" y="0" name="bottom"/>
  <outline>
    <contour>
      <point x="454" y="692" type="curve" smooth="yes"/>
      <point x="226" y="692"/>
      <point x="81" y="503"/>
      <point x="81" y="271" type="curve" smooth="yes"/>
      <point x="81" y="92"/>
      <point x="189" y="-10"/>
      <point x="359" y="-10" type="curve" smooth="yes"/>
      <point x="590" y="-10"/>
      <point x="731" y="174"/>
      <point x="732" y="412" type="curve" smooth="yes"/>
      <point x="732" y="593"/>
      <point x="624" y="692"/>
    </contour>
    <contour>
      <point x="454" y="664" type="curve"/>
      <point x="607" y="664"/>
      <point x="701" y="578"/>
      <point x="701" y="412" type="curve" smooth="yes"/>
      <point x="701" y="193"/>
      <point x="578" y="18"/>
      <point x="359" y="18" type="curve" smooth="yes"/>
      <point x="209" y="18"/>
      <point x="112" y="107"/>
      <point x="112" y="271" type="curve" smooth="yes"/>
      <point x="112" y="485"/>
      <point x="238" y="664"/>
    </contour>
    <component base="dotaccentcomb" xOffset="287" yOffset="-366"/>
  </outline>
</glyph>
<glyph name="kturned" format="2">
  <advance width="464"/>
  <unicode hex="029E"/>
  <anchor x="140" y="-193" name="bottom"/>
  <anchor x="224" y="520" name="top"/>
  <outline>
    <contour>
      <point x="3" y="0" type="line"/>
      <point x="41" y="0" type="line"/>
      <point x="315" y="236" type="line"/>
      <point x="86" y="520" type="line"/>
      <point x="52" y="520" type="line"/>
      <point x="278" y="240" type="line"/>
    </contour>
    <contour>
      <point x="259" y="-199" type="line"/>
      <point x="289" y="-195" type="line"/>
      <point x="391" y="520" type="line"/>
      <point x="361" y="520" type="line"/>
    </contour>
  </outline>
</glyph>
<glyph name="Lsmall" format="2">
  <advance width="400"/>
  <unicode hex="029F"/>
  <anchor x="213" y="0" name="bottom"/>
  <anchor x="167" y="520" name="top"/>
  <outline>
    <contour>
      <point x="182" y="520" type="line"/>
      <point x="152" y="520" type="line"/>
      <point x="78" y="0" type="line"/>
      <point x="347" y="0" type="line"/>
      <point x="357" y="28" type="line"/>
      <point x="112" y="28" type="line"/>
    </contour>
  </outline>
</glyph>
<glyph name="glottalstopstroke" format="2">
  <advance width="427"/>
  <unicode hex="02A1"/>
  <anchor x="112" y="0" name="bottom"/>
  <anchor x="252" y="734" name="top"/>
  <outline>
    <contour>
      <point x="58" y="205" type="line"/>
      <point x="54" y="178" type="line"/>
      <point x="122" y="178" type="line"/>
      <point x="272" y="178" type="line"/>
      <point x="276" y="205" type="line"/>
    </contour>
    <component base="glottalstop"/>
  </outline>
</glyph>
<glyph name="glottalstopstrokereversed" format="2">
  <advance width="427"/>
  <unicode hex="02A2"/>
  <anchor x="244" y="0" name="bottom"/>
  <anchor x="311" y="734" name="top"/>
  <outline>
    <contour>
      <point x="355" y="205" type="line"/>
      <point x="137" y="205" type="line"/>
      <point x="133" y="178" type="line"/>
      <point x="283" y="178" type="line"/>
      <point x="351" y="178" type="line"/>
    </contour>
    <component base="glottalstopreversed"/>
  </outline>
</glyph>
<glyph name="dzaltone" format="2">
  <advance width="837"/>
  <unicode hex="02A3"/>
  <anchor x="381.959" y="0" name="bottom"/>
  <anchor x="288" y="260" name="center"/>
  <anchor x="485.116" y="734" name="top"/>
  <anchor x="552" y="734" name="topright"/>
  <outline>
    <contour>
      <point x="839" y="520" type="line"/>
      <point x="489" y="520" type="line"/>
      <point x="485" y="492" type="line"/>
      <point x="796" y="492" type="line"/>
      <point x="424" y="25" type="line"/>
      <point x="420" y="0" type="line"/>
      <point x="756" y="0" type="line"/>
      <point x="763" y="28" type="line"/>
      <point x="462" y="28" type="line"/>
      <point x="835" y="495" type="line"/>
    </contour>
    <component base="d"/>
  </outline>
</glyph>
<glyph name="tesh" format="2">
  <advance width="548"/>
  <unicode hex="02A7"/>
  <anchor x="220" y="-193" name="bottom"/>
  <anchor x="343" y="734" name="top"/>
  <outline>
    <contour>
      <point x="195" y="653" type="line"/>
      <point x="172" y="650" type="line"/>
      <point x="145" y="510" type="line"/>
      <point x="93" y="139" type="line" smooth="yes"/>
      <point x="79" y="38"/>
      <point x="127" y="-10"/>
      <point x="220" y="-10" type="curve" smooth="yes"/>
      <point x="282" y="-10"/>
      <point x="329" y="5"/>
      <point x="389" y="30" type="curve"/>
      <point x="377" y="52" type="line"/>
      <point x="320" y="30"/>
      <point x="280" y="18"/>
      <point x="220" y="18" type="curve" smooth="yes"/>
      <point x="143" y="18"/>
      <point x="111" y="57"/>
      <point x="123" y="139" type="curve" smooth="yes"/>
    </contour>
    <contour>
      <point x="449" y="520" type="line"/>
      <point x="61" y="520" type="line"/>
      <point x="57" y="493" type="line"/>
      <point x="440" y="493" type="line"/>
    </contour>
    <component base="esh" xOffset="282"/>
  </outline>
</glyph>
<glyph name="fengdigraph" format="2">
  <advance width="865"/>
  <unicode hex="02A9"/>
  <anchor x="349" y="-193" name="bottom"/>
  <anchor x="493" y="734" name="top"/>
  <anchor x="425" y="520" name="topleft"/>
  <outline>
    <contour>
      <point x="315" y="738" type="curve" smooth="yes"/>
      <point x="236" y="738"/>
      <point x="179" y="695"/>
      <point x="168" y="617" type="curve" smooth="yes"/>
      <point x="82" y="0" type="line"/>
      <point x="112" y="0" type="line"/>
      <point x="197" y="613" type="line" smooth="yes"/>
      <point x="207" y="683"/>
      <point x="252" y="711"/>
      <point x="313" y="711" type="curve" smooth="yes"/>
      <point x="351" y="711"/>
      <point x="377" y="702"/>
      <point x="414" y="682" type="curve"/>
      <point x="428" y="704" type="line"/>
      <point x="391" y="726"/>
      <point x="355" y="738"/>
    </contour>
    <contour>
      <point x="442" y="520" type="line"/>
      <point x="66" y="520" type="line"/>
      <point x="62" y="493" type="line"/>
      <point x="434" y="493" type="line"/>
    </contour>
    <component base="eng" xOffset="283"/>
  </outline>
</glyph>
<glyph name="turnedhfishhookandtail" format="2">
  <advance width="654"/>
  <unicode hex="02AF"/>
  <anchor x="260" y="-193" name="bottom"/>
  <anchor x="378" y="520" name="top"/>
  <outline>
    <contour>
      <point x="450" y="-199" type="line"/>
      <point x="480" y="-195" type="line"/>
      <point x="581" y="520" type="line"/>
      <point x="551" y="520" type="line"/>
      <point x="507" y="210" type="line"/>
      <point x="447" y="96"/>
      <point x="378" y="16"/>
      <point x="292" y="16" type="curve" smooth="yes"/>
      <point x="219" y="16"/>
      <point x="189" y="60"/>
      <point x="202" y="153" type="curve" smooth="yes"/>
      <point x="227" y="331" type="line"/>
      <point x="197" y="331" type="line"/>
      <point x="172" y="151" type="line" smooth="yes"/>
      <point x="158" y="49"/>
      <point x="197" y="-10"/>
      <point x="289" y="-10" type="curve" smooth="yes"/>
      <point x="369" y="-10"/>
      <point x="446" y="49"/>
      <point x="499" y="152" type="curve"/>
    </contour>
    <component base="hookHELPERright" xScale="-1" yScale="-1" xOffset="230" yOffset="331"/>
  </outline>
</glyph>
<glyph name="colontriangularhalfmod" format="2">
  <advance width="196"/>
  <unicode hex="02D1"/>
  <outline>
    <contour>
      <point x="104" y="373" type="line"/>
      <point x="119" y="373" type="line"/>
      <point x="162" y="457" type="line"/>
      <point x="86" y="457" type="line"/>
    </contour>
  </outline>
</glyph>
<glyph name="gammasuperior" format="2">
  <advance width="340"/>
  <unicode hex="02E0"/>
  <outline>
    <contour>
      <point x="177" y="298" type="curve" smooth="yes"/>
      <point x="211" y="298"/>
      <point x="232" y="319"/>
      <point x="232" y="353" type="curve" smooth="yes"/>
      <point x="232" y="376"/>
      <point x="222" y="399"/>
      <point x="209" y="426" type="curve"/>
      <point x="196" y="449" type="line"/>
      <point x="136" y="661" type="line"/>
      <point x="106" y="661" type="line"/>
      <point x="179" y="426" type="line"/>
      <point x="192" y="408" type="line"/>
      <point x="200" y="388"/>
      <point x="204" y="369"/>
      <point x="204" y="354" type="curve" smooth="yes"/>
      <point x="204" y="335"/>
      <point x="197" y="321"/>
      <point x="179" y="321" type="curve" smooth="yes"/>
      <point x="167" y="321"/>
      <point x="160" y="327"/>
      <point x="160" y="341" type="curve" smooth="yes"/>
      <point x="160" y="359"/>
      <point x="176" y="387"/>
      <point x="192" y="408" type="curve"/>
      <point x="209" y="426" type="line"/>
      <point x="346" y="661" type="line"/>
      <point x="316" y="661" type="line"/>
      <point x="196" y="449" type="line"/>
      <point x="179" y="426" type="line"/>
      <point x="151" y="389"/>
      <point x="132" y="362"/>
      <point x="132" y="338" type="curve" smooth="yes"/>
      <point x="132" y="316"/>
      <point x="148" y="298"/>
    </contour>
  </outline>
</glyph>
<glyph name="glottalstopreversedsuperior" format="2">
  <advance width="323"/>
  <unicode hex="02E4"/>
  <outline>
    <contour>
      <point x="217" y="400" type="line"/>
      <point x="241" y="571" type="line"/>
      <point x="206" y="579" type="line" smooth="yes"/>
      <point x="162" y="590"/>
      <point x="135" y="606"/>
      <point x="135" y="648" type="curve" smooth="yes"/>
      <point x="135" y="710"/>
      <point x="174" y="748"/>
      <point x="238" y="748" type="curve" smooth="yes"/>
      <point x="274" y="748"/>
      <point x="300" y="736"/>
      <point x="322" y="716" type="curve"/>
      <point x="339" y="730" type="line"/>
      <point x="312" y="756"/>
      <point x="282" y="771"/>
      <point x="238" y="771" type="curve" smooth="yes"/>
      <point x="160" y="771"/>
      <point x="106" y="720"/>
      <point x="106" y="648" type="curve" smooth="yes"/>
      <point x="106" y="589"/>
      <point x="151" y="568"/>
      <point x="195" y="558" type="curve" smooth="yes"/>
      <point x="210" y="554" type="line"/>
      <point x="189" y="400" type="line"/>
    </contour>
  </outline>
</glyph>
<glyph name="tonebarextralowmod" format="2">
  <advance width="310"/>
  <unicode hex="02E9"/>
  <outline>
    <contour>
      <point x="309" y="682" type="line"/>
      <point x="217" y="28" type="line"/>
      <point x="-3" y="28" type="line"/>
      <point x="-7" y="0" type="line"/>
      <point x="243" y="0" type="line"/>
      <point x="339" y="682" type="line"/>
    </contour>
  </outline>
</glyph>
<glyph name="gravecomb" format="2">
  <unicode hex="0300"/>
  <anchor x="151" y="520" name="_top"/>
  <anchor x="190" y="767" name="top"/>
  <outline>
    <contour>
      <point x="115" y="767" type="line"/>
      <point x="97" y="735" type="line"/>
      <point x="267" y="651" type="line"/>
      <point x="279" y="671" type="line"/>
    </contour>
  </outline>
</glyph>
<glyph name="acutecomb" format="2">
  <unicode hex="0301"/>
  <anchor x="162" y="520" name="_top"/>
  <anchor x="191" y="767" name="top"/>
  <outline>
    <contour>
      <point x="278" y="767" type="line"/>
      <point x="86" y="671" type="line"/>
      <point x="96" y="651" type="line"/>
      <point x="290" y="735" type="line"/>
    </contour>
  </outline>
</glyph>
<glyph name="circumflexcomb" format="2">
  <unicode hex="0302"/>
  <anchor x="201" y="520" name="_top"/>
  <anchor x="234" y="769" name="top"/>
  <outline>
    <contour>
      <point x="102" y="651" type="line"/>
      <point x="230" y="736" type="line"/>
      <point x="337" y="651" type="line"/>
      <point x="352" y="669" type="line"/>
      <point x="242" y="769" type="line"/>
      <point x="226" y="769" type="line"/>
      <point x="87" y="669" type="line"/>
    </contour>
  </outline>
</glyph>
<glyph name="macroncomb" format="2">
  <unicode hex="0304"/>
  <anchor x="174" y="520" name="_top"/>
  <anchor x="201" y="712" name="top"/>
  <outline>
    <contour>
      <point x="303" y="683" type="line"/>
      <point x="308" y="712" type="line"/>
      <point x="94" y="712" type="line"/>
      <point x="89" y="683" type="line"/>
    </contour>
  </outline>
</glyph>
<glyph name="brevecomb" format="2">
  <unicode hex="0306"/>
  <anchor x="182" y="520" name="_top"/>
  <anchor x="214" y="759" name="top"/>
  <outline>
    <contour>
      <point x="201" y="661" type="curve"/>
      <point x="260" y="661"/>
      <point x="309" y="698"/>
      <point x="325" y="752" type="curve"/>
      <point x="304" y="759" type="line"/>
      <point x="286" y="715"/>
      <point x="249" y="690"/>
      <point x="201" y="690" type="curve"/>
      <point x="155" y="690"/>
      <point x="128" y="713"/>
      <point x="122" y="757" type="curve"/>
      <point x="99" y="754" type="line"/>
      <point x="101" y="700"/>
      <point x="140" y="661"/>
    </contour>
  </outline>
</glyph>
<glyph name="dotaccentcomb" format="2">
  <unicode hex="0307"/>
  <anchor x="119" y="706" name="_center"/>
  <anchor x="92" y="520" name="_top"/>
  <anchor x="121" y="731" name="top"/>
  <outline>
    <contour>
      <point x="116" y="681" type="curve"/>
      <point x="133" y="681"/>
      <point x="144" y="694"/>
      <point x="144" y="709" type="curve" smooth="yes"/>
      <point x="144" y="722"/>
      <point x="135" y="731"/>
      <point x="121" y="731" type="curve"/>
      <point x="104" y="731"/>
      <point x="93" y="718"/>
      <point x="93" y="703" type="curve" smooth="yes"/>
      <point x="93" y="690"/>
      <point x="102" y="681"/>
    </contour>
  </outline>
</glyph>
<glyph name="dieresiscomb" format="2">
  <unicode hex="0308"/>
  <anchor x="178" y="520" name="_top"/>
  <anchor x="205" y="720" name="top"/>
  <outline>
    <contour>
      <point x="114" y="670" type="curve"/>
      <point x="131" y="670"/>
      <point x="142" y="683"/>
      <point x="142" y="698" type="curve" smooth="yes"/>
      <point x="142" y="711"/>
      <point x="133" y="720"/>
      <point x="119" y="720" type="curve"/>
      <point x="102" y="720"/>
      <point x="91" y="707"/>
      <point x="91" y="692" type="curve" smooth="yes"/>
      <point x="91" y="679"/>
      <point x="100" y="670"/>
    </contour>
    <contour>
      <point x="286" y="670" type="curve"/>
      <point x="303" y="670"/>
      <point x="314" y="683"/>
      <point x="314" y="698" type="curve" smooth="yes"/>
      <point x="314" y="711"/>
      <point x="305" y="720"/>
      <point x="291" y="720" type="curve"/>
      <point x="274" y="720"/>
      <point x="263" y="707"/>
      <point x="263" y="692" type="curve" smooth="yes"/>
      <point x="263" y="679"/>
      <point x="272" y="670"/>
    </contour>
  </outline>
</glyph>
<glyph name="hookabovecomb" format="2">
  <unicode hex="0309"/>
  <anchor x="133" y="520" name="_top"/>
  <anchor x="89" y="504" name="_topright"/>
  <anchor x="185" y="815" name="top"/>
  <outline>
    <contour>
      <point x="132" y="621" type="line"/>
      <point x="162" y="621" type="line"/>
      <point x="170" y="676" type="line"/>
      <point x="219" y="681"/>
      <point x="250" y="709"/>
      <point x="250" y="752" type="curve" smooth="yes"/>
      <point x="250" y="791"/>
      <point x="223" y="816"/>
      <point x="177" y="816" type="curve" smooth="yes"/>
      <point x="148" y="816"/>
      <point x="126" y="809"/>
      <point x="104" y="797" type="curve"/>
      <point x="114" y="775" type="line"/>
      <point x="134" y="784"/>
      <point x="149" y="789"/>
      <point x="175" y="789" type="curve" smooth="yes"/>
      <point x="203" y="789"/>
      <point x="218" y="776"/>
      <point x="218" y="752" type="curve" smooth="yes"/>
      <point x="218" y="711"/>
      <point x="182" y="696"/>
      <point x="141" y="695" type="curve"/>
    </contour>
  </outline>
</glyph>
<glyph name="ringcomb" format="2">
  <unicode hex="030A"/>
  <anchor x="153" y="520" name="_top"/>
  <anchor x="194" y="808" name="top"/>
  <outline>
    <contour>
      <point x="192" y="808" type="curve"/>
      <point x="138" y="808"/>
      <point x="95" y="770"/>
      <point x="95" y="713" type="curve" smooth="yes"/>
      <point x="95" y="671"/>
      <point x="125" y="640"/>
      <point x="172" y="640" type="curve"/>
      <point x="226" y="640"/>
      <point x="269" y="678"/>
      <point x="269" y="736" type="curve" smooth="yes"/>
      <point x="269" y="778"/>
      <point x="239" y="808"/>
    </contour>
    <contour>
      <point x="191" y="784" type="curve" smooth="yes"/>
      <point x="222" y="784"/>
      <point x="240" y="766"/>
      <point x="240" y="735" type="curve" smooth="yes"/>
      <point x="240" y="698"/>
      <point x="217" y="664"/>
      <point x="173" y="664" type="curve" smooth="yes"/>
      <point x="142" y="664"/>
      <point x="124" y="682"/>
      <point x="124" y="713" type="curve" smooth="yes"/>
      <point x="124" y="752"/>
      <point x="148" y="784"/>
    </contour>
  </outline>
</glyph>
<glyph name="caroncomb" format="2">
  <unicode hex="030C"/>
  <anchor x="199" y="520" name="_top"/>
  <anchor x="232" y="756" name="top"/>
  <outline>
    <contour>
      <point x="348" y="756" type="line"/>
      <point x="220" y="671" type="line"/>
      <point x="113" y="756" type="line"/>
      <point x="97" y="738" type="line"/>
      <point x="208" y="638" type="line"/>
      <point x="224" y="638" type="line"/>
      <point x="362" y="738" type="line"/>
    </contour>
  </outline>
</glyph>
<glyph name="verticallineabovecomb" format="2">
  <unicode hex="030D"/>
  <anchor x="83" y="520" name="_top"/>
  <anchor x="116" y="842" name="top"/>
  <outline>
    <contour>
      <point x="84" y="639" type="line"/>
      <point x="116" y="639" type="line"/>
      <point x="144" y="842" type="line"/>
      <point x="112" y="842" type="line"/>
    </contour>
  </outline>
</glyph>
<glyph name="dblgravecomb" format="2">
  <unicode hex="030F"/>
  <anchor x="211" y="520" name="_top"/>
  <anchor x="201" y="794" name="top"/>
  <outline>
    <contour>
      <point x="136" y="794" type="line"/>
      <point x="103" y="778" type="line"/>
      <point x="166" y="649" type="line"/>
      <point x="190" y="660" type="line"/>
    </contour>
    <contour>
      <point x="247" y="793" type="line"/>
      <point x="213" y="777" type="line"/>
      <point x="271" y="653" type="line"/>
      <point x="295" y="664" type="line"/>
    </contour>
  </outline>
</glyph>
<glyph name="lefttackbelowcomb" format="2">
  <unicode hex="0318"/>
  <anchor x="91" y="0" name="_bottom"/>
  <anchor x="55" y="-331" name="bottom"/>
  <outline>
    <contour>
      <point x="113" y="-74" type="line"/>
      <point x="97" y="-189" type="line"/>
      <point x="-33" y="-189" type="line"/>
      <point x="-37" y="-217" type="line"/>
      <point x="93" y="-217" type="line"/>
      <point x="77" y="-331" type="line"/>
      <point x="107" y="-331" type="line"/>
      <point x="143" y="-74" type="line"/>
    </contour>
  </outline>
</glyph>
<glyph name="righttackbelowcomb" format="2">
  <unicode hex="0319"/>
  <anchor x="56" y="0" name="_bottom"/>
  <anchor x="9" y="-332" name="bottom"/>
  <outline>
    <contour>
      <point x="13" y="-75" type="line"/>
      <point x="-17" y="-75" type="line"/>
      <point x="-53" y="-332" type="line"/>
      <point x="-23" y="-332" type="line"/>
      <point x="-7" y="-218" type="line"/>
      <point x="123" y="-218" type="line"/>
      <point x="127" y="-190" type="line"/>
      <point x="-3" y="-190" type="line"/>
    </contour>
  </outline>
</glyph>
<glyph name="leftangleabovecomb" format="2">
  <unicode hex="031A"/>
  <anchor x="152" y="520" name="_top"/>
  <anchor x="175" y="750" name="top"/>
  <outline>
    <contour>
      <point x="99" y="750" type="line"/>
      <point x="95" y="722" type="line"/>
      <point x="217" y="722" type="line"/>
      <point x="199" y="591" type="line"/>
      <point x="229" y="591" type="line"/>
      <point x="251" y="750" type="line"/>
    </contour>
  </outline>
</glyph>
<glyph name="downtackbelowcomb" format="2">
  <unicode hex="031E"/>
  <anchor x="127" y="0" name="_bottom"/>
  <anchor x="87" y="-281" name="bottom"/>
  <outline>
    <contour>
      <point x="241" y="-141" type="line"/>
      <point x="245" y="-113" type="line"/>
      <point x="-22" y="-113" type="line"/>
      <point x="-26" y="-141" type="line"/>
      <point x="92" y="-141" type="line"/>
      <point x="72" y="-281" type="line"/>
      <point x="102" y="-281" type="line"/>
      <point x="122" y="-141" type="line"/>
    </contour>
  </outline>
</glyph>
<glyph name="commaaccentcomb" format="2">
  <unicode hex="0326"/>
  <anchor x="40" y="0" name="_bottom"/>
  <outline>
    <contour>
      <point x="25" y="-91" type="curve" smooth="yes"/>
      <point x="3" y="-91"/>
      <point x="-10" y="-106"/>
      <point x="-10" y="-125" type="curve" smooth="yes"/>
      <point x="-10" y="-134"/>
      <point x="-5" y="-146"/>
      <point x="7" y="-152" type="curve"/>
      <point x="-44" y="-265" type="line"/>
      <point x="-23" y="-265" type="line"/>
      <point x="29" y="-180" type="line" smooth="yes"/>
      <point x="49" y="-146"/>
      <point x="55" y="-137"/>
      <point x="55" y="-119" type="curve" smooth="yes"/>
      <point x="55" y="-103"/>
      <point x="43" y="-91"/>
    </contour>
  </outline>
</glyph>
<glyph name="cedillacomb" format="2">
  <unicode hex="0327"/>
  <anchor x="55" y="0" name="_bottom"/>
  <anchor x="53" y="-216" name="bottom"/>
  <outline>
    <contour>
      <point x="67" y="16" type="line"/>
      <point x="44" y="16" type="line"/>
      <point x="22" y="-93" type="line"/>
      <point x="84" y="-94"/>
      <point x="104" y="-107"/>
      <point x="104" y="-138" type="curve" smooth="yes"/>
      <point x="104" y="-174"/>
      <point x="73" y="-189"/>
      <point x="36" y="-189" type="curve" smooth="yes"/>
      <point x="11" y="-189"/>
      <point x="-7" y="-182"/>
      <point x="-20" y="-175" type="curve"/>
      <point x="-34" y="-197" type="line"/>
      <point x="-18" y="-207"/>
      <point x="3" y="-216"/>
      <point x="36" y="-216" type="curve" smooth="yes"/>
      <point x="89" y="-216"/>
      <point x="136" y="-189"/>
      <point x="136" y="-137" type="curve" smooth="yes"/>
      <point x="136" y="-96"/>
      <point x="109" y="-75"/>
      <point x="52" y="-71" type="curve"/>
    </contour>
  </outline>
</glyph>
<glyph name="bridgebelowcomb" format="2">
  <unicode hex="032A"/>
  <anchor x="120" y="0" name="_bottom"/>
  <anchor x="99" y="-220" name="bottom"/>
  <outline>
    <contour>
      <point x="-37" y="-220" type="line"/>
      <point x="-7" y="-220" type="line"/>
      <point x="5" y="-130" type="line"/>
      <point x="197" y="-130" type="line"/>
      <point x="185" y="-220" type="line"/>
      <point x="215" y="-220" type="line"/>
      <point x="231" y="-102" type="line"/>
      <point x="-21" y="-102" type="line"/>
    </contour>
  </outline>
</glyph>
<glyph name="dblarchinvertedbelowcomb" format="2">
  <unicode hex="032B"/>
  <anchor x="146" y="0" name="_bottom"/>
  <anchor x="132" y="-163" name="bottom"/>
  <outline>
    <contour>
      <point x="190" y="-163" type="curve"/>
      <point x="229" y="-163"/>
      <point x="262" y="-126"/>
      <point x="276" y="-69" type="curve"/>
      <point x="257" y="-65" type="line"/>
      <point x="245" y="-104"/>
      <point x="222" y="-129"/>
      <point x="190" y="-129" type="curve"/>
      <point x="160" y="-129"/>
      <point x="146" y="-106"/>
      <point x="145" y="-67" type="curve"/>
      <point x="126" y="-65" type="line"/>
      <point x="124" y="-124"/>
      <point x="149" y="-163"/>
    </contour>
    <contour>
      <point x="48" y="-163" type="curve"/>
      <point x="87" y="-163"/>
      <point x="120" y="-126"/>
      <point x="134" y="-67" type="curve"/>
      <point x="115" y="-65" type="line"/>
      <point x="104" y="-104"/>
      <point x="80" y="-129"/>
      <point x="48" y="-129" type="curve"/>
      <point x="18" y="-129"/>
      <point x="4" y="-106"/>
      <point x="3" y="-67" type="curve"/>
      <point x="-16" y="-67" type="line"/>
      <point x="-18" y="-124"/>
      <point x="7" y="-163"/>
    </contour>
  </outline>
</glyph>
<glyph name="circumflexbelowcomb" format="2">
  <unicode hex="032D"/>
  <anchor x="125" y="0" name="_bottom"/>
  <anchor x="101" y="-189" name="bottom"/>
  <outline>
    <contour>
      <point x="-16" y="-189" type="line"/>
      <point x="112" y="-104" type="line"/>
      <point x="219" y="-189" type="line"/>
      <point x="234" y="-171" type="line"/>
      <point x="124" y="-71" type="line"/>
      <point x="108" y="-71" type="line"/>
      <point x="-31" y="-171" type="line"/>
    </contour>
  </outline>
</glyph>
<glyph name="lowlinecomb" format="2">
  <unicode hex="0332"/>
  <anchor x="154" y="0" name="_bottom"/>
  <anchor x="137" y="-147" name="bottom"/>
  <outline>
    <contour>
      <point x="294" y="-147" type="line"/>
      <point x="298" y="-118" type="line"/>
      <point x="-23" y="-118" type="line"/>
      <point x="-28" y="-147" type="line"/>
    </contour>
  </outline>
</glyph>
<glyph name="ringhalfrightbelowcomb" format="2">
  <unicode hex="0339"/>
  <anchor x="32" y="0" name="_bottom"/>
  <anchor x="13" y="-235" name="bottom"/>
  <outline>
    <contour>
      <point x="-39" y="-235" type="curve"/>
      <point x="-34" y="-211" type="line"/>
      <point x="-2" y="-211"/>
      <point x="31" y="-190"/>
      <point x="31" y="-142" type="curve" smooth="yes"/>
      <point x="31" y="-110"/>
      <point x="13" y="-91"/>
      <point x="-19" y="-91" type="curve"/>
      <point x="-14" y="-67" type="line"/>
      <point x="26" y="-67"/>
      <point x="61" y="-93"/>
      <point x="61" y="-141" type="curve" smooth="yes"/>
      <point x="61" y="-204"/>
      <point x="16" y="-235"/>
    </contour>
  </outline>
</glyph>
<glyph name="bridgeinvertedbelowcomb" format="2">
  <unicode hex="033A"/>
  <anchor x="120" y="0" name="_bottom"/>
  <anchor x="100" y="-219" name="bottom"/>
  <outline>
    <contour>
      <point x="-20" y="-101" type="line"/>
      <point x="-37" y="-219" type="line"/>
      <point x="215" y="-219" type="line"/>
      <point x="232" y="-101" type="line"/>
      <point x="202" y="-101" type="line"/>
      <point x="189" y="-191" type="line"/>
      <point x="-3" y="-191" type="line"/>
      <point x="10" y="-101" type="line"/>
    </contour>
  </outline>
</glyph>
<glyph name="squarebelowcomb" format="2">
  <unicode hex="033B"/>
  <anchor x="115" y="0" name="_bottom"/>
  <anchor x="96" y="-219" name="bottom"/>
  <outline>
    <contour>
      <point x="-37" y="-219" type="line"/>
      <point x="205" y="-219" type="line"/>
      <point x="224" y="-81" type="line"/>
      <point x="-18" y="-81" type="line"/>
    </contour>
    <contour>
      <point x="-5" y="-192" type="line"/>
      <point x="7" y="-108" type="line"/>
      <point x="191" y="-108" type="line"/>
      <point x="179" y="-192" type="line"/>
    </contour>
  </outline>
</glyph>
<glyph name="ypogegrammenicomb" format="2">
  <unicode hex="0345"/>
  <anchor x="8" y="0" name="_bottom"/>
  <anchor x="42" y="-159" name="bottom"/>
  <outline>
    <contour>
      <point x="43" y="-159" type="curve" smooth="yes"/>
      <point x="70" y="-159"/>
      <point x="92" y="-151"/>
      <point x="115" y="-135" type="curve"/>
      <point x="100" y="-115" type="line"/>
      <point x="82" y="-126"/>
      <point x="69" y="-132"/>
      <point x="45" y="-132" type="curve" smooth="yes"/>
      <point x="22" y="-132"/>
      <point x="10" y="-121"/>
      <point x="10" y="-99" type="curve" smooth="yes"/>
      <point x="10" y="-82"/>
      <point x="14" y="-64"/>
      <point x="17" y="-49" type="curve"/>
      <point x="-11" y="-49" type="line"/>
      <point x="-14" y="-62"/>
      <point x="-19" y="-83"/>
      <point x="-19" y="-100" type="curve" smooth="yes"/>
      <point x="-19" y="-132"/>
      <point x="1" y="-159"/>
    </contour>
  </outline>
</glyph>
<glyph name="Heta" format="2">
  <advance width="514"/>
  <unicode hex="0370"/>
  <anchor x="220.459" y="0" name="bottom"/>
  <anchor x="316.308" y="682" name="top"/>
  <outline>
    <contour>
      <point x="496" y="345" type="line"/>
      <point x="500" y="374" type="line"/>
      <point x="167" y="374" type="line"/>
      <point x="210" y="682" type="line"/>
      <point x="179" y="682" type="line"/>
      <point x="83" y="0" type="line"/>
      <point x="114" y="0" type="line"/>
      <point x="163" y="345" type="line"/>
    </contour>
  </outline>
</glyph>
<glyph name="heta" format="2">
  <advance width="467"/>
  <unicode hex="0371"/>
  <anchor x="196.959" y="0" name="bottom"/>
  <anchor x="270.041" y="520" name="top"/>
  <outline>
    <contour>
      <point x="80" y="0" type="line"/>
      <point x="110" y="0" type="line"/>
      <point x="159" y="348" type="line" smooth="yes"/>
      <point x="174" y="449"/>
      <point x="167" y="485"/>
      <point x="161" y="524" type="curve"/>
      <point x="132" y="522" type="line"/>
      <point x="138" y="482"/>
      <point x="141" y="433"/>
      <point x="130" y="355" type="curve" smooth="yes"/>
    </contour>
    <contour>
      <point x="137" y="258" type="line"/>
      <point x="427" y="258" type="line"/>
      <point x="431" y="287" type="line"/>
      <point x="141" y="287" type="line"/>
    </contour>
  </outline>
</glyph>
<glyph name="Archaicsampi" format="2">
  <advance width="497"/>
  <unicode hex="0372"/>
  <anchor x="211.959" y="0" name="bottom"/>
  <anchor x="307.808" y="682" name="top"/>
  <outline>
    <contour>
      <point x="100" y="652" type="line"/>
      <point x="70" y="652" type="line"/>
      <point x="43" y="457" type="line"/>
      <point x="73" y="457" type="line"/>
    </contour>
    <contour>
      <point x="541" y="682" type="line"/>
      <point x="74" y="682" type="line"/>
      <point x="70" y="652" type="line"/>
      <point x="288" y="652" type="line"/>
      <point x="196" y="0" type="line"/>
      <point x="227" y="0" type="line"/>
      <point x="319" y="652" type="line"/>
      <point x="537" y="652" type="line"/>
    </contour>
    <contour>
      <point x="537" y="652" type="line"/>
      <point x="507" y="652" type="line"/>
      <point x="480" y="457" type="line"/>
      <point x="510" y="457" type="line"/>
    </contour>
  </outline>
</glyph>
<glyph name="archaicsampi" format="2">
  <advance width="477"/>
  <unicode hex="0373"/>
  <anchor x="275.041" y="520" name="top"/>
  <outline>
    <contour>
      <point x="279" y="501" type="line"/>
      <point x="249" y="501" type="line"/>
      <point x="150" y="-200" type="line"/>
      <point x="181" y="-194" type="line"/>
    </contour>
    <contour>
      <point x="31" y="483" type="line"/>
      <point x="56" y="490"/>
      <point x="73" y="491"/>
      <point x="107" y="491" type="curve" smooth="yes"/>
      <point x="497" y="491" type="line"/>
      <point x="502" y="520" type="line"/>
      <point x="108" y="520" type="line" smooth="yes"/>
      <point x="76" y="520"/>
      <point x="50" y="518"/>
      <point x="27" y="509" type="curve"/>
    </contour>
  </outline>
</glyph>
<glyph name="pamphyliandigamma" format="2">
  <advance width="583"/>
  <unicode hex="0377"/>
  <anchor x="254.959" y="0" name="bottom"/>
  <anchor x="328.041" y="520" name="top"/>
  <outline>
    <contour>
      <point x="78" y="0" type="line"/>
      <point x="113" y="0" type="line"/>
      <point x="476" y="490" type="line"/>
      <point x="507" y="520" type="line"/>
      <point x="470" y="520" type="line"/>
      <point x="112" y="40" type="line"/>
      <point x="124" y="111"/>
      <point x="139" y="213"/>
      <point x="182" y="520" type="curve"/>
      <point x="152" y="520" type="line"/>
    </contour>
    <contour>
      <point x="473" y="-5" type="curve"/>
      <point x="484" y="19" type="line"/>
      <point x="448" y="38"/>
      <point x="441" y="60"/>
      <point x="447" y="99" type="curve" smooth="yes"/>
      <point x="507" y="520" type="line"/>
      <point x="476" y="490" type="line"/>
      <point x="468" y="441"/>
      <point x="416" y="106"/>
      <point x="416" y="79" type="curve" smooth="yes"/>
      <point x="416" y="37"/>
      <point x="433" y="11"/>
    </contour>
  </outline>
</glyph>
<glyph name="tonos" format="2">
  <advance width="127"/>
  <unicode hex="0384"/>
  <anchor x="77" y="520" name="_top"/>
  <outline>
    <contour>
      <point x="130" y="743" type="line"/>
      <point x="79" y="608" type="line"/>
      <point x="99" y="604" type="line"/>
      <point x="164" y="735" type="line"/>
    </contour>
  </outline>
</glyph>
<glyph name="Delta" format="2">
  <advance width="568"/>
  <unicode hex="0394"/>
  <anchor x="247.459" y="0" name="bottom"/>
  <anchor x="343.308" y="682" name="top"/>
  <outline>
    <contour>
      <point x="341" y="657" type="line"/>
      <point x="468" y="28" type="line"/>
      <point x="33" y="28" type="line"/>
    </contour>
    <contour>
      <point x="363" y="682" type="line"/>
      <point x="324" y="682" type="line"/>
      <point x="-12" y="0" type="line"/>
      <point x="506" y="0" type="line"/>
    </contour>
  </outline>
</glyph>
<glyph name="Lambda" format="2">
  <advance width="558"/>
  <unicode hex="039B"/>
  <anchor x="242" y="0" name="bottom"/>
  <anchor x="338" y="682" name="top"/>
  <outline>
    <contour>
      <point x="357" y="682" type="line"/>
      <point x="319" y="682" type="line"/>
      <point x="-12" y="0" type="line"/>
      <point x="20" y="0" type="line"/>
      <point x="335" y="657" type="line"/>
      <point x="464" y="0" type="line"/>
      <point x="496" y="0" type="line"/>
    </contour>
  </outline>
</glyph>
<glyph name="eta" format="2">
  <advance width="584"/>
  <unicode hex="03B7"/>
  <anchor x="93" y="0" name="bottom"/>
  <anchor x="315" y="520" name="top"/>
  <outline>
    <contour>
      <point x="373" y="530" type="curve" smooth="yes"/>
      <point x="295.728" y="530"/>
      <point x="218.402" y="477.317"/>
      <point x="161" y="367" type="curve"/>
      <point x="171" y="452"/>
      <point x="168" y="481"/>
      <point x="160" y="524" type="curve"/>
      <point x="132" y="522" type="line"/>
      <point x="138" y="482"/>
      <point x="141" y="433"/>
      <point x="130" y="355" type="curve" smooth="yes"/>
      <point x="80" y="0" type="line"/>
      <point x="110" y="0" type="line"/>
      <point x="151.95" y="298.225" type="line"/>
      <point x="209.521" y="428.239"/>
      <point x="289.261" y="503"/>
      <point x="372" y="503" type="curve" smooth="yes"/>
      <point x="441" y="503"/>
      <point x="472" y="460"/>
      <point x="459" y="367" type="curve" smooth="yes"/>
      <point x="379" y="-199" type="line"/>
      <point x="408" y="-195" type="line"/>
      <point x="489" y="369" type="line" smooth="yes"/>
      <point x="504" y="471"/>
      <point x="464" y="530"/>
    </contour>
  </outline>
</glyph>
<glyph name="theta" format="2">
  <advance width="557"/>
  <unicode hex="03B8"/>
  <anchor x="241.959" y="0" name="bottom"/>
  <anchor x="345.116" y="734" name="top"/>
  <outline>
    <contour>
      <point x="346" y="738" type="curve" smooth="yes"/>
      <point x="149" y="738"/>
      <point x="76" y="475"/>
      <point x="76" y="225" type="curve" smooth="yes"/>
      <point x="76" y="75"/>
      <point x="130" y="-10"/>
      <point x="242" y="-10" type="curve" smooth="yes"/>
      <point x="425" y="-10"/>
      <point x="510" y="247"/>
      <point x="510" y="500" type="curve" smooth="yes"/>
      <point x="510" y="653"/>
      <point x="460" y="738"/>
    </contour>
    <contour>
      <point x="468" y="355" type="line"/>
      <point x="444" y="156"/>
      <point x="363" y="18"/>
      <point x="243" y="18" type="curve" smooth="yes"/>
      <point x="150" y="18"/>
      <point x="106" y="92"/>
      <point x="106" y="225" type="curve" smooth="yes"/>
      <point x="106" y="263"/>
      <point x="109" y="306"/>
      <point x="114" y="355" type="curve"/>
    </contour>
    <contour>
      <point x="345" y="711" type="curve" smooth="yes"/>
      <point x="438" y="711"/>
      <point x="480" y="643"/>
      <point x="480" y="500" type="curve" smooth="yes"/>
      <point x="480" y="472"/>
      <point x="477" y="429"/>
      <point x="473" y="382" type="curve"/>
      <point x="118" y="382" type="line"/>
      <point x="144" y="591"/>
      <point x="227" y="711"/>
    </contour>
  </outline>
</glyph>
<glyph name="iota" format="2">
  <advance width="253"/>
  <unicode hex="03B9"/>
  <anchor x="89.9594" y="0" name="bottom"/>
  <anchor x="162" y="520" name="top"/>
  <outline>
    <contour>
      <point x="177" y="520" type="line"/>
      <point x="147" y="520" type="line"/>
      <point x="89" y="111" type="line" smooth="yes"/>
      <point x="80" y="44"/>
      <point x="94" y="14"/>
      <point x="143" y="-5" type="curve"/>
      <point x="154" y="19" type="line"/>
      <point x="122" y="35"/>
      <point x="111" y="53"/>
      <point x="119" y="109" type="curve" smooth="yes"/>
    </contour>
  </outline>
</glyph>
<glyph name="nu" format="2">
  <advance width="444.281"/>
  <unicode hex="03BD"/>
  <anchor x="185.6" y="0" name="bottom"/>
  <anchor x="258.681" y="520" name="top"/>
  <outline>
    <contour>
      <point x="80" y="524" type="curve"/>
      <point x="51" y="517" type="line"/>
      <point x="101" y="437"/>
      <point x="137" y="292"/>
      <point x="164" y="0" type="curve"/>
      <point x="206" y="0" type="line"/>
      <point x="461" y="518" type="line"/>
      <point x="431" y="525" type="line"/>
      <point x="189" y="26" type="line"/>
      <point x="166" y="314"/>
      <point x="124" y="454"/>
    </contour>
  </outline>
</glyph>
<glyph name="pi" format="2">
  <advance width="579"/>
  <unicode hex="03C0"/>
  <anchor x="252.959" y="0" name="bottom"/>
  <anchor x="326.041" y="520" name="top"/>
  <outline>
    <contour>
      <point x="569" y="520" type="line"/>
      <point x="186" y="520" type="line" smooth="yes"/>
      <point x="125" y="520"/>
      <point x="97" y="518"/>
      <point x="76" y="509" type="curve"/>
      <point x="80" y="483" type="line"/>
      <point x="104.229" y="489.784"/>
      <point x="121.884" y="491.872"/>
      <point x="173.017" y="491.994" type="curve"/>
      <point x="104" y="0" type="line"/>
      <point x="134" y="0" type="line"/>
      <point x="203.018" y="492" type="line"/>
      <point x="445.008" y="492" type="line"/>
      <point x="391" y="111" type="line" smooth="yes"/>
      <point x="382" y="44"/>
      <point x="396" y="14"/>
      <point x="445" y="-5" type="curve"/>
      <point x="456" y="19" type="line"/>
      <point x="424" y="35"/>
      <point x="413" y="53"/>
      <point x="421" y="109" type="curve" smooth="yes"/>
      <point x="475.013" y="492" type="line"/>
      <point x="564" y="492" type="line"/>
    </contour>
  </outline>
</glyph>
<glyph name="rho" format="2">
  <advance width="560"/>
  <unicode hex="03C1"/>
  <anchor x="326" y="520" name="top"/>
  <outline>
    <contour>
      <point x="40" y="-199" type="line"/>
      <point x="71" y="-195" type="line"/>
      <point x="139" y="292" type="line" smooth="yes"/>
      <point x="158" y="421"/>
      <point x="222" y="503"/>
      <point x="325" y="503" type="curve" smooth="yes"/>
      <point x="411" y="503"/>
      <point x="459" y="445"/>
      <point x="459" y="332" type="curve" smooth="yes"/>
      <point x="459" y="217"/>
      <point x="415" y="18"/>
      <point x="257" y="18" type="curve" smooth="yes"/>
      <point x="184" y="18"/>
      <point x="136" y="59"/>
      <point x="111" y="129" type="curve"/>
      <point x="105" y="89" type="line"/>
      <point x="129" y="33"/>
      <point x="181" y="-10"/>
      <point x="257" y="-10" type="curve" smooth="yes"/>
      <point x="434" y="-10"/>
      <point x="490" y="194"/>
      <point x="490" y="332" type="curve" smooth="yes"/>
      <point x="490" y="456"/>
      <point x="433" y="530"/>
      <point x="326" y="530" type="curve" smooth="yes"/>
      <point x="202" y="530"/>
      <point x="129" y="431"/>
      <point x="110" y="298" type="curve" smooth="yes"/>
    </contour>
  </outline>
</glyph>
<glyph name="upsilon" format="2">
  <advance width="558.125"/>
  <unicode hex="03C5"/>
  <anchor x="242.522" y="0" name="bottom"/>
  <anchor x="312" y="520" name="top"/>
  <outline>
    <contour>
      <point x="477" y="520" type="curve"/>
      <point x="447" y="520" type="line"/>
      <point x="448" y="493"/>
      <point x="449" y="460"/>
      <point x="449" y="426" type="curve" smooth="yes"/>
      <point x="449" y="248"/>
      <point x="412" y="16"/>
      <point x="232" y="18" type="curve" smooth="yes"/>
      <point x="159" y="19"/>
      <point x="113" y="63"/>
      <point x="126" y="157" type="curve" smooth="yes"/>
      <point x="177" y="520" type="line"/>
      <point x="147" y="520" type="line"/>
      <point x="96" y="158" type="line" smooth="yes"/>
      <point x="81" y="53"/>
      <point x="137" y="-10"/>
      <point x="231" y="-10" type="curve" smooth="yes"/>
      <point x="439" y="-10"/>
      <point x="479" y="231"/>
      <point x="479" y="426" type="curve" smooth="yes"/>
      <point x="479" y="460"/>
      <point x="478" y="492"/>
    </contour>
  </outline>
</glyph>
<glyph name="psi" format="2">
  <advance width="741.351"/>
  <unicode hex="03C8"/>
  <anchor x="407.216" y="520" name="top"/>
  <outline>
    <contour>
      <point x="660" y="412" type="curve" smooth="yes"/>
      <point x="660" y="457"/>
      <point x="658" y="487"/>
      <point x="655" y="520" type="curve"/>
      <point x="625" y="520" type="line"/>
      <point x="628" y="490"/>
      <point x="630" y="453"/>
      <point x="630" y="412" type="curve" smooth="yes"/>
      <point x="630" y="198"/>
      <point x="592" y="26"/>
      <point x="349" y="17" type="curve"/>
      <point x="420" y="520" type="line"/>
      <point x="390" y="520" type="line"/>
      <point x="319" y="17" type="line"/>
      <point x="172" y="19"/>
      <point x="105" y="75"/>
      <point x="124" y="211" type="curve" smooth="yes"/>
      <point x="168" y="520" type="line"/>
      <point x="138" y="520" type="line"/>
      <point x="94" y="214" type="line" smooth="yes"/>
      <point x="72" y="61"/>
      <point x="152.912" y="-7.511"/>
      <point x="314.822" y="-9.932" type="curve"/>
      <point x="288" y="-199" type="line"/>
      <point x="319" y="-195" type="line"/>
      <point x="345.172" y="-9.726" type="line"/>
      <point x="615.778" y="2.1"/>
      <point x="660" y="179.043"/>
    </contour>
  </outline>
</glyph>
<glyph name="KaiSymbol" format="2">
  <advance width="544"/>
  <unicode hex="03CF"/>
  <anchor x="263" y="0" name="bottom"/>
  <anchor x="349" y="682" name="top"/>
  <outline>
    <contour>
      <point x="449" y="29" type="line"/>
      <point x="444" y="0" type="line"/>
      <point x="497" y="0" type="line"/>
      <point x="501" y="29" type="line"/>
    </contour>
    <component base="Kappa"/>
    <component base="hookHELPER.case" xOffset="299"/>
  </outline>
</glyph>
<glyph name="KoppaArchaic" format="2">
  <advance width="690"/>
  <unicode hex="03D8"/>
  <anchor x="309" y="0" name="bottom"/>
  <anchor x="404" y="682" name="top"/>
  <anchor x="163" y="682" name="topleft"/>
  <anchor x="596" y="682" name="topright"/>
  <outline>
    <contour>
      <point x="264" y="-193" type="line"/>
      <point x="296" y="-193" type="line"/>
      <point x="323" y="0" type="line"/>
      <point x="291" y="0" type="line"/>
    </contour>
    <component base="O"/>
  </outline>
</glyph>
<glyph name="koppaArchaic" format="2">
  <advance width="561"/>
  <unicode hex="03D9"/>
  <anchor x="245" y="0" name="bottom"/>
  <anchor x="319" y="520" name="top"/>
  <anchor x="493" y="520" name="topright"/>
  <outline>
    <contour>
      <point x="253" y="0" type="line"/>
      <point x="224" y="0" type="line"/>
      <point x="196" y="-199" type="line"/>
      <point x="226" y="-193" type="line"/>
    </contour>
    <component base="o"/>
  </outline>
</glyph>
<glyph name="Digamma" format="2">
  <advance width="528"/>
  <unicode hex="03DC"/>
  <anchor x="217.459" y="0.0" name="bottom"/>
  <anchor x="124" y="0" name="bottomright"/>
  <anchor x="388" y="682" name="top"/>
  <outline>
    <contour>
      <point x="442" y="323" type="curve"/>
      <point x="455" y="348" type="line"/>
      <point x="432" y="360"/>
      <point x="410" y="367"/>
      <point x="378" y="367" type="curve" smooth="yes"/>
      <point x="160" y="367" type="line"/>
      <point x="156" y="338" type="line"/>
      <point x="374" y="338" type="line" smooth="yes"/>
      <point x="402" y="338"/>
      <point x="421" y="332"/>
    </contour>
    <component base="Gamma"/>
  </outline>
</glyph>
<glyph name="Koppa" format="2">
  <advance width="448"/>
  <unicode hex="03DE"/>
  <anchor x="187.459" y="0" name="bottom"/>
  <anchor x="283.308" y="682" name="top"/>
  <outline>
    <contour>
      <point x="152" y="0" type="line"/>
      <point x="189" y="0" type="line"/>
      <point x="428" y="330" type="line"/>
      <point x="396" y="336" type="line"/>
    </contour>
    <contour>
      <point x="59" y="330" type="line"/>
      <point x="428" y="330" type="line"/>
      <point x="418" y="360" type="line"/>
      <point x="49" y="360" type="line"/>
    </contour>
    <contour>
      <point x="81" y="354" type="line"/>
      <point x="321" y="682" type="line"/>
      <point x="284" y="682" type="line"/>
      <point x="49" y="360" type="line"/>
    </contour>
  </outline>
</glyph>
<glyph name="SigmaLunateSymbol" format="2">
  <advance width="572"/>
  <unicode hex="03F9"/>
  <anchor x="249.459" y="0" name="bottom"/>
  <anchor x="360" y="344" name="center"/>
  <anchor x="345.308" y="682" name="top"/>
  <outline>
    <contour>
      <point x="411" y="691" type="curve" smooth="yes"/>
      <point x="197" y="691"/>
      <point x="81" y="485"/>
      <point x="81" y="269" type="curve" smooth="yes"/>
      <point x="81" y="83"/>
      <point x="175" y="-10"/>
      <point x="316" y="-10" type="curve" smooth="yes"/>
      <point x="403" y="-10"/>
      <point x="460" y="17"/>
      <point x="519" y="55" type="curve"/>
      <point x="501" y="78" type="line"/>
      <point x="446" y="44"/>
      <point x="403" y="20"/>
      <point x="317" y="20" type="curve" smooth="yes"/>
      <point x="195" y="20"/>
      <point x="112" y="99"/>
      <point x="112" y="271" type="curve" smooth="yes"/>
      <point x="112" y="468"/>
      <point x="212" y="663"/>
      <point x="413" y="663" type="curve" smooth="yes"/>
      <point x="487" y="663"/>
      <point x="522" y="645"/>
      <point x="572" y="612" type="curve"/>
      <point x="591" y="633" type="line"/>
      <point x="544" y="666"/>
      <point x="497" y="691"/>
    </contour>
  </outline>
</glyph>
<glyph name="rhoStrokeSymbol" format="2">
  <advance width="560"/>
  <unicode hex="03FC"/>
  <anchor x="326" y="520" name="top"/>
  <outline>
    <contour>
      <point x="-18" y="-81" type="line"/>
      <point x="-22" y="-108" type="line"/>
      <point x="53" y="-108" type="line"/>
      <point x="253" y="-108" type="line"/>
      <point x="257" y="-81" type="line"/>
    </contour>
    <component base="rho"/>
  </outline>
</glyph>
<glyph name="SigmaLunateReversedSymbol" format="2">
  <advance width="576"/>
  <unicode hex="03FD"/>
  <anchor x="251.459" y="0" name="bottom"/>
  <anchor x="235" y="344" name="center"/>
  <anchor x="347.308" y="682" name="top"/>
  <outline>
    <contour>
      <point x="190" y="-10" type="curve" smooth="yes"/>
      <point x="399" y="-10"/>
      <point x="514" y="180"/>
      <point x="514" y="386" type="curve" smooth="yes"/>
      <point x="514" y="575"/>
      <point x="427" y="692"/>
      <point x="265" y="692" type="curve" smooth="yes"/>
      <point x="193" y="692"/>
      <point x="139" y="665"/>
      <point x="83" y="633" type="curve"/>
      <point x="99" y="609" type="line"/>
      <point x="155" y="640"/>
      <point x="202" y="663"/>
      <point x="263" y="663" type="curve" smooth="yes"/>
      <point x="408" y="663"/>
      <point x="483" y="563"/>
      <point x="483" y="389" type="curve" smooth="yes"/>
      <point x="483" y="205"/>
      <point x="383" y="20"/>
      <point x="190" y="20" type="curve" smooth="yes"/>
      <point x="105" y="20"/>
      <point x="60" y="44"/>
      <point x="16" y="77" type="curve"/>
      <point x="-5" y="55" type="line"/>
      <point x="41" y="19"/>
      <point x="94" y="-10"/>
    </contour>
  </outline>
</glyph>
<glyph name="Dje-cy" format="2">
  <advance width="687"/>
  <unicode hex="0402"/>
  <anchor x="402.808" y="682" name="top"/>
  <outline>
    <contour>
      <point x="468" y="424" type="curve" smooth="yes"/>
      <point x="384.627" y="424"/>
      <point x="321.458" y="390.939"/>
      <point x="264.412" y="335.378" type="curve"/>
      <point x="309.173" y="652" type="line"/>
      <point x="517" y="652" type="line"/>
      <point x="526" y="682" type="line"/>
      <point x="74" y="682" type="line"/>
      <point x="70" y="652" type="line"/>
      <point x="278.173" y="652" type="line"/>
      <point x="186" y="0" type="line"/>
      <point x="217" y="0" type="line"/>
      <point x="258.227" y="291.623" type="line"/>
      <point x="323.394" y="360.849"/>
      <point x="387.134" y="395"/>
      <point x="467" y="395" type="curve" smooth="yes"/>
      <point x="576" y="395"/>
      <point x="611" y="333"/>
      <point x="598" y="242" type="curve"/>
      <point x="577" y="91" type="line"/>
      <point x="564" y="-2"/>
      <point x="535" y="-37"/>
      <point x="438" y="-81" type="curve"/>
      <point x="446" y="-104" type="line"/>
      <point x="565" y="-54"/>
      <point x="593" y="-16"/>
      <point x="608" y="87" type="curve"/>
      <point x="629" y="242" type="line"/>
      <point x="645" y="352"/>
      <point x="593" y="424"/>
    </contour>
  </outline>
</glyph>
<glyph name="Tshe-cy" format="2">
  <advance width="690"/>
  <unicode hex="040B"/>
  <anchor x="361.459" y="0.0" name="bottom"/>
  <anchor x="608" y="0" name="bottomright"/>
  <anchor x="457.308" y="682.0" name="top"/>
  <outline>
    <contour>
      <point x="526" y="682" type="line"/>
      <point x="74" y="682" type="line"/>
      <point x="70" y="652" type="line"/>
      <point x="517" y="652" type="line"/>
    </contour>
    <component base="Shha-cy" xOffset="106"/>
  </outline>
</glyph>
<glyph name="Ge-cy" format="2">
  <advance width="508"/>
  <unicode hex="0413"/>
  <anchor x="217.459" y="0" name="bottom"/>
  <anchor x="124" y="0" name="bottomright"/>
  <anchor x="388" y="682" name="top"/>
  <outline>
    <contour>
      <point x="179" y="682" type="line"/>
      <point x="83" y="0" type="line"/>
      <point x="114" y="0" type="line"/>
      <point x="208" y="663" type="line"/>
    </contour>
    <contour>
      <point x="557" y="682" type="line"/>
      <point x="179" y="682" type="line"/>
      <point x="195" y="652" type="line"/>
      <point x="548" y="652" type="line"/>
    </contour>
  </outline>
</glyph>
<glyph name="Ka-cy" format="2">
  <advance width="542"/>
  <unicode hex="041A"/>
  <anchor x="234.459" y="0" name="bottom"/>
  <anchor x="480" y="0" name="bottomright"/>
  <anchor x="368" y="682" name="top"/>
  <outline>
    <contour>
      <point x="557" y="692" type="line"/>
      <point x="513" y="677"/>
      <point x="494" y="668"/>
      <point x="441" y="593" type="curve" smooth="yes"/>
      <point x="287" y="374" type="line"/>
      <point x="166.645" y="374" type="line"/>
      <point x="210" y="682" type="line"/>
      <point x="179" y="682" type="line"/>
      <point x="83" y="0" type="line"/>
      <point x="114" y="0" type="line"/>
      <point x="162.704" y="346" type="line"/>
      <point x="287" y="346" type="line"/>
      <point x="458" y="0" type="line"/>
      <point x="490" y="0" type="line"/>
      <point x="312" y="362" type="line"/>
      <point x="461" y="575" type="line" smooth="yes"/>
      <point x="513" y="649"/>
      <point x="528" y="657"/>
      <point x="566" y="669" type="curve"/>
    </contour>
  </outline>
</glyph>
<glyph name="El-cy" format="2">
  <advance width="633"/>
  <unicode hex="041B"/>
  <anchor x="279.959" y="0" name="bottom"/>
  <anchor x="487" y="0" name="bottomright"/>
  <anchor x="375.808" y="682" name="top"/>
  <outline>
    <contour>
      <point x="572" y="682" type="line"/>
      <point x="236" y="682" type="line"/>
      <point x="151" y="364" type="line" smooth="yes"/>
      <point x="74" y="75"/>
      <point x="62" y="37"/>
      <point x="-1" y="20" type="curve"/>
      <point x="4" y="-6" type="line"/>
      <point x="92" y="17"/>
      <point x="101" y="67"/>
      <point x="181" y="366" type="curve" smooth="yes"/>
      <point x="258" y="653" type="line"/>
      <point x="537" y="653" type="line"/>
      <point x="445" y="0" type="line"/>
      <point x="476" y="0" type="line"/>
    </contour>
  </outline>
</glyph>
<glyph name="Pe-cy" format="2">
  <advance width="657"/>
  <unicode hex="041F"/>
  <anchor x="291.959" y="0" name="bottom"/>
  <anchor x="510" y="0" name="bottomright"/>
  <anchor x="387.808" y="682" name="top"/>
  <outline>
    <contour>
      <point x="596" y="682" type="line"/>
      <point x="179" y="682" type="line"/>
      <point x="83" y="0" type="line"/>
      <point x="114" y="0" type="line"/>
      <point x="206" y="653" type="line"/>
      <point x="561" y="653" type="line"/>
      <point x="469" y="0" type="line"/>
      <point x="500" y="0" type="line"/>
    </contour>
  </outline>
</glyph>
<glyph name="Sha-cy" format="2">
  <advance width="900"/>
  <unicode hex="0428"/>
  <anchor x="413.459" y="0" name="bottom"/>
  <anchor x="753" y="0" name="bottomright"/>
  <anchor x="509.308" y="682" name="top"/>
  <outline>
    <contour>
      <point x="839" y="682" type="line"/>
      <point x="808" y="682" type="line"/>
      <point x="717" y="29" type="line"/>
      <point x="433" y="29" type="line"/>
      <point x="524" y="682" type="line"/>
      <point x="494" y="682" type="line"/>
      <point x="403" y="29" type="line"/>
      <point x="119" y="29" type="line"/>
      <point x="210" y="682" type="line"/>
      <point x="179" y="682" type="line"/>
      <point x="83" y="0" type="line"/>
      <point x="743" y="0" type="line"/>
    </contour>
  </outline>
</glyph>
<glyph name="Hardsign-cy" format="2">
  <advance width="592"/>
  <unicode hex="042A"/>
  <anchor x="279.959" y="0.0" name="bottom"/>
  <anchor x="375.808" y="682.0" name="top"/>
  <outline>
    <contour>
      <point x="226" y="653" type="line"/>
      <point x="251" y="682" type="line"/>
      <point x="59" y="682" type="line"/>
      <point x="55" y="653" type="line"/>
    </contour>
    <component base="Softsign-cy" xOffset="41"/>
  </outline>
</glyph>
<glyph name="Ereversed-cy" format="2">
  <advance width="528"/>
  <unicode hex="042D"/>
  <anchor x="227.459" y="0" name="bottom"/>
  <anchor x="280" y="682" name="top"/>
  <outline>
    <contour>
      <point x="282" y="692" type="curve" smooth="yes"/>
      <point x="211" y="692"/>
      <point x="147" y="670"/>
      <point x="86" y="627" type="curve"/>
      <point x="101" y="605" type="line"/>
      <point x="169" y="648"/>
      <point x="215" y="664"/>
      <point x="281" y="664" type="curve" smooth="yes"/>
      <point x="378" y="664"/>
      <point x="441" y="596"/>
      <point x="441" y="441" type="curve" smooth="yes"/>
      <point x="441" y="288"/>
      <point x="389" y="20"/>
      <point x="180" y="20" type="curve"/>
      <point x="108" y="20"/>
      <point x="69" y="45"/>
      <point x="28" y="83" type="curve"/>
      <point x="7" y="62" type="line"/>
      <point x="47" y="25"/>
      <point x="95" y="-10"/>
      <point x="181" y="-10" type="curve"/>
      <point x="410" y="-10"/>
      <point x="472" y="265"/>
      <point x="472" y="444" type="curve" smooth="yes"/>
      <point x="472" y="617"/>
      <point x="395" y="692"/>
    </contour>
    <contour>
      <point x="443" y="370" type="line"/>
      <point x="146" y="370" type="line"/>
      <point x="142" y="341" type="line"/>
      <point x="439" y="341" type="line"/>
    </contour>
  </outline>
</glyph>
<glyph name="en-cy" format="2">
  <advance width="584"/>
  <unicode hex="043D"/>
  <anchor x="255" y="0" name="bottom"/>
  <anchor x="442" y="0" name="bottomright"/>
  <anchor x="325" y="520" name="top"/>
  <outline>
    <contour>
      <point x="402" y="0" type="line"/>
      <point x="432" y="0" type="line"/>
      <point x="506" y="520" type="line"/>
      <point x="476" y="520" type="line"/>
      <point x="443" y="286" type="line"/>
      <point x="149" y="286" type="line"/>
      <point x="182" y="520" type="line"/>
      <point x="152" y="520" type="line"/>
      <point x="78" y="0" type="line"/>
      <point x="108" y="0" type="line"/>
      <point x="145" y="258" type="line"/>
      <point x="439" y="258" type="line"/>
    </contour>
  </outline>
</glyph>
<glyph name="pe-cy" format="2">
  <advance width="581"/>
  <unicode hex="043F"/>
  <anchor x="253.959" y="0" name="bottom"/>
  <anchor x="439" y="0" name="bottomright"/>
  <anchor x="327.041" y="520" name="top"/>
  <outline>
    <contour>
      <point x="399" y="0" type="line"/>
      <point x="429" y="0" type="line"/>
      <point x="503" y="520" type="line"/>
      <point x="152" y="520" type="line"/>
      <point x="78" y="0" type="line"/>
      <point x="108" y="0" type="line"/>
      <point x="178" y="492" type="line"/>
      <point x="469" y="492" type="line"/>
    </contour>
  </outline>
</glyph>
<glyph name="hardsign-cy" format="2">
  <advance width="535"/>
  <unicode hex="044A"/>
  <anchor x="252.459" y="0.0" name="bottom"/>
  <anchor x="325.541" y="520.0" name="top"/>
  <outline>
    <contour>
      <point x="191" y="492" type="line"/>
      <point x="225" y="520" type="line"/>
      <point x="42" y="520" type="line"/>
      <point x="38" y="492" type="line"/>
    </contour>
    <component base="softsign-cy" xOffset="43"/>
  </outline>
</glyph>
<glyph name="ereversed-cy" format="2">
  <advance width="468"/>
  <unicode hex="044D"/>
  <anchor x="196.959" y="0" name="bottom"/>
  <anchor x="252" y="520" name="top"/>
  <outline>
    <contour>
      <point x="164" y="-10" type="curve" smooth="yes"/>
      <point x="335" y="-10"/>
      <point x="403" y="161"/>
      <point x="403" y="339" type="curve" smooth="yes"/>
      <point x="403" y="457"/>
      <point x="341" y="530"/>
      <point x="239" y="530" type="curve" smooth="yes"/>
      <point x="177" y="530"/>
      <point x="125" y="510"/>
      <point x="77" y="477" type="curve"/>
      <point x="92" y="456" type="line"/>
      <point x="136" y="484"/>
      <point x="181" y="503"/>
      <point x="239" y="503" type="curve" smooth="yes"/>
      <point x="322" y="503"/>
      <point x="372" y="442"/>
      <point x="372" y="336" type="curve" smooth="yes"/>
      <point x="372" y="318"/>
      <point x="371" y="297"/>
      <point x="369" y="276" type="curve"/>
      <point x="368" y="265" type="line"/>
      <point x="347" y="107"/>
      <point x="277" y="18"/>
      <point x="164" y="18" type="curve" smooth="yes"/>
      <point x="101" y="18"/>
      <point x="64" y="41"/>
      <point x="32" y="68" type="curve"/>
      <point x="14" y="48" type="line"/>
      <point x="51" y="16"/>
      <point x="93" y="-10"/>
    </contour>
    <contour>
      <point x="116" y="256" type="line"/>
      <point x="373" y="256" type="line"/>
      <point x="376" y="283" type="line"/>
      <point x="120" y="283" type="line"/>
    </contour>
  </outline>
</glyph>
<glyph name="dje-cy" format="2">
  <advance width="587"/>
  <unicode hex="0452"/>
  <anchor x="256.959" y="0" name="bottom"/>
  <anchor x="360.116" y="734" name="top"/>
  <outline>
    <contour>
      <point x="375" y="530" type="curve" smooth="yes"/>
      <point x="295" y="530"/>
      <point x="218" y="471"/>
      <point x="165" y="368" type="curve"/>
      <point x="201.022" y="625" type="line"/>
      <point x="380" y="625" type="line"/>
      <point x="390" y="652" type="line"/>
      <point x="204.806" y="652" type="line"/>
      <point x="217" y="739" type="line"/>
      <point x="187" y="734" type="line"/>
      <point x="175.381" y="652" type="line"/>
      <point x="103" y="652" type="line"/>
      <point x="99" y="625" type="line"/>
      <point x="171.556" y="625" type="line"/>
      <point x="83" y="0" type="line"/>
      <point x="113" y="0" type="line"/>
      <point x="157" y="310" type="line"/>
      <point x="217" y="424"/>
      <point x="286" y="504"/>
      <point x="372" y="504" type="curve" smooth="yes"/>
      <point x="445" y="504"/>
      <point x="475" y="460"/>
      <point x="462" y="367" type="curve" smooth="yes"/>
      <point x="410" y="3" type="line" smooth="yes"/>
      <point x="394" y="-109"/>
      <point x="359" y="-136"/>
      <point x="287" y="-171" type="curve"/>
      <point x="296" y="-196" type="line"/>
      <point x="382" y="-156"/>
      <point x="423" y="-125"/>
      <point x="441" y="7" type="curve" smooth="yes"/>
      <point x="492" y="369" type="line" smooth="yes"/>
      <point x="507" y="471"/>
      <point x="468" y="530"/>
    </contour>
  </outline>
</glyph>
<glyph name="dzhe-cy" format="2">
  <advance width="577"/>
  <unicode hex="045F"/>
  <anchor x="251" y="0" name="bottom"/>
  <anchor x="435" y="0" name="bottomright"/>
  <anchor x="435" y="0" name="ogonek"/>
  <anchor x="323" y="520" name="top"/>
  <anchor x="509" y="520" name="topright"/>
  <outline>
    <contour>
      <point x="198" y="13" type="line"/>
      <point x="187" y="-141" type="line"/>
      <point x="210" y="-141" type="line"/>
      <point x="230" y="8" type="line"/>
    </contour>
    <component base="u"/>
  </outline>
</glyph>
<glyph name="Eiotified-cy" format="2">
  <advance width="743"/>
  <unicode hex="0464"/>
  <anchor x="334.959" y="0" name="bottom"/>
  <anchor x="430.808" y="682" name="top"/>
  <outline>
    <contour>
      <point x="210" y="682" type="line"/>
      <point x="179" y="682" type="line"/>
      <point x="83" y="0" type="line"/>
      <point x="114" y="0" type="line"/>
      <point x="162" y="341" type="line"/>
      <point x="290" y="341" type="line"/>
      <point x="294" y="370" type="line"/>
      <point x="166" y="370" type="line"/>
    </contour>
    <component base="E-cy" xOffset="191"/>
  </outline>
</glyph>
<glyph name="eiotified-cy" format="2">
  <advance width="678"/>
  <unicode hex="0465"/>
  <anchor x="302.459" y="0" name="bottom"/>
  <anchor x="375.541" y="520" name="top"/>
  <outline>
    <contour>
      <point x="182" y="520" type="line"/>
      <point x="152" y="520" type="line"/>
      <point x="78" y="0" type="line"/>
      <point x="108" y="0" type="line"/>
      <point x="145" y="255" type="line"/>
      <point x="303" y="255" type="line"/>
      <point x="304" y="283" type="line"/>
      <point x="149" y="283" type="line"/>
    </contour>
    <component base="e-cy" xOffset="206"/>
  </outline>
</glyph>
<glyph name="Yuslittle-cy" format="2">
  <advance width="566"/>
  <unicode hex="0466"/>
  <anchor x="246.459" y="0" name="bottom"/>
  <anchor x="342.308" y="682" name="top"/>
  <outline>
    <contour>
      <point x="361" y="682" type="line"/>
      <point x="323" y="682" type="line"/>
      <point x="-12" y="0" type="line"/>
      <point x="19" y="0" type="line"/>
      <point x="339" y="657" type="line"/>
      <point x="471" y="0" type="line"/>
      <point x="504" y="0" type="line"/>
    </contour>
    <contour>
      <point x="412" y="362" type="line"/>
      <point x="181" y="362" type="line"/>
      <point x="166" y="333" type="line"/>
      <point x="418" y="333" type="line"/>
    </contour>
    <contour>
      <point x="306" y="344" type="line"/>
      <point x="277" y="344" type="line"/>
      <point x="227" y="0" type="line"/>
      <point x="257" y="0" type="line"/>
    </contour>
  </outline>
</glyph>
<glyph name="yuslittle-cy" format="2">
  <advance width="482"/>
  <unicode hex="0467"/>
  <anchor x="204.459" y="0" name="bottom"/>
  <anchor x="277.541" y="520" name="top"/>
  <outline>
    <contour>
      <point x="296" y="520" type="line"/>
      <point x="260" y="520" type="line"/>
      <point x="-17" y="0" type="line"/>
      <point x="14" y="0" type="line"/>
      <point x="275" y="494" type="line"/>
      <point x="394" y="0" type="line"/>
      <point x="425" y="0" type="line"/>
    </contour>
    <contour>
      <point x="356" y="275" type="line"/>
      <point x="131" y="275" type="line"/>
      <point x="127" y="247" type="line"/>
      <point x="352" y="247" type="line"/>
    </contour>
    <contour>
      <point x="226" y="257" type="line"/>
      <point x="189" y="0" type="line"/>
      <point x="217" y="0" type="line"/>
      <point x="254" y="257" type="line"/>
    </contour>
  </outline>
</glyph>
<glyph name="Yuslittleiotified-cy" format="2">
  <advance width="740"/>
  <unicode hex="0468"/>
  <anchor x="333.459" y="0" name="bottom"/>
  <anchor x="429.308" y="682" name="top"/>
  <outline>
    <contour>
      <point x="345" y="333" type="line"/>
      <point x="349" y="362" type="line"/>
      <point x="165" y="362" type="line"/>
      <point x="210" y="682" type="line"/>
      <point x="179" y="682" type="line"/>
      <point x="83" y="0" type="line"/>
      <point x="114" y="0" type="line"/>
      <point x="161" y="333" type="line"/>
    </contour>
    <component base="Yuslittle-cy" xOffset="174"/>
  </outline>
</glyph>
<glyph name="Izhitsa-cy" format="2">
  <advance width="571"/>
  <unicode hex="0474"/>
  <anchor x="248.959" y="0" name="bottom"/>
  <anchor x="327" y="682" name="top"/>
  <outline>
    <contour>
      <point x="212" y="0" type="line"/>
      <point x="251" y="0" type="line"/>
      <point x="526" y="607" type="line" smooth="yes"/>
      <point x="546" y="651"/>
      <point x="568" y="665"/>
      <point x="599" y="665" type="curve" smooth="yes"/>
      <point x="627" y="665"/>
      <point x="648" y="651"/>
      <point x="668" y="632" type="curve"/>
      <point x="686" y="650" type="line"/>
      <point x="665" y="672"/>
      <point x="636" y="692"/>
      <point x="599" y="692" type="curve" smooth="yes"/>
      <point x="558" y="692"/>
      <point x="525" y="675"/>
      <point x="499" y="617" type="curve" smooth="yes"/>
      <point x="235" y="29" type="line"/>
      <point x="116" y="682" type="line"/>
      <point x="84" y="682" type="line"/>
    </contour>
  </outline>
</glyph>
<glyph name="Gheupturn-cy" format="2">
  <advance width="508"/>
  <unicode hex="0490"/>
  <anchor x="217.459" y="0.0" name="bottom"/>
  <anchor x="124" y="0" name="bottomright"/>
  <anchor x="388" y="682" name="top"/>
  <outline>
    <contour>
      <point x="526" y="671" type="line"/>
      <point x="557" y="682" type="line"/>
      <point x="572" y="790" type="line"/>
      <point x="542" y="790" type="line"/>
    </contour>
    <component base="Ge-cy"/>
  </outline>
</glyph>
<glyph name="gheupturn-cy" format="2">
  <advance width="450"/>
  <unicode hex="0491"/>
  <anchor x="118" y="0" name="bottomright"/>
  <outline>
    <contour>
      <point x="414" y="510" type="line"/>
      <point x="445" y="520" type="line"/>
      <point x="460" y="629" type="line"/>
      <point x="431" y="629" type="line"/>
    </contour>
    <contour>
      <point x="108" y="0" type="line"/>
      <point x="178" y="492" type="line"/>
      <point x="437" y="492" type="line"/>
      <point x="445" y="520" type="line"/>
      <point x="152" y="520" type="line"/>
      <point x="78" y="0" type="line"/>
    </contour>
  </outline>
</glyph>
<glyph name="Ghestroke-cy" format="2">
  <advance width="510"/>
  <unicode hex="0492"/>
  <anchor x="219.459" y="0.0" name="bottom"/>
  <anchor x="125" y="0" name="bottomright"/>
  <anchor x="390" y="682" name="top"/>
  <outline>
    <contour>
      <point x="347" y="392" type="line"/>
      <point x="44" y="392" type="line"/>
      <point x="40" y="364" type="line"/>
      <point x="138" y="364" type="line"/>
      <point x="343" y="364" type="line"/>
    </contour>
    <component base="Ge-cy" xOffset="2"/>
  </outline>
</glyph>
<glyph name="Ghemiddlehook-cy" format="2">
  <advance width="585"/>
  <unicode hex="0494"/>
  <anchor x="351.808" y="682" name="top"/>
  <outline>
    <contour>
      <point x="462" y="682" type="line"/>
      <point x="190" y="682" type="line"/>
      <point x="190" y="653" type="line"/>
      <point x="456" y="653" type="line"/>
    </contour>
    <contour>
      <point x="365" y="424" type="curve" smooth="yes"/>
      <point x="278" y="424"/>
      <point x="213" y="388"/>
      <point x="154" y="328" type="curve"/>
      <point x="150" y="286" type="line"/>
      <point x="217" y="359"/>
      <point x="282" y="395"/>
      <point x="364" y="395" type="curve" smooth="yes"/>
      <point x="473" y="395"/>
      <point x="508" y="333"/>
      <point x="495" y="242" type="curve" smooth="yes"/>
      <point x="461" y="0" type="line"/>
      <point x="492" y="0" type="line"/>
      <point x="526" y="242" type="line" smooth="yes"/>
      <point x="542" y="353"/>
      <point x="490" y="424"/>
    </contour>
    <contour>
      <point x="210" y="682" type="line"/>
      <point x="179" y="682" type="line"/>
      <point x="83" y="0" type="line"/>
      <point x="114" y="0" type="line"/>
    </contour>
    <component base="hookHELPER.case" xOffset="295"/>
  </outline>
</glyph>
<glyph name="Kaverticalstroke-cy" format="2">
  <advance width="547"/>
  <unicode hex="049C"/>
  <anchor x="234.459" y="0" name="bottom"/>
  <anchor x="330.308" y="682" name="top"/>
  <outline>
    <contour>
      <point x="557" y="692" type="line"/>
      <point x="513" y="677"/>
      <point x="494" y="668"/>
      <point x="441" y="593" type="curve" smooth="yes"/>
      <point x="287" y="374" type="line"/>
      <point x="252.95" y="374" type="line"/>
      <point x="279" y="561" type="line"/>
      <point x="251" y="561" type="line"/>
      <point x="224.95" y="374" type="line"/>
      <point x="167" y="374" type="line"/>
      <point x="210" y="682" type="line"/>
      <point x="179" y="682" type="line"/>
      <point x="83" y="0" type="line"/>
      <point x="114" y="0" type="line"/>
      <point x="163" y="346" type="line"/>
      <point x="221.05" y="346" type="line"/>
      <point x="195" y="159" type="line"/>
      <point x="223" y="159" type="line"/>
      <point x="249.05" y="346" type="line"/>
      <point x="287" y="346" type="line"/>
      <point x="458" y="0" type="line"/>
      <point x="490" y="0" type="line"/>
      <point x="312" y="362" type="line"/>
      <point x="461" y="575" type="line" smooth="yes"/>
      <point x="513" y="649"/>
      <point x="528" y="657"/>
      <point x="566" y="669" type="curve"/>
    </contour>
  </outline>
</glyph>
<glyph name="Kastroke-cy" format="2">
  <advance width="539"/>
  <unicode hex="049E"/>
  <anchor x="231.459" y="0.0" name="bottom"/>
  <anchor x="477" y="0" name="bottomright"/>
  <anchor x="365" y="682" name="top"/>
  <outline>
    <contour>
      <point x="316" y="586" type="line"/>
      <point x="162" y="586" type="line"/>
      <point x="71" y="586" type="line"/>
      <point x="67" y="558" type="line"/>
      <point x="312" y="558" type="line"/>
    </contour>
    <component base="Ka-cy" xOffset="-3"/>
  </outline>
</glyph>
<glyph name="Kabashkir-cy" format="2">
  <advance width="573"/>
  <unicode hex="04A0"/>
  <anchor x="265.459" y="0.0" name="bottom"/>
  <anchor x="511" y="0" name="bottomright"/>
  <anchor x="399" y="682" name="top"/>
  <outline>
    <contour>
      <point x="241" y="682" type="line"/>
      <point x="59" y="682" type="line"/>
      <point x="55" y="654" type="line"/>
      <point x="226" y="654" type="line"/>
    </contour>
    <component base="Ka-cy" xOffset="31"/>
  </outline>
</glyph>
<glyph name="kabashkir-cy" format="2">
  <advance width="550"/>
  <unicode hex="04A1"/>
  <anchor x="259.959" y="0.0" name="bottom"/>
  <anchor x="456" y="0" name="bottomright"/>
  <anchor x="321" y="520" name="top"/>
  <outline>
    <contour>
      <point x="191" y="492" type="line"/>
      <point x="225" y="520" type="line"/>
      <point x="42" y="520" type="line"/>
      <point x="38" y="492" type="line"/>
    </contour>
    <component base="ka-cy" xOffset="43"/>
  </outline>
</glyph>
<glyph name="Enghe-cy" format="2">
  <advance width="688"/>
  <unicode hex="04A4"/>
  <anchor x="289" y="0" name="bottom"/>
  <anchor x="515" y="0" name="bottomright"/>
  <anchor x="340" y="341" name="center"/>
  <anchor x="388" y="682" name="top"/>
  <anchor x="149" y="682" name="topleft"/>
  <outline>
    <contour>
      <point x="570" y="682" type="line"/>
      <point x="582" y="654" type="line"/>
      <point x="743" y="654" type="line"/>
      <point x="746" y="682" type="line"/>
    </contour>
    <component base="H"/>
  </outline>
</glyph>
<glyph name="enghe-cy" format="2">
  <advance width="592"/>
  <unicode hex="04A5"/>
  <anchor x="255" y="0" name="bottom"/>
  <anchor x="442" y="0" name="bottomright"/>
  <anchor x="325" y="520" name="top"/>
  <outline>
    <contour>
      <point x="486" y="492" type="line"/>
      <point x="620" y="492" type="line"/>
      <point x="623" y="520" type="line"/>
      <point x="486" y="520" type="line"/>
    </contour>
    <component base="en-cy"/>
  </outline>
</glyph>
<glyph name="Pemiddlehook-cy" format="2">
  <advance width="966"/>
  <unicode hex="04A6"/>
  <anchor x="291.959" y="0.0" name="bottom"/>
  <anchor x="510" y="0" name="bottomright"/>
  <anchor x="542.308" y="682" name="top"/>
  <outline>
    <contour>
      <point x="747" y="424" type="curve" smooth="yes"/>
      <point x="660" y="424"/>
      <point x="595" y="388"/>
      <point x="536" y="328" type="curve"/>
      <point x="532" y="286" type="line"/>
      <point x="599" y="359"/>
      <point x="664" y="395"/>
      <point x="746" y="395" type="curve" smooth="yes"/>
      <point x="855" y="395"/>
      <point x="890" y="333"/>
      <point x="877" y="242" type="curve" smooth="yes"/>
      <point x="843" y="0" type="line"/>
      <point x="874" y="0" type="line"/>
      <point x="908" y="242" type="line" smooth="yes"/>
      <point x="924" y="353"/>
      <point x="872" y="424"/>
    </contour>
    <component base="Pe-cy"/>
    <component base="hookHELPER.case" xOffset="676"/>
  </outline>
</glyph>
<glyph name="pemiddlehook-cy" format="2">
  <advance width="852"/>
  <unicode hex="04A7"/>
  <anchor x="253.959" y="0.0" name="bottom"/>
  <anchor x="439" y="0" name="bottomright"/>
  <anchor x="462.541" y="520" name="top"/>
  <outline>
    <contour>
      <point x="720" y="0" type="line"/>
      <point x="750" y="0" type="line"/>
      <point x="776" y="179" type="line" smooth="yes"/>
      <point x="790" y="281"/>
      <point x="751" y="340"/>
      <point x="656" y="340" type="curve" smooth="yes"/>
      <point x="574" y="340"/>
      <point x="505" y="291"/>
      <point x="447" y="230" type="curve"/>
      <point x="453" y="202" type="line"/>
      <point x="513" y="262"/>
      <point x="575" y="313"/>
      <point x="655" y="313" type="curve" smooth="yes"/>
      <point x="728" y="313"/>
      <point x="758" y="270"/>
      <point x="745" y="177" type="curve" smooth="yes"/>
    </contour>
    <component base="pe-cy"/>
    <component base="hookHELPER" xOffset="552"/>
  </outline>
</glyph>
<glyph name="ustrait-cy" format="2">
  <advance width="452"/>
  <unicode hex="04AF"/>
  <anchor x="262.541" y="520" name="top"/>
  <outline>
    <contour>
      <point x="469" y="520" type="line"/>
      <point x="436" y="520" type="line"/>
      <point x="200" y="53" type="line"/>
      <point x="91" y="520" type="line"/>
      <point x="57" y="520" type="line"/>
      <point x="182" y="19" type="line"/>
      <point x="151" y="-199" type="line"/>
      <point x="181" y="-193" type="line"/>
      <point x="211" y="19" type="line"/>
    </contour>
  </outline>
</glyph>
<glyph name="Ustraitstroke-cy" format="2">
  <advance width="500"/>
  <unicode hex="04B0"/>
  <anchor x="215" y="0" name="bottom"/>
  <anchor x="305" y="682" name="top"/>
  <anchor x="73" y="682" name="topleft"/>
  <outline>
    <contour>
      <point x="393" y="288" type="line"/>
      <point x="240" y="288" type="line"/>
      <point x="118" y="288" type="line"/>
      <point x="114" y="259" type="line"/>
      <point x="267" y="259" type="line"/>
      <point x="389" y="259" type="line"/>
    </contour>
    <component base="Y"/>
  </outline>
</glyph>
<glyph name="Tetse-cy" format="2">
  <advance width="785"/>
  <unicode hex="04B4"/>
  <anchor x="393" y="0" name="bottom"/>
  <anchor x="610" y="0" name="bottomright"/>
  <anchor x="451.808" y="682" name="top"/>
  <outline>
    <contour>
      <point x="522" y="682" type="line"/>
      <point x="75" y="682" type="line"/>
      <point x="70" y="652" type="line"/>
      <point x="278" y="652" type="line"/>
      <point x="309" y="652" type="line"/>
      <point x="513" y="652" type="line"/>
    </contour>
    <component base="Tse-cy" xOffset="103"/>
  </outline>
</glyph>
<glyph name="tetse-cy" format="2">
  <advance width="622"/>
  <unicode hex="04B5"/>
  <anchor x="509" y="0" name="_bottom"/>
  <anchor x="296" y="0" name="bottom"/>
  <anchor x="480" y="0" name="bottomright"/>
  <anchor x="480" y="0" name="ogonek"/>
  <anchor x="347.541" y="520" name="top"/>
  <anchor x="554" y="520" name="topright"/>
  <outline>
    <contour>
      <point x="405" y="520" type="line"/>
      <point x="29" y="520" type="line"/>
      <point x="25" y="492" type="line"/>
      <point x="188" y="492" type="line"/>
      <point x="218" y="492" type="line"/>
      <point x="396" y="492" type="line"/>
    </contour>
    <component base="tse-cy" xOffset="45"/>
  </outline>
</glyph>
<glyph name="Cheverticalstroke-cy" format="2">
  <advance width="579"/>
  <unicode hex="04B8"/>
  <anchor x="252.959" y="0.0" name="bottom"/>
  <anchor x="371" y="0" name="bottomleft"/>
  <anchor x="432" y="0" name="bottomright"/>
  <anchor x="314" y="682" name="top"/>
  <outline>
    <contour>
      <point x="306" y="517" type="line"/>
      <point x="276" y="517" type="line"/>
      <point x="220" y="115" type="line"/>
      <point x="250" y="115" type="line"/>
    </contour>
    <component base="Che-cy"/>
  </outline>
</glyph>
<glyph name="cheverticalstroke-cy" format="2">
  <advance width="531"/>
  <unicode hex="04B9"/>
  <anchor x="228.959" y="0.0" name="bottom"/>
  <anchor x="338" y="0" name="bottomleft"/>
  <anchor x="389" y="0" name="bottomright"/>
  <anchor x="278" y="520" name="top"/>
  <outline>
    <contour>
      <point x="261" y="375" type="line"/>
      <point x="233" y="375" type="line"/>
      <point x="194" y="96" type="line"/>
      <point x="222" y="96" type="line"/>
    </contour>
    <component base="che-cy"/>
  </outline>
</glyph>
<glyph name="Shha-cy" format="2">
  <advance width="584"/>
  <unicode hex="04BA"/>
  <anchor x="255.459" y="0" name="bottom"/>
  <anchor x="502" y="0" name="bottomright"/>
  <anchor x="351.308" y="682" name="top"/>
  <outline>
    <contour>
      <point x="365" y="424" type="curve" smooth="yes"/>
      <point x="278" y="424"/>
      <point x="213" y="388"/>
      <point x="154" y="328" type="curve"/>
      <point x="150" y="286" type="line"/>
      <point x="217" y="359"/>
      <point x="282" y="395"/>
      <point x="364" y="395" type="curve" smooth="yes"/>
      <point x="473" y="395"/>
      <point x="508" y="333"/>
      <point x="495" y="242" type="curve" smooth="yes"/>
      <point x="461" y="0" type="line"/>
      <point x="492" y="0" type="line"/>
      <point x="526" y="242" type="line" smooth="yes"/>
      <point x="542" y="353"/>
      <point x="490" y="424"/>
    </contour>
    <contour>
      <point x="210" y="682" type="line"/>
      <point x="179" y="682" type="line"/>
      <point x="83" y="0" type="line"/>
      <point x="114" y="0" type="line"/>
    </contour>
  </outline>
</glyph>
<glyph name="kahook-cy" format="2">
  <advance width="501"/>
  <unicode hex="04C4"/>
  <anchor x="287.041" y="520" name="top"/>
  <outline>
    <contour>
      <point x="465" y="505" type="curve"/>
      <point x="455" y="530" type="line"/>
      <point x="400" y="517"/>
      <point x="359" y="452"/>
      <point x="333" y="414" type="curve" smooth="yes"/>
      <point x="244" y="285" type="line"/>
      <point x="149" y="285" type="line"/>
      <point x="182" y="520" type="line"/>
      <point x="152" y="520" type="line"/>
      <point x="78" y="0" type="line"/>
      <point x="108" y="0" type="line"/>
      <point x="145" y="259" type="line"/>
      <point x="260" y="259" type="line"/>
      <point x="268" y="274" type="line"/>
      <point x="357" y="401" type="line" smooth="yes"/>
      <point x="376" y="429"/>
      <point x="414" y="492"/>
    </contour>
    <contour>
      <point x="252" y="286" type="curve"/>
      <point x="249" y="259" type="line"/>
      <point x="373" y="259"/>
      <point x="385" y="206"/>
      <point x="374" y="126" type="curve" smooth="yes"/>
      <point x="356" y="0" type="line"/>
      <point x="386" y="0" type="line"/>
      <point x="404" y="125" type="line" smooth="yes"/>
      <point x="418" y="227"/>
      <point x="386" y="286"/>
    </contour>
    <component base="hookHELPER" xOffset="188"/>
  </outline>
</glyph>
<glyph name="chekhakassian-cy" format="2">
  <advance width="531"/>
  <unicode hex="04CC"/>
  <anchor x="228.959" y="0" name="bottom"/>
  <anchor x="338" y="0" name="bottomleft"/>
  <anchor x="389" y="0" name="bottomright"/>
  <anchor x="302.041" y="520" name="top"/>
  <outline>
    <contour>
      <point x="453" y="520" type="line"/>
      <point x="423" y="520" type="line"/>
      <point x="393.596" y="313.378" type="line"/>
      <point x="344.345" y="246.147"/>
      <point x="278" y="211"/>
      <point x="211" y="211" type="curve" smooth="yes"/>
      <point x="132" y="211"/>
      <point x="93" y="247"/>
      <point x="105" y="333" type="curve" smooth="yes"/>
      <point x="132" y="520" type="line"/>
      <point x="102" y="520" type="line"/>
      <point x="75" y="331" type="line" smooth="yes"/>
      <point x="60" y="227"/>
      <point x="124" y="183"/>
      <point x="206" y="183" type="curve" smooth="yes"/>
      <point x="275" y="183"/>
      <point x="337.847" y="212.969"/>
      <point x="387.733" y="272.177" type="curve"/>
      <point x="349" y="0" type="line"/>
      <point x="379" y="0" type="line"/>
    </contour>
    <contour>
      <point x="252" y="-141" type="line"/>
      <point x="274" y="-141" type="line"/>
      <point x="312" y="0" type="line"/>
      <point x="355" y="0" type="line"/>
      <point x="370" y="28" type="line"/>
      <point x="281" y="28" type="line"/>
    </contour>
  </outline>
</glyph>
<glyph name="obarred-cy" format="2">
  <advance width="561"/>
  <unicode hex="04E9"/>
  <anchor x="241" y="0" name="bottom"/>
  <anchor x="318" y="520" name="top"/>
  <outline>
    <contour>
      <point x="317" y="530" type="curve" smooth="yes"/>
      <point x="128" y="530"/>
      <point x="65" y="331"/>
      <point x="65" y="197" type="curve" smooth="yes"/>
      <point x="65" y="66"/>
      <point x="131" y="-10"/>
      <point x="244" y="-10" type="curve" smooth="yes"/>
      <point x="436" y="-10"/>
      <point x="496" y="196"/>
      <point x="496" y="327" type="curve" smooth="yes"/>
      <point x="496" y="459"/>
      <point x="429" y="530"/>
    </contour>
    <contour>
      <point x="317" y="503" type="curve" smooth="yes"/>
      <point x="412" y="503"/>
      <point x="465" y="441"/>
      <point x="465" y="326" type="curve" smooth="yes"/>
      <point x="465" y="310.829"/>
      <point x="464.165" y="294.669"/>
      <point x="462.381" y="278" type="curve"/>
      <point x="103.642" y="278" type="line"/>
      <point x="123.214" y="384.876"/>
      <point x="183.31" y="503"/>
    </contour>
    <contour>
      <point x="244" y="18" type="curve" smooth="yes"/>
      <point x="150" y="18"/>
      <point x="96" y="81"/>
      <point x="96" y="196" type="curve" smooth="yes"/>
      <point x="96" y="212.709"/>
      <point x="97.058" y="230.974"/>
      <point x="99.378" y="250" type="curve"/>
      <point x="458.54" y="250" type="line"/>
      <point x="439.944" y="139.127"/>
      <point x="378.766" y="18"/>
    </contour>
  </outline>
</glyph>
<glyph name="gedescender-cy" format="2">
  <advance width="461"/>
  <unicode hex="04F7"/>
  <anchor x="193.959" y="0.0" name="bottom"/>
  <anchor x="272" y="520" name="top"/>
  <outline>
    <contour>
      <point x="188" y="13" type="line"/>
      <point x="177" y="-141" type="line"/>
      <point x="200" y="-141" type="line"/>
      <point x="220" y="8" type="line"/>
    </contour>
    <component base="ge-cy"/>
  </outline>
</glyph>
<glyph name="Gestrokehook-cy" format="2">
  <advance width="510"/>
  <unicode hex="04FA"/>
  <anchor x="219.459" y="0.0" name="bottom"/>
  <anchor x="125" y="0" name="bottomright"/>
  <anchor x="390" y="682" name="top"/>
  <outline>
    <contour>
      <point x="99" y="29" type="line"/>
      <point x="95" y="0" type="line"/>
      <point x="177" y="0" type="line"/>
      <point x="181" y="29" type="line"/>
    </contour>
    <component base="Ghestroke-cy"/>
    <component base="hookHELPER.case" xOffset="-21"/>
  </outline>
</glyph>
<glyph name="Hahook-cy" format="2">
  <advance width="507"/>
  <unicode hex="04FC"/>
  <anchor x="207.959" y="0.0" name="bottom"/>
  <anchor x="416" y="0" name="bottomright"/>
  <anchor x="303.808" y="682.0" name="top"/>
  <outline>
    <contour>
      <point x="474" y="29" type="line"/>
      <point x="423" y="29" type="line"/>
      <point x="418" y="0" type="line"/>
      <point x="470" y="0" type="line"/>
    </contour>
    <component base="hookHELPER.case" xOffset="272"/>
    <component base="X"/>
  </outline>
</glyph>
<glyph name="hahook-cy" format="2">
  <advance width="469"/>
  <unicode hex="04FD"/>
  <anchor x="182" y="0" name="bottom"/>
  <anchor x="375" y="0" name="bottomright"/>
  <anchor x="271.041" y="520" name="top"/>
  <outline>
    <contour>
      <point x="361" y="28" type="line"/>
      <point x="357" y="0" type="line"/>
      <point x="427" y="0" type="line"/>
      <point x="430" y="28" type="line"/>
    </contour>
    <component base="hookHELPER" xOffset="229"/>
    <component base="x"/>
  </outline>
</glyph>
<glyph name="Hastroke-cy" format="2">
  <advance width="489"/>
  <unicode hex="04FE"/>
  <anchor x="207.959" y="0" name="bottom"/>
  <anchor x="416" y="0" name="bottomright"/>
  <anchor x="303.808" y="682" name="top"/>
  <outline>
    <contour>
      <point x="130" y="682" type="line"/>
      <point x="96" y="682" type="line"/>
      <point x="241" y="372" type="line"/>
      <point x="255" y="353" type="line"/>
      <point x="408" y="0" type="line"/>
      <point x="441" y="0" type="line"/>
      <point x="275" y="372" type="line"/>
      <point x="260" y="388" type="line"/>
    </contour>
    <contour>
      <point x="505" y="682" type="line"/>
      <point x="470" y="682" type="line"/>
      <point x="260" y="388" type="line"/>
      <point x="239" y="372" type="line"/>
      <point x="-22" y="0" type="line"/>
      <point x="12" y="0" type="line"/>
      <point x="255" y="353" type="line"/>
      <point x="277" y="372" type="line"/>
    </contour>
    <component base="hyphen" xScale="1.5" xOffset="-53" yOffset="58"/>
  </outline>
</glyph>
<glyph name="hastroke-cy" format="2">
  <advance width="437"/>
  <unicode hex="04FF"/>
  <anchor x="181.959" y="0" name="bottom"/>
  <anchor x="375" y="0" name="bottomright"/>
  <anchor x="255.041" y="520" name="top"/>
  <outline>
    <contour>
      <point x="110" y="520" type="line"/>
      <point x="77" y="520" type="line"/>
      <point x="202" y="280" type="line"/>
      <point x="218" y="262" type="line"/>
      <point x="351" y="0" type="line"/>
      <point x="385" y="0" type="line"/>
      <point x="239" y="277" type="line"/>
      <point x="223" y="295" type="line"/>
    </contour>
    <contour>
      <point x="434" y="520" type="line"/>
      <point x="399" y="520" type="line"/>
      <point x="223" y="295" type="line"/>
      <point x="202" y="280" type="line"/>
      <point x="-22" y="0" type="line"/>
      <point x="13" y="0" type="line"/>
      <point x="218" y="262" type="line"/>
      <point x="239" y="277" type="line"/>
    </contour>
    <component base="hyphen" xScale="1.3" yScale="0.95" xOffset="-48" yOffset="-19"/>
  </outline>
</glyph>
<glyph name="Komilje-cy" format="2">
  <advance width="911"/>
  <unicode hex="0508"/>
  <anchor x="418.959" y="0" name="bottom"/>
  <anchor x="514.808" y="682" name="top"/>
  <outline>
    <contour>
      <point x="603" y="-10" type="curve" smooth="yes"/>
      <point x="763" y="-10"/>
      <point x="838" y="148"/>
      <point x="849" y="379" type="curve"/>
      <point x="818" y="379" type="line"/>
      <point x="810" y="172"/>
      <point x="744" y="18"/>
      <point x="604" y="18" type="curve" smooth="yes"/>
      <point x="518" y="18"/>
      <point x="485" y="77"/>
      <point x="497" y="161" type="curve" smooth="yes"/>
      <point x="569" y="682" type="line"/>
      <point x="233" y="682" type="line"/>
      <point x="245" y="653" type="line"/>
      <point x="534" y="653" type="line"/>
      <point x="466" y="163" type="line" smooth="yes"/>
      <point x="451" y="57"/>
      <point x="505" y="-10"/>
    </contour>
    <contour>
      <point x="7" y="-6" type="line"/>
      <point x="95" y="24"/>
      <point x="102" y="74"/>
      <point x="159" y="287" type="curve" smooth="yes"/>
      <point x="258" y="657" type="line"/>
      <point x="233" y="682" type="line"/>
      <point x="128" y="291" type="line" smooth="yes"/>
      <point x="73" y="85"/>
      <point x="65" y="43"/>
      <point x="-1" y="20" type="curve"/>
    </contour>
  </outline>
</glyph>
<glyph name="Komitje-cy" format="2">
  <advance width="654"/>
  <unicode hex="050E"/>
  <anchor x="290.459" y="0" name="bottom"/>
  <anchor x="386.308" y="682" name="top"/>
  <outline>
    <contour>
      <point x="347" y="-10" type="curve" smooth="yes"/>
      <point x="507" y="-10"/>
      <point x="582" y="148"/>
      <point x="593" y="379" type="curve"/>
      <point x="562" y="379" type="line"/>
      <point x="554" y="172"/>
      <point x="488" y="18"/>
      <point x="348" y="18" type="curve" smooth="yes"/>
      <point x="262" y="18"/>
      <point x="229" y="77"/>
      <point x="241" y="161" type="curve" smooth="yes"/>
      <point x="309" y="652" type="line"/>
      <point x="517" y="652" type="line"/>
      <point x="526" y="682" type="line"/>
      <point x="74" y="682" type="line"/>
      <point x="70" y="652" type="line"/>
      <point x="278" y="652" type="line"/>
      <point x="210" y="163" type="line" smooth="yes"/>
      <point x="195" y="57"/>
      <point x="249" y="-10"/>
    </contour>
  </outline>
</glyph>
<glyph name="Lha-cy" format="2">
  <advance width="769"/>
  <unicode hex="0514"/>
  <anchor x="347.959" y="0" name="bottom"/>
  <anchor x="696" y="0" name="bottomright"/>
  <anchor x="443.808" y="682" name="top"/>
  <outline>
    <contour>
      <point x="213" y="682" type="line"/>
      <point x="128" y="291" type="line" smooth="yes"/>
      <point x="83" y="84"/>
      <point x="65" y="43"/>
      <point x="-1" y="20" type="curve"/>
      <point x="7" y="-6" type="line"/>
      <point x="95" y="24"/>
      <point x="113" y="74"/>
      <point x="159" y="287" type="curve" smooth="yes"/>
      <point x="238" y="657" type="line"/>
    </contour>
    <contour>
      <point x="408" y="682" type="line"/>
      <point x="213" y="682" type="line"/>
      <point x="225" y="654" type="line"/>
      <point x="408" y="654" type="line"/>
    </contour>
    <component base="X" xOffset="280"/>
  </outline>
</glyph>
<glyph name="lha-cy" format="2">
  <advance width="655"/>
  <unicode hex="0515"/>
  <anchor x="290.959" y="0" name="bottom"/>
  <anchor x="593" y="0" name="bottomright"/>
  <anchor x="364.041" y="520" name="top"/>
  <outline>
    <contour>
      <point x="178" y="520" type="line"/>
      <point x="193" y="493" type="line"/>
      <point x="316" y="493" type="line"/>
      <point x="316" y="520" type="line"/>
    </contour>
    <contour>
      <point x="203" y="495" type="line"/>
      <point x="178" y="520" type="line"/>
      <point x="140" y="287" type="line" smooth="yes"/>
      <point x="106" y="80"/>
      <point x="83" y="41"/>
      <point x="17" y="19" type="curve"/>
      <point x="25" y="-6" type="line"/>
      <point x="114" y="23"/>
      <point x="135" y="70"/>
      <point x="169" y="283" type="curve" smooth="yes"/>
    </contour>
    <component base="x" xOffset="218"/>
  </outline>
</glyph>
<glyph name="Aleutka-cy" format="2">
  <advance width="550"/>
  <unicode hex="051E"/>
  <anchor x="234.459" y="0.0" name="bottom"/>
  <anchor x="480" y="0" name="bottomright"/>
  <anchor x="368" y="682" name="top"/>
  <outline>
    <contour>
      <point x="295" y="607" type="line"/>
      <point x="559" y="474" type="line"/>
      <point x="571" y="496" type="line"/>
      <point x="307" y="629" type="line"/>
    </contour>
    <component base="Ka-cy"/>
  </outline>
</glyph>
<glyph name="aleutka-cy" format="2">
  <advance width="507"/>
  <unicode hex="051F"/>
  <anchor x="216.959" y="0" name="bottom"/>
  <anchor x="413" y="0" name="bottomright"/>
  <anchor x="290.041" y="520" name="top"/>
  <outline>
    <contour>
      <point x="230" y="461" type="line"/>
      <point x="456" y="329" type="line"/>
      <point x="468" y="349" type="line"/>
      <point x="242" y="481" type="line"/>
    </contour>
    <component base="ka-cy"/>
  </outline>
</glyph>
<glyph name="Elmiddlehook-cy" format="2">
  <advance width="949"/>
  <unicode hex="0520"/>
  <anchor x="279.959" y="0.0" name="bottom"/>
  <anchor x="487" y="0" name="bottomright"/>
  <anchor x="533.808" y="682" name="top"/>
  <outline>
    <contour>
      <point x="730" y="424" type="curve" smooth="yes"/>
      <point x="643" y="424"/>
      <point x="578" y="388"/>
      <point x="519" y="328" type="curve"/>
      <point x="515" y="286" type="line"/>
      <point x="582" y="359"/>
      <point x="647" y="395"/>
      <point x="729" y="395" type="curve" smooth="yes"/>
      <point x="838" y="395"/>
      <point x="873" y="333"/>
      <point x="860" y="242" type="curve" smooth="yes"/>
      <point x="826" y="0" type="line"/>
      <point x="857" y="0" type="line"/>
      <point x="891" y="242" type="line" smooth="yes"/>
      <point x="907" y="353"/>
      <point x="855" y="424"/>
    </contour>
    <component base="El-cy"/>
    <component base="hookHELPER.case" xOffset="659"/>
  </outline>
</glyph>
<glyph name="enmiddlehook-cy" format="2">
  <advance width="859"/>
  <unicode hex="0523"/>
  <anchor x="255" y="0" name="bottom"/>
  <anchor x="442" y="0" name="bottomright"/>
  <anchor x="466.041" y="520" name="top"/>
  <outline>
    <contour>
      <point x="727" y="0" type="line"/>
      <point x="757" y="0" type="line"/>
      <point x="783" y="179" type="line" smooth="yes"/>
      <point x="797" y="281"/>
      <point x="758" y="340"/>
      <point x="663" y="340" type="curve" smooth="yes"/>
      <point x="581" y="340"/>
      <point x="512" y="291"/>
      <point x="454" y="230" type="curve"/>
      <point x="460" y="202" type="line"/>
      <point x="520" y="262"/>
      <point x="582" y="313"/>
      <point x="662" y="313" type="curve" smooth="yes"/>
      <point x="735" y="313"/>
      <point x="765" y="270"/>
      <point x="752" y="177" type="curve" smooth="yes"/>
    </contour>
    <component base="en-cy"/>
    <component base="hookHELPER" xOffset="559"/>
  </outline>
</glyph>
<glyph name="uni1D6C" format="2">
  <advance width="643"/>
  <unicode hex="1D6C"/>
  <anchor x="323" y="0" name="bottom"/>
  <anchor x="435" y="734" name="top"/>
  <outline>
    <contour>
      <point x="338" y="588" type="curve" smooth="yes"/>
      <point x="377" y="588"/>
      <point x="401" y="610"/>
      <point x="431" y="646" type="curve"/>
      <point x="412" y="660" type="line"/>
      <point x="388" y="635"/>
      <point x="372" y="618"/>
      <point x="339" y="618" type="curve" smooth="yes"/>
      <point x="292" y="618"/>
      <point x="251" y="673"/>
      <point x="194" y="673" type="curve" smooth="yes"/>
      <point x="153" y="673"/>
      <point x="128" y="651"/>
      <point x="98" y="615" type="curve"/>
      <point x="117" y="601" type="line"/>
      <point x="141" y="626"/>
      <point x="158" y="643"/>
      <point x="193" y="643" type="curve" smooth="yes"/>
      <point x="239" y="643"/>
      <point x="286" y="588"/>
    </contour>
    <component base="b" xOffset="77"/>
  </outline>
</glyph>
<glyph name="uni1D6D" format="2">
  <advance width="651"/>
  <unicode hex="1D6D"/>
  <anchor x="249" y="0" name="bottom"/>
  <anchor x="283" y="260" name="center"/>
  <anchor x="334" y="734" name="top"/>
  <anchor x="547" y="734" name="topright"/>
  <outline>
    <contour>
      <point x="564" y="588" type="curve" smooth="yes"/>
      <point x="603" y="588"/>
      <point x="627" y="610"/>
      <point x="657" y="646" type="curve"/>
      <point x="638" y="660" type="line"/>
      <point x="614" y="635"/>
      <point x="598" y="618"/>
      <point x="565" y="618" type="curve" smooth="yes"/>
      <point x="518" y="618"/>
      <point x="477" y="673"/>
      <point x="420" y="673" type="curve" smooth="yes"/>
      <point x="379" y="673"/>
      <point x="354" y="651"/>
      <point x="324" y="615" type="curve"/>
      <point x="343" y="601" type="line"/>
      <point x="367" y="626"/>
      <point x="384" y="643"/>
      <point x="419" y="643" type="curve" smooth="yes"/>
      <point x="465" y="643"/>
      <point x="512" y="588"/>
    </contour>
    <component base="d" xOffset="-5"/>
  </outline>
</glyph>
<glyph name="gravemacron" format="2">
  <unicode hex="1DC5"/>
  <outline>
    <contour>
      <point x="220" y="620" type="line"/>
      <point x="239" y="641" type="line"/>
      <point x="117" y="746" type="line"/>
      <point x="95" y="722" type="line"/>
    </contour>
    <contour>
      <point x="219" y="620" type="line"/>
      <point x="391" y="620" type="line"/>
      <point x="396" y="649" type="line"/>
      <point x="224" y="649" type="line"/>
    </contour>
  </outline>
</glyph>
<glyph name="macrongrave" format="2">
  <unicode hex="1DC6"/>
  <anchor x="221" y="520" name="_top"/>
  <anchor x="244" y="725" name="top"/>
  <outline>
    <contour>
      <point x="375" y="604" type="line"/>
      <point x="392" y="623" type="line"/>
      <point x="266" y="725" type="line"/>
      <point x="248" y="696" type="line"/>
    </contour>
    <contour>
      <point x="263" y="696" type="line"/>
      <point x="267" y="725" type="line"/>
      <point x="95" y="725" type="line"/>
      <point x="91" y="696" type="line"/>
    </contour>
  </outline>
</glyph>
<glyph name="acutemacron" format="2">
  <unicode hex="1DC7"/>
  <anchor x="223" y="520" name="_top"/>
  <anchor x="246" y="725" name="top"/>
  <outline>
    <contour>
      <point x="92" y="604" type="line"/>
      <point x="245" y="696" type="line"/>
      <point x="233" y="725" type="line"/>
      <point x="81" y="623" type="line"/>
    </contour>
    <contour>
      <point x="230" y="696" type="line"/>
      <point x="402" y="696" type="line"/>
      <point x="406" y="725" type="line"/>
      <point x="234" y="725" type="line"/>
    </contour>
  </outline>
</glyph>
<glyph name="graveacutegrave" format="2">
  <unicode hex="1DC8"/>
  <anchor x="244" y="520" name="_top"/>
  <anchor x="275" y="774" name="top"/>
  <outline>
    <contour>
      <point x="212" y="673" type="line"/>
      <point x="333" y="737" type="line"/>
      <point x="433" y="677" type="line"/>
      <point x="447" y="696" type="line"/>
      <point x="336" y="774" type="line"/>
      <point x="213" y="704" type="line"/>
      <point x="116" y="774" type="line"/>
      <point x="99" y="750" type="line"/>
    </contour>
  </outline>
</glyph>
<glyph name="acutegraveacute" format="2">
  <unicode hex="1DC9"/>
  <anchor x="246" y="520" name="_top"/>
  <anchor x="277" y="774" name="top"/>
  <outline>
    <contour>
      <point x="323" y="673" type="line"/>
      <point x="458" y="750" type="line"/>
      <point x="444" y="774" type="line"/>
      <point x="327" y="704" type="line"/>
      <point x="224" y="774" type="line"/>
      <point x="91" y="696" type="line"/>
      <point x="101" y="677" type="line"/>
      <point x="220" y="737" type="line"/>
    </contour>
  </outline>
</glyph>
<glyph name="psilivaria" format="2">
  <advance width="254"/>
  <unicode hex="1FCD"/>
  <anchor x="152" y="520" name="_top"/>
  <outline>
    <contour>
      <point x="241" y="765" type="line"/>
      <point x="200" y="756" type="line"/>
      <point x="242" y="592" type="line"/>
      <point x="268" y="598" type="line"/>
    </contour>
    <component base="psili" xOffset="33"/>
  </outline>
</glyph>
<glyph name="psilioxia" format="2">
  <advance width="254"/>
  <unicode hex="1FCE"/>
  <anchor x="137" y="520" name="_top"/>
  <outline>
    <contour>
      <point x="254" y="765" type="line"/>
      <point x="181" y="598" type="line"/>
      <point x="203" y="590" type="line"/>
      <point x="289" y="751" type="line"/>
    </contour>
    <component base="psili" xOffset="33"/>
  </outline>
</glyph>
<glyph name="psiliperispomeni" format="2">
  <advance width="333"/>
  <unicode hex="1FCF"/>
  <anchor x="193" y="520" name="_top"/>
  <outline>
    <contour>
      <point x="179" y="573" type="line"/>
      <point x="202" y="573" type="line"/>
      <point x="233" y="622" type="line" smooth="yes"/>
      <point x="254" y="656"/>
      <point x="259" y="665"/>
      <point x="259" y="682" type="curve" smooth="yes"/>
      <point x="259" y="698"/>
      <point x="248" y="711"/>
      <point x="227" y="711" type="curve" smooth="yes"/>
      <point x="208" y="711"/>
      <point x="194" y="695"/>
      <point x="194" y="678" type="curve" smooth="yes"/>
      <point x="194" y="664"/>
      <point x="201" y="654"/>
      <point x="214" y="650" type="curve"/>
    </contour>
    <component base="perispomeni" xOffset="9" yOffset="63"/>
  </outline>
</glyph>
<glyph name="dasiavaria" format="2">
  <advance width="254"/>
  <unicode hex="1FDD"/>
  <anchor x="177" y="520" name="_top"/>
  <outline>
    <contour>
      <point x="241" y="765" type="line"/>
      <point x="200" y="756" type="line"/>
      <point x="242" y="592" type="line"/>
      <point x="268" y="598" type="line"/>
    </contour>
    <component base="dasia" xOffset="-7"/>
  </outline>
</glyph>
<glyph name="dasiaperispomeni" format="2">
  <advance width="333"/>
  <unicode hex="1FDF"/>
  <anchor x="229" y="520" name="_top"/>
  <outline>
    <contour>
      <point x="248" y="573" type="line"/>
      <point x="237" y="650" type="line"/>
      <point x="255" y="655"/>
      <point x="263" y="666"/>
      <point x="263" y="682" type="curve" smooth="yes"/>
      <point x="263" y="697"/>
      <point x="252" y="711"/>
      <point x="232" y="711" type="curve" smooth="yes"/>
      <point x="209" y="711"/>
      <point x="197" y="694"/>
      <point x="197" y="674" type="curve" smooth="yes"/>
      <point x="197" y="661"/>
      <point x="202" y="650"/>
      <point x="209" y="624" type="curve" smooth="yes"/>
      <point x="225" y="573" type="line"/>
    </contour>
    <component base="perispomeni" xOffset="19" yOffset="63"/>
  </outline>
</glyph>
<glyph name="dasia" format="2">
  <advance width="131"/>
  <unicode hex="1FFE"/>
  <anchor x="131" y="520" name="_top"/>
  <anchor x="191" y="762" name="_topleft"/>
  <anchor x="131" y="766" name="top"/>
  <outline>
    <contour>
      <point x="127" y="766" type="curve" smooth="yes"/>
      <point x="105" y="766"/>
      <point x="93" y="748"/>
      <point x="93" y="732" type="curve" smooth="yes"/>
      <point x="93" y="724"/>
      <point x="95" y="713"/>
      <point x="105" y="679" type="curve" smooth="yes"/>
      <point x="131" y="593" type="line"/>
      <point x="152" y="593" type="line"/>
      <point x="134" y="705" type="line"/>
      <point x="147" y="711"/>
      <point x="158" y="720"/>
      <point x="158" y="737" type="curve" smooth="yes"/>
      <point x="158" y="752"/>
      <point x="147" y="766"/>
    </contour>
  </outline>
</glyph>
<glyph name="daggerdbl" format="2">
  <advance width="513"/>
  <unicode hex="2021"/>
  <outline>
    <contour>
      <point x="448" y="213" type="line"/>
      <point x="56" y="213" type="line"/>
      <point x="53" y="186" type="line"/>
      <point x="445" y="186" type="line"/>
    </contour>
    <component base="dagger"/>
  </outline>
</glyph>
<glyph name="drachma" format="2">
  <advance width="1100"/>
  <unicode hex="20AF"/>
  <anchor x="866" y="520" name="top"/>
  <outline>
    <contour>
      <point x="59" y="0" type="line"/>
      <point x="237" y="0" type="line" smooth="yes"/>
      <point x="473" y="0"/>
      <point x="585" y="185"/>
      <point x="585" y="417" type="curve" smooth="yes"/>
      <point x="585" y="597"/>
      <point x="475" y="662"/>
      <point x="325" y="662" type="curve" smooth="yes"/>
      <point x="217" y="662" type="line"/>
      <point x="213" y="634" type="line"/>
      <point x="321" y="634" type="line" smooth="yes"/>
      <point x="455" y="634"/>
      <point x="553" y="583"/>
      <point x="553" y="417" type="curve" smooth="yes"/>
      <point x="553" y="207"/>
      <point x="458" y="29"/>
      <point x="241" y="29" type="curve" smooth="yes"/>
      <point x="107" y="29" type="line"/>
    </contour>
    <contour>
      <point x="59" y="0" type="line"/>
      <point x="108" y="29" type="line"/>
      <point x="159" y="53"/>
      <point x="184" y="76"/>
      <point x="194" y="143" type="curve" smooth="yes"/>
      <point x="256" y="584" type="line"/>
      <point x="226" y="585" type="line"/>
      <point x="164" y="143" type="line" smooth="yes"/>
      <point x="155" y="82"/>
      <point x="126" y="58"/>
      <point x="62" y="28" type="curve"/>
    </contour>
    <component base="rho" xOffset="540"/>
    <component base="hookaboveHELPER2.case" xOffset="-3" yOffset="-20"/>
  </outline>
</glyph>
<glyph name="rupeeIndian" format="2">
  <advance width="517"/>
  <unicode hex="20B9"/>
  <outline>
    <contour>
      <point x="360" y="0" type="line"/>
      <point x="396" y="0" type="line"/>
      <point x="245" y="302" type="line"/>
      <point x="213" y="297" type="line"/>
    </contour>
    <contour>
      <point x="103" y="492" type="line"/>
      <point x="520" y="492" type="line"/>
      <point x="524" y="521" type="line"/>
      <point x="107" y="521" type="line"/>
    </contour>
    <contour>
      <point x="544" y="662" type="line"/>
      <point x="126" y="662" type="line"/>
      <point x="123" y="634" type="line"/>
      <point x="219" y="634" type="line" smooth="yes"/>
      <point x="349" y="634"/>
      <point x="399" y="591"/>
      <point x="399" y="507" type="curve" smooth="yes"/>
      <point x="399" y="386"/>
      <point x="319" y="319"/>
      <point x="183" y="319" type="curve" smooth="yes"/>
      <point x="78" y="319" type="line"/>
      <point x="74" y="290" type="line"/>
      <point x="217" y="290" type="line"/>
      <point x="351" y="309"/>
      <point x="431" y="378"/>
      <point x="431" y="508" type="curve" smooth="yes"/>
      <point x="431" y="574"/>
      <point x="404" y="616"/>
      <point x="347" y="634" type="curve"/>
      <point x="540" y="634" type="line"/>
    </contour>
  </outline>
</glyph>
<glyph name="ruble" format="2">
  <advance width="552"/>
  <unicode hex="20BD"/>
  <outline>
    <contour>
      <point x="124" y="0" type="line"/>
      <point x="214" y="634" type="line"/>
      <point x="309" y="634" type="line" smooth="yes"/>
      <point x="430" y="634"/>
      <point x="497" y="600"/>
      <point x="497" y="496" type="curve" smooth="yes"/>
      <point x="497" y="365"/>
      <point x="408" y="297"/>
      <point x="257" y="297" type="curve" smooth="yes"/>
      <point x="159" y="297" type="line"/>
      <point x="155" y="269" type="line"/>
      <point x="252" y="269" type="line" smooth="yes"/>
      <point x="419" y="269"/>
      <point x="528" y="345"/>
      <point x="528" y="496" type="curve" smooth="yes"/>
      <point x="528" y="613"/>
      <point x="449" y="662"/>
      <point x="311" y="662" type="curve" smooth="yes"/>
      <point x="187" y="662" type="line"/>
      <point x="94" y="0" type="line"/>
    </contour>
    <contour>
      <point x="322" y="156" type="line"/>
      <point x="35" y="156" type="line"/>
      <point x="31" y="128" type="line"/>
      <point x="318" y="128" type="line"/>
    </contour>
    <contour>
      <point x="242" y="297" type="line"/>
      <point x="55" y="297" type="line"/>
      <point x="51" y="269" type="line"/>
      <point x="238" y="269" type="line"/>
    </contour>
  </outline>
</glyph>
<glyph name="numero" format="2">
  <advance width="1060"/>
  <unicode hex="2116"/>
  <anchor x="295" y="0" name="bottom"/>
  <anchor x="398" y="682" name="top"/>
  <outline>
    <contour>
      <point x="867" y="682" type="curve" smooth="yes"/>
      <point x="741" y="682"/>
      <point x="667" y="569"/>
      <point x="667" y="435" type="curve" smooth="yes"/>
      <point x="667" y="335"/>
      <point x="720" y="276"/>
      <point x="813" y="276" type="curve" smooth="yes"/>
      <point x="941" y="276"/>
      <point x="1015" y="390"/>
      <point x="1015" y="525" type="curve" smooth="yes"/>
      <point x="1015" y="628"/>
      <point x="960" y="682"/>
    </contour>
    <contour>
      <point x="868" y="654" type="curve" smooth="yes"/>
      <point x="943" y="654"/>
      <point x="984" y="611"/>
      <point x="984" y="527" type="curve" smooth="yes"/>
      <point x="984" y="411"/>
      <point x="929" y="304"/>
      <point x="814" y="304" type="curve" smooth="yes"/>
      <point x="740" y="304"/>
      <point x="698" y="350"/>
      <point x="698" y="435" type="curve" smooth="yes"/>
      <point x="698" y="550"/>
      <point x="754" y="654"/>
    </contour>
    <component base="N"/>
    <component base="minus" xOffset="521" yOffset="-316"/>
  </outline>
</glyph>
<glyph name="arrowleft" format="2">
  <advance width="900"/>
  <unicode hex="2190"/>
  <outline>
    <contour>
      <point x="410" y="598" type="line"/>
      <point x="167" y="329" type="line"/>
      <point x="410" y="60" type="line"/>
      <point x="432" y="80" type="line"/>
      <point x="289" y="241" type="line" smooth="yes"/>
      <point x="261" y="273"/>
      <point x="232" y="299"/>
      <point x="212" y="315" type="curve"/>
      <point x="752" y="315" type="line"/>
      <point x="752" y="343" type="line"/>
      <point x="212" y="343" type="line"/>
      <point x="232" y="359"/>
      <point x="261" y="385"/>
      <point x="289" y="417" type="curve" smooth="yes"/>
      <point x="432" y="578" type="line"/>
    </contour>
  </outline>
</glyph>
<glyph name="arrowdown" format="2">
  <advance width="900"/>
  <unicode hex="2193"/>
  <outline>
    <contour>
      <point x="462" y="613" type="line"/>
      <point x="432" y="613" type="line"/>
      <point x="432" y="30" type="line"/>
      <point x="417" y="49"/>
      <point x="390" y="77"/>
      <point x="358" y="105" type="curve" smooth="yes"/>
      <point x="181" y="259" type="line"/>
      <point x="160" y="238" type="line"/>
      <point x="447" y="-16" type="line"/>
      <point x="734" y="238" type="line"/>
      <point x="713" y="259" type="line"/>
      <point x="536" y="105" type="line" smooth="yes"/>
      <point x="504" y="77"/>
      <point x="477" y="49"/>
      <point x="462" y="30" type="curve"/>
    </contour>
  </outline>
</glyph>
